<?xml version="1.0" standalone="no"?>
<!DOCTYPE svg PUBLIC "-//W3C//DTD SVG 1.1//EN" "http://www.w3.org/Graphics/SVG/1.1/DTD/svg11.dtd" >
<svg xmlns="http://www.w3.org/2000/svg">
<metadata>
This is a custom SVG webfont generated by Font Squirrel.
Copyright   :  2008 Microsoft Corporation All Rights Reserved
Designer    : Jeremy Tankard
Foundry     : Microsoft Corporation
Foundry URL : httpwwwmicrosoftcomtypographyctfonts
</metadata>
<defs>
<font id="CorbelBold" horiz-adv-x="1080" >
<font-face units-per-em="2048" ascent="1523" descent="-525" />
<missing-glyph horiz-adv-x="422" />
<glyph unicode="&#xfb00;" horiz-adv-x="1285" d="M10 774v195h164v125q0 98 27 169.5t75.5 118t115.5 69t148 22.5q49 0 92 -7t75 -18v-188q-32 8 -66.5 13.5t-68.5 5.5q-42 0 -72 -10t-50 -32t-29.5 -57t-9.5 -85v-126h376v115q0 102 28.5 175.5t79.5 121t120 70t150 22.5q55 0 103.5 -9t81.5 -20v-188q-32 8 -74 15.5 t-85 7.5q-40 0 -71 -10t-52.5 -31.5t-32.5 -56.5t-11 -85v-127h269v-195h-269v-774h-237v774h-376v-774h-237v774h-164z" />
<glyph unicode="&#xfb01;" horiz-adv-x="1160" d="M10 774v195h164v89q0 112 39 190.5t103 128.5t146.5 73t169.5 23q71 0 136.5 -9.5t120.5 -23.5v-188q-50 11 -107.5 19t-118.5 8q-49 0 -94.5 -10.5t-80.5 -35t-56 -66.5t-21 -105v-93h613v-969h-237v774h-376v-774h-237v774h-164z" />
<glyph unicode="&#xfb02;" horiz-adv-x="1164" d="M10 774v195h164v89q0 112 39.5 190.5t105.5 128.5t151 73t175 23q99 0 202.5 -16.5t176.5 -38.5v-1418h-237v1263q-59 16 -124 16q-48 0 -93.5 -10.5t-80.5 -35t-56.5 -66.5t-21.5 -105v-93h239v-195h-239v-774h-237v774h-164z" />
<glyph unicode="&#xfb03;" horiz-adv-x="1773" d="M10 774v195h164v125q0 98 27 169.5t75.5 118t115.5 69t148 22.5q49 0 91.5 -7t75.5 -18v-188q-32 8 -66.5 13.5t-68.5 5.5q-42 0 -72 -10t-50 -32t-29.5 -57t-9.5 -85v-126h376v88q0 112 39 191t103 129t146.5 73t169.5 23q71 0 136.5 -9.5t120.5 -23.5v-188 q-52 11 -109.5 19t-116.5 8q-49 0 -94.5 -10.5t-80.5 -35t-56 -66.5t-21 -105v-93h613v-969h-237v774h-376v-774h-237v774h-376v-774h-237v774h-164z" />
<glyph unicode="&#xfb04;" horiz-adv-x="1777" d="M10 774v195h164v125q0 98 27 169.5t75.5 118t115.5 69t148 22.5q48 0 90.5 -7t76.5 -18v-188q-32 8 -67 13.5t-68 5.5q-42 0 -72 -10t-50 -32t-29.5 -57t-9.5 -85v-126h376v89q0 112 39.5 190.5t105.5 128.5t151 73t175 23q95 0 195.5 -15.5t183.5 -39.5v-1418h-237v1263 q-60 16 -124 16q-48 0 -93.5 -10.5t-80.5 -35t-56.5 -66.5t-21.5 -105v-93h239v-195h-239v-774h-237v774h-376v-774h-237v774h-164z" />
<glyph unicode="fb" horiz-adv-x="1783" d="M10 774v195h164v89q0 112 39.5 190.5t105.5 128.5t151 73t175 23q54 0 109.5 -5t105.5 -13.5t92 -18t72 -18.5v-373q0 -43 -0.5 -79.5t-1.5 -56.5h2q23 16 50 31t59 27t68.5 19t78.5 7q81 0 157.5 -29t135.5 -89.5t94.5 -153t35.5 -220.5q0 -135 -38 -234t-99.5 -164 t-138.5 -96.5t-155 -31.5q-55 0 -99 13.5t-77 33.5t-55.5 42t-35.5 39h-4l-23 -103h-196q2 57 3.5 113.5t1.5 113.5v1036q-60 16 -124 16q-48 0 -93.5 -10.5t-80.5 -35t-56.5 -66.5t-21.5 -105v-93h239v-195h-239v-774h-237v774h-164zM1024 263q14 -16 34.5 -33.5t46 -32 t55.5 -24t64 -9.5q58 0 101.5 23.5t73 66.5t44.5 102.5t15 132.5q0 99 -22.5 160.5t-56.5 96t-74.5 46.5t-76.5 12q-52 0 -106 -21t-98 -56v-464z" />
<glyph unicode="ffb" horiz-adv-x="2396" d="M10 774v195h164v125q0 98 27 169.5t75.5 118t115.5 69t148 22.5q49 0 92 -7t75 -18v-188q-32 8 -66.5 13.5t-68.5 5.5q-42 0 -72 -10t-50 -32t-29.5 -57t-9.5 -85v-126h376v89q0 112 39.5 190.5t105.5 128.5t151 73t175 23q55 0 110 -5t105 -13.5t92 -18t72 -18.5v-373 q0 -43 -0.5 -79.5t-1.5 -56.5h2q23 16 50 31t59 27t68.5 19t78.5 7q81 0 157.5 -29t135.5 -89.5t94.5 -153t35.5 -220.5q0 -135 -38 -234t-99.5 -164t-138.5 -96.5t-155 -31.5q-55 0 -99 13.5t-77 33.5t-55.5 42t-35.5 39h-4l-23 -103h-196q2 57 3.5 113.5t1.5 113.5v1036 q-60 16 -124 16q-48 0 -93.5 -10.5t-80.5 -35t-56.5 -66.5t-21.5 -105v-93h239v-195h-239v-774h-237v774h-376v-774h-237v774h-164zM1637 263q14 -16 34.5 -33.5t46 -32t55.5 -24t64 -9.5q58 0 101.5 23.5t73 66.5t44.5 102.5t15 132.5q0 99 -22.5 160.5t-56.5 96 t-74.5 46.5t-76.5 12q-52 0 -106 -21t-98 -56v-464z" />
<glyph unicode="fh" horiz-adv-x="1793" d="M10 774v195h164v89q0 112 39.5 190.5t105.5 128.5t151 73t175 23q55 0 110 -5t105 -13.5t92 -18t72 -18.5v-365q0 -75 -2.5 -123.5t-8.5 -87.5h4q21 28 50.5 55t67 48.5t84 34.5t102.5 13q48 0 93 -9.5t85 -29.5t72.5 -52t54.5 -76q19 -38 28 -86t9 -117v-623h-237v591 q0 42 -4 72t-14 51q-21 43 -60 61.5t-89 18.5q-69 0 -127.5 -32.5t-107.5 -94.5v-667h-237v1263q-60 16 -124 16q-48 0 -93.5 -10.5t-80.5 -35t-56.5 -66.5t-21.5 -105v-93h239v-195h-239v-774h-237v774h-164z" />
<glyph unicode="ffh" horiz-adv-x="2406" d="M10 774v195h164v125q0 98 27 169.5t75.5 118t115.5 69t148 22.5q47 0 91 -7t76 -18v-188q-32 8 -66.5 13.5t-68.5 5.5q-42 0 -72 -10t-50 -32t-29.5 -57t-9.5 -85v-126h376v89q0 112 39.5 190.5t105.5 128.5t151 73t175 23q83 0 179 -13t200 -42v-365q0 -75 -2.5 -123.5 t-8.5 -87.5h4q21 28 50.5 55t67 48.5t84 34.5t102.5 13q48 0 93 -9.5t85 -29.5t72.5 -52t54.5 -76q19 -38 28 -86t9 -117v-623h-237v591q0 38 -4 70t-14 53q-20 42 -58.5 61t-90.5 19q-69 0 -127.5 -32.5t-107.5 -94.5v-667h-237v1263q-60 16 -124 16q-48 0 -93.5 -10.5 t-80.5 -35t-56.5 -66.5t-21.5 -105v-93h239v-195h-239v-774h-237v774h-376v-774h-237v774h-164z" />
<glyph unicode="fj" horiz-adv-x="1160" d="M10 774v195h164v89q0 112 39 190.5t103 128.5t146.5 73t169.5 23q72 0 137 -9.5t120 -23.5v-188q-51 11 -109 19t-117 8q-49 0 -94.5 -10.5t-80.5 -35t-56 -66.5t-21 -105v-93h613v-1096q0 -136 -43 -210q-45 -78 -132 -115.5t-206 -37.5q-51 0 -95.5 6t-80.5 17v194 q30 -8 70 -15.5t77 -7.5q49 0 84.5 11t57.5 38q17 20 24 56t7 83v882h-376v-774h-237v774h-164z" />
<glyph unicode="ffj" horiz-adv-x="1773" d="M10 774v195h164v125q0 98 27 169.5t75.5 118t115.5 69t148 22.5q49 0 91.5 -7t75.5 -18v-188q-32 8 -66.5 13.5t-68.5 5.5q-42 0 -72 -10t-50 -32t-29.5 -57t-9.5 -85v-126h376v89q0 112 39 190.5t103 128.5t146.5 73t169.5 23q74 0 138.5 -9.5t118.5 -23.5v-188 q-50 11 -108.5 19t-117.5 8q-49 0 -94.5 -10.5t-80.5 -35t-56 -66.5t-21 -105v-93h613v-1096q0 -136 -43 -210q-45 -78 -131.5 -115.5t-206.5 -37.5q-51 0 -95.5 6t-80.5 17v194q28 -8 69 -15.5t78 -7.5q48 0 84 11t58 38q17 20 24 55t7 84v882h-376v-774h-237v774h-376 v-774h-237v774h-164z" />
<glyph unicode="fk" horiz-adv-x="1714" d="M10 774v195h164v89q0 112 39.5 190.5t105.5 128.5t151 73t175 23q88 0 185 -14t194 -41v-842h5l369 393h293l-425 -455l428 -514h-287l-379 451h-4v-451h-237v1263q-60 16 -124 16q-48 0 -93.5 -10.5t-80.5 -35t-56.5 -66.5t-21.5 -105v-93h239v-195h-239v-774h-237v774 h-164z" />
<glyph unicode="ffk" horiz-adv-x="2327" d="M10 774v195h164v125q0 98 27 169.5t75.5 118t115.5 69t148 22.5q47 0 91 -7t76 -18v-188q-31 8 -66 13.5t-69 5.5q-42 0 -72 -10t-50 -32t-29.5 -57t-9.5 -85v-126h376v89q0 112 39.5 190.5t105.5 128.5t151 73t175 23q101 0 205 -17t174 -38v-842h5l369 393h293 l-425 -455l428 -514h-287l-379 451h-4v-451h-237v1263q-60 16 -124 16q-48 0 -93.5 -10.5t-80.5 -35t-56.5 -66.5t-21.5 -105v-93h239v-195h-239v-774h-237v774h-376v-774h-237v774h-164z" />
<glyph horiz-adv-x="0" />
<glyph horiz-adv-x="0" />
<glyph unicode="&#xd;" horiz-adv-x="422" />
<glyph unicode=" "  horiz-adv-x="422" />
<glyph unicode="&#x09;" horiz-adv-x="422" />
<glyph unicode="&#xa0;" horiz-adv-x="422" />
<glyph unicode="!" horiz-adv-x="599" d="M165 0v267h269v-267h-269zM167 1338h265l-24 -858h-217z" />
<glyph unicode="&#x22;" horiz-adv-x="808" d="M110 787v551h211v-551h-211zM487 787v551h211v-551h-211z" />
<glyph unicode="#" horiz-adv-x="1361" d="M110 357v182h234l53 260h-205v182h243l73 357h190l-73 -357h240l73 357h190l-73 -357h196v-182h-234l-53 -260h205v-182h-243l-73 -357h-190l73 357h-240l-73 -357h-190l73 357h-196zM534 539h240l53 260h-240z" />
<glyph unicode="$" d="M114 726q0 66 24 117.5t69 89t109.5 60.5t145.5 32v103h159v-100q73 -4 148.5 -16.5t138.5 -34.5v-198q-154 50 -287 56v-222q63 -10 124.5 -26.5t110 -48t79 -82.5t30.5 -131q0 -128 -89.5 -201t-254.5 -91v-103h-159v98q-98 3 -184.5 17.5t-143.5 40.5v196 q39 -14 76 -24.5t76 -18t82 -12t94 -5.5v219q-63 9 -125 24.5t-111.5 46.5t-80.5 82t-31 132zM333 736q0 -42 32 -64t97 -34v192q-73 -8 -101 -32.5t-28 -61.5zM621 229q124 16 124 92q0 42 -30.5 63.5t-93.5 32.5v-188z" />
<glyph unicode="%" horiz-adv-x="1694" d="M45 929q0 110 23.5 191.5t66 135.5t101.5 80.5t130 26.5t130 -26.5t101.5 -80.5t66 -135.5t23.5 -191.5q0 -109 -23.5 -190.5t-66 -135.5t-101.5 -81t-130 -27t-130 27t-101.5 81t-66 135.5t-23.5 190.5zM263 929q0 -55 5 -102.5t17 -81.5t31.5 -53.5t49.5 -19.5 t49.5 19.5t31.5 53.5t17 81.5t5 102.5q0 56 -5 103t-17 81t-31.5 53.5t-49.5 19.5t-49.5 -19.5t-31.5 -53.5t-17 -81t-5 -103zM293 65l976 1308l130 -100l-976 -1308zM1007 419q0 110 23.5 191.5t66 135.5t101.5 80.5t130 26.5t130 -26.5t101.5 -80.5t66 -135.5t23.5 -191.5 q0 -109 -23.5 -190.5t-66 -135.5t-101.5 -81t-130 -27t-130 27t-101.5 81t-66 135.5t-23.5 190.5zM1225 419q0 -55 5 -102.5t17 -81.5t31.5 -53.5t49.5 -19.5t49.5 19.5t31.5 53.5t17 81.5t5 102.5q0 56 -5 103t-17 81t-31.5 53.5t-49.5 19.5t-49.5 -19.5t-31.5 -53.5 t-17 -81t-5 -103z" />
<glyph unicode="&#x26;" horiz-adv-x="1417" d="M90 333q0 69 21.5 124.5t57.5 100.5t83 81.5t98 67.5q-38 37 -70.5 74t-56.5 77t-37.5 84.5t-13.5 96.5q0 76 27 136t78 102t124.5 64t166.5 22t167 -20t125.5 -59.5t79.5 -98t28 -135.5q0 -68 -21 -122.5t-57 -98.5t-83 -80t-98 -68q49 -50 112 -115t133 -137 q33 58 54.5 129t28.5 156h231q-14 -137 -56.5 -247t-106.5 -196q51 -52 96 -99t80.5 -83.5t58 -60t27.5 -28.5h-338q-17 22 -38 45.5t-56 61.5q-97 -67 -208 -99.5t-225 -32.5q-92 0 -168 25.5t-130 72t-84 113t-30 147.5zM335 336q0 -42 15 -73t40.5 -52t60 -31.5 t73.5 -10.5q69 0 138.5 21t132.5 65q-38 39 -77 79t-77 79t-74.5 75.5t-68.5 69.5q-35 -22 -65 -46t-51.5 -51t-34 -58t-12.5 -67zM417 1044q0 -30 9.5 -56t28 -51.5t45 -51.5t59.5 -57q35 22 65 45t52 49t34.5 55.5t12.5 63.5q0 58 -40 93t-113 35q-37 0 -65.5 -10t-48 -27 t-29.5 -39.5t-10 -48.5z" />
<glyph unicode="'" horiz-adv-x="431" d="M110 787v551h211v-551h-211z" />
<glyph unicode="(" horiz-adv-x="626" d="M100 519q0 113 18 212.5t47.5 186t67.5 159t78 130t78.5 99.5t68.5 68l128 -118q-54 -59 -103 -132t-86.5 -163.5t-59.5 -200t-22 -241.5t22 -241.5t59.5 -200t86.5 -163.5t103 -132l-128 -118q-30 26 -68.5 68t-78.5 99.5t-78 130t-67.5 159t-47.5 186.5t-18 212z" />
<glyph unicode=")" horiz-adv-x="626" d="M40 -218q54 59 103 132t86.5 163.5t59.5 200t22 241.5t-22 241.5t-59.5 200t-86.5 163.5t-103 132l128 118q30 -26 68.5 -68t78.5 -99.5t78 -130t67.5 -159t47.5 -186t18 -212.5q0 -112 -18 -212t-47.5 -186.5t-67.5 -159t-78 -130t-78 -99.5t-69 -68z" />
<glyph unicode="*" horiz-adv-x="1081" d="M100 941l59 180l171 -59l158 -100l4 4l-46 182v190h189v-190l-46 -182l4 -4l158 100l171 59l59 -180l-171 -58l-188 -13l-1 -5l144 -120l114 -157l-153 -112l-113 158l-69 175h-7l-69 -175l-113 -158l-153 112l114 157l144 120l-1 5l-188 13z" />
<glyph unicode="+" d="M114 436v191h326v344h200v-344h326v-191h-326v-343h-200v343h-326z" />
<glyph unicode="," horiz-adv-x="649" d="M10 -411l192 678h277l-216 -678h-253z" />
<glyph unicode="-" horiz-adv-x="681" d="M120 393v215h441v-215h-441z" />
<glyph unicode="." horiz-adv-x="599" d="M165 0v267h269v-267h-269z" />
<glyph unicode="/" horiz-adv-x="603" d="M8 -249l380 1587h208l-380 -1587h-208z" />
<glyph unicode="0" horiz-adv-x="1055" d="M65 484q0 109 30.5 202t89.5 161.5t145 107t198 38.5q114 0 200.5 -38.5t144.5 -107t87.5 -161.5t29.5 -202t-29.5 -202t-87.5 -161t-144.5 -107t-200.5 -39q-112 0 -198 39t-145 107t-89.5 161t-30.5 202zM310 484q0 -152 56 -233.5t162 -81.5q105 0 161 81.5t56 233.5 t-56 233.5t-161 81.5q-106 0 -162 -81.5t-56 -233.5z" />
<glyph unicode="1" horiz-adv-x="1013" d="M90 621v210l392 138h182v-768h282v-201h-836v201h317v516z" />
<glyph unicode="2" horiz-adv-x="1022" d="M90 0v145q105 72 200 141.5t166.5 133t113.5 123.5t42 118q0 35 -13 59t-36.5 39.5t-55 22.5t-68.5 7q-72 0 -159 -23t-180 -68v201q32 17 72.5 33.5t87.5 30t100.5 22t110.5 8.5q85 0 156 -21t122 -61.5t79.5 -100t28.5 -137.5q0 -72 -29.5 -134t-81 -119t-122.5 -111.5 t-154 -111.5v-4q138 8 205 8h262v-201h-847z" />
<glyph unicode="3" horiz-adv-x="999" d="M75 -148q56 -26 129.5 -44t159.5 -18q78 0 131.5 18t86.5 48.5t47.5 71t14.5 85.5q0 66 -27.5 109.5t-78.5 65.5q-26 11 -59.5 15.5t-80.5 4.5h-156v201h106q46 0 82 4.5t65 16.5q57 23 88 70.5t31 119.5q0 47 -18 79.5t-49 52.5t-73 29t-83 9q-84 0 -155.5 -16.5 t-139.5 -44.5v205q65 25 143 42t183 17q102 0 183.5 -28.5t138 -78t86 -116t29.5 -143.5q0 -101 -44 -180t-140 -124v-4q47 -13 86 -40t67.5 -66t44.5 -88.5t16 -109.5q0 -98 -31.5 -177t-95.5 -135t-160.5 -86t-225.5 -30q-36 0 -76 3.5t-79.5 11t-77 18.5t-68.5 26v206z " />
<glyph unicode="4" horiz-adv-x="1081" d="M65 0v169l365 800h242l-354 -774l2 -3q81 9 191 9h104v248h237v-248h174v-201h-174v-387h-237v387h-550z" />
<glyph unicode="5" horiz-adv-x="1002" d="M90 -149q76 -32 144 -46.5t131 -14.5q80 0 136 18t92 49.5t52.5 75t16.5 94.5q0 55 -18 97.5t-57.5 72t-100.5 44.5t-146 15q-47 0 -100.5 -4.5t-115.5 -14.5l103 732h679v-216h-477l-44 -308q28 1 49 1q117 0 206 -29.5t148 -84t89 -131t30 -169.5q0 -94 -34.5 -175.5 t-101.5 -141.5t-165 -94t-224 -34q-83 0 -157 16t-135 41v207z" />
<glyph unicode="6" horiz-adv-x="1127" d="M95 580q0 158 39 300t115.5 249.5t188.5 170.5t259 63q83 0 153 -17t109 -36v-204q-60 23 -121.5 38.5t-122.5 15.5q-62 0 -119.5 -21.5t-105 -68t-83.5 -119.5t-54 -175h4q112 52 244 54q91 0 170 -26.5t137 -78.5t91 -127.5t33 -174.5t-30.5 -181t-89 -141.5 t-143.5 -92.5t-193 -33q-114 0 -203 42.5t-151 121.5t-94.5 190.5t-32.5 250.5zM340 573q0 -105 18 -180t50 -122.5t76.5 -70t96.5 -22.5q44 0 81.5 13.5t65.5 42t43.5 72.5t15.5 104q0 64 -17 106t-46 66.5t-67.5 34.5t-84.5 10q-58 0 -118.5 -13.5t-113.5 -40.5z" />
<glyph unicode="7" horiz-adv-x="1000" d="M59 753v216h865v-162l-566 -1194h-243l540 1140h-596z" />
<glyph unicode="8" horiz-adv-x="1138" d="M100 363q0 66 17.5 119t48 94t72 70t90.5 46v4q-93 41 -146.5 114.5t-53.5 176.5q0 88 34.5 158t94.5 118.5t140.5 74t171.5 25.5t171.5 -25.5t140.5 -74t94.5 -118.5t34.5 -158q0 -103 -53.5 -176.5t-146.5 -114.5v-4q49 -17 90.5 -46t72 -70t48 -94t17.5 -119 q0 -85 -34 -156t-95.5 -122.5t-148 -80.5t-191.5 -29t-191.5 29t-148 80.5t-95.5 122.5t-34 156zM345 371q0 -46 17 -83.5t47 -64t71 -40.5t89 -14t89 14t71 40.5t47 64t17 83.5q0 51 -16.5 90t-46.5 66.5t-71 44t-90 22.5q-49 -6 -90 -22.5t-71 -44t-46.5 -66.5t-16.5 -90z M373 990q0 -81 51 -134.5t145 -74.5q94 21 145 74.5t51 134.5q0 45 -15.5 78.5t-42 56t-62 33.5t-76.5 11q-40 0 -76 -11t-62.5 -33.5t-42 -56t-15.5 -78.5z" />
<glyph unicode="9" horiz-adv-x="1128" d="M95 546q0 95 30 176.5t87.5 141.5t141.5 94.5t192 34.5q118 0 208.5 -42t152.5 -123t94 -199.5t32 -271.5q0 -102 -14.5 -199t-46 -182.5t-80 -157t-117 -123t-157.5 -80t-200 -28.5q-85 0 -161.5 16t-134.5 45v207q65 -32 139 -48.5t138 -16.5q162 0 258 96t123 305h-4 q-51 -26 -118 -39.5t-139 -13.5q-89 0 -166.5 26t-134.5 77.5t-90 128t-33 176.5zM340 561q0 -61 15 -103t43 -68t66.5 -37.5t84.5 -11.5q60 0 122.5 13t115.5 41q-2 109 -21 184.5t-51 122t-76 67.5t-97 21q-44 0 -81 -14t-64 -42.5t-42 -71.5t-15 -101z" />
<glyph unicode=":" horiz-adv-x="599" d="M165 0v267h269v-267h-269zM165 633v267h269v-267h-269z" />
<glyph unicode=";" horiz-adv-x="649" d="M10 -411l192 678h277l-216 -678h-253zM193 633v267h269v-267h-269z" />
<glyph unicode="&#x3c;" d="M114 435v204l852 384v-217l-628 -267v-4l628 -267v-217z" />
<glyph unicode="=" d="M114 234v191h852v-191h-852zM114 619v191h852v-191h-852z" />
<glyph unicode="&#x3e;" d="M114 51v217l628 267v4l-628 267v217l852 -384v-204z" />
<glyph unicode="?" horiz-adv-x="920" d="M100 1105v193q30 14 67.5 26t78 20.5t83 13.5t82.5 5q99 0 177 -23.5t131.5 -67.5t82 -106.5t28.5 -139.5q0 -59 -13 -102.5t-35 -76t-50.5 -56.5t-59.5 -45q-35 -24 -70 -46t-63 -49.5t-45.5 -64.5t-17.5 -90v-16h-223q-1 9 -1.5 22.5t-0.5 21.5q0 75 19.5 126.5 t50 88.5t67.5 63.5t73 49.5q25 17 47.5 33.5t39.5 36.5t27 44t10 55q0 67 -49 107.5t-153 40.5q-77 0 -151.5 -19t-131.5 -45zM235 0v267h269v-267h-269z" />
<glyph unicode="@" horiz-adv-x="2098" d="M180 454q0 202 62 369.5t177 287.5t278.5 186t366.5 66q187 0 343.5 -57.5t270 -162t177 -250.5t63.5 -324q0 -138 -33 -244t-92 -178.5t-139.5 -109.5t-175.5 -37q-49 0 -84 9t-60.5 25.5t-42 39.5t-27.5 51h-4q-19 -22 -48.5 -44.5t-66.5 -40.5t-81.5 -29t-93.5 -11 q-67 0 -123.5 21t-98 59.5t-64.5 93t-23 122.5q0 75 27 133.5t75.5 99t116 62t149.5 21.5q67 0 115 -8t83 -17v37q0 32 -11 62t-35 53t-63 37t-95 14q-69 0 -137 -15.5t-148 -45.5v176q29 14 65 25.5t76.5 20t83.5 13.5t86 5q101 0 176.5 -24.5t125.5 -68t75.5 -102.5 t25.5 -128v-390q0 -22 2.5 -40t10 -31t20.5 -20t33 -7q47 0 88 28t71 79.5t47.5 125.5t17.5 166q0 162 -54 283t-146.5 202t-216 121t-262.5 40q-187 0 -321 -61.5t-219.5 -164.5t-126 -236.5t-40.5 -277.5q0 -154 46 -285.5t138.5 -228t231.5 -151t325 -54.5 q83 0 161.5 8.5t148.5 22.5t129.5 31.5t103.5 36.5v-160q-45 -18 -107.5 -35.5t-135 -31t-151 -21.5t-155.5 -8q-129 0 -246 25.5t-218.5 76t-184 124t-140.5 170t-90 214.5t-32 257zM890 305q0 -32 11 -55.5t29.5 -38.5t43.5 -22.5t52 -7.5q34 0 64.5 9t56 23t46 31 t34.5 33v141q-32 7 -72 13.5t-86 6.5q-82 0 -130.5 -32t-48.5 -101z" />
<glyph unicode="A" horiz-adv-x="1346" d="M30 0l531 1338h224l531 -1338h-259l-131 341h-504l-131 -341h-261zM501 546h346l-46 119q-55 142 -125 351h-4q-70 -210 -125 -351z" />
<glyph unicode="B" horiz-adv-x="1276" d="M160 0v1338h465q149 0 240 -30q68 -22 118 -57.5t82.5 -79t48 -92t15.5 -97.5q0 -87 -39 -159.5t-129 -120.5v-4q50 -17 91.5 -43.5t71 -63t46 -82.5t16.5 -103q0 -49 -15.5 -105t-54.5 -108.5t-104 -96.5t-164 -70q-25 -6 -54.5 -11t-65.5 -8.5t-80 -5t-99 -1.5h-389z M405 205h160q64 0 110 3.5t79 11.5q51 11 85 29.5t55 42t30 52t9 60.5q0 56 -31 98t-97 63q-29 9 -68 13t-100 4h-232v-377zM405 787h221q100 0 149 20q55 23 78.5 63.5t23.5 91.5q0 53 -27 94.5t-92 61.5q-27 8 -63 11.5t-89 3.5h-201v-346z" />
<glyph unicode="C" horiz-adv-x="1197" d="M100 645q0 153 46.5 284t134 227t219 151t297.5 56q85 0 161 -11.5t137 -32.5v-208q-80 25 -149 35t-135 10q-100 0 -184.5 -33t-145 -96t-94.5 -155.5t-34 -211.5q0 -118 31 -207.5t89 -149.5t141.5 -90.5t189.5 -30.5q76 0 155 12t148 35v-211q-70 -20 -151 -31.5 t-168 -11.5q-170 0 -299 48.5t-215.5 137t-130 212t-43.5 272.5z" />
<glyph unicode="D" horiz-adv-x="1411" d="M160 0v1338h354q47 0 95.5 -3t94.5 -9t89 -14.5t79 -20.5q107 -34 189 -92t137.5 -137t84 -176.5t28.5 -211.5q0 -108 -24 -202.5t-73 -172.5t-123.5 -137.5t-176.5 -97.5q-85 -32 -193 -48t-243 -16h-318zM405 205h101q215 0 336 59q107 53 162 154t55 258q0 82 -18 148 t-52 117.5t-82.5 88.5t-109.5 61q-57 22 -127 32t-157 10h-108v-928z" />
<glyph unicode="E" horiz-adv-x="1163" d="M160 0v1338h867v-205h-622v-346h534v-205h-534v-377h658v-205h-903z" />
<glyph unicode="F" horiz-adv-x="1067" d="M160 0v1338h852v-205h-607v-346h519v-205h-519v-582h-245z" />
<glyph unicode="G" horiz-adv-x="1377" d="M100 638q0 104 23.5 198.5t69 175t110.5 145.5t148.5 111t183 70.5t213.5 24.5q101 0 192 -14.5t149 -35.5v-208q-78 25 -157.5 38t-160.5 13q-109 0 -204 -32.5t-164.5 -96t-109.5 -156.5t-40 -215q1 -237 124 -355.5t349 -118.5q42 0 87 4.5t79 11.5v313h-300v205h545 v-675q-30 -11 -76.5 -23t-104 -21.5t-118.5 -15.5t-121 -6q-180 0 -314.5 48.5t-224 136.5t-134 209.5t-44.5 268.5z" />
<glyph unicode="H" horiz-adv-x="1430" d="M160 0v1338h245v-551h620v551h245v-1338h-245v582h-620v-582h-245z" />
<glyph unicode="I" horiz-adv-x="565" d="M160 0v1338h245v-1338h-245z" />
<glyph unicode="J" horiz-adv-x="824" d="M50 11v209q44 -18 94 -28t99 -10q95 0 138 44t43 130v982h245v-989q0 -66 -9.5 -113.5t-28.5 -83.5q-25 -48 -63 -81.5t-86 -55t-103 -31t-114 -9.5q-61 0 -118.5 10t-96.5 26z" />
<glyph unicode="K" horiz-adv-x="1294" d="M160 0v1338h245v-609h4l505 609h304l-558 -663l604 -675h-314l-541 604h-4v-604h-245z" />
<glyph unicode="L" horiz-adv-x="1101" d="M160 0v1338h245v-1133h626v-205h-871z" />
<glyph unicode="M" horiz-adv-x="1692" d="M160 0v1338h342l231 -637q58 -159 109 -342h6q44 158 109 339l231 640h344v-1338h-245v678q0 149 12 346h-9q-17 -57 -40 -128t-48 -140l-277 -756h-158l-277 756q-25 69 -48 140t-40 128h-9q12 -185 12 -345v-679h-245z" />
<glyph unicode="N" horiz-adv-x="1490" d="M160 0v1338h257l440 -622q144 -205 234 -364h6q-12 261 -12 380v606h245v-1338h-257l-436 616q-115 160 -238 371h-6q12 -246 12 -381v-606h-245z" />
<glyph unicode="O" horiz-adv-x="1504" d="M100 669q0 153 43.5 280.5t127 219.5t205 143t276.5 51t276.5 -51t205 -143t127 -219.5t43.5 -280.5t-43.5 -280.5t-127 -219.5t-205 -143t-276.5 -51t-276.5 51t-205 143t-127 219.5t-43.5 280.5zM353 669q0 -122 30 -213.5t83 -152t126 -91t160 -30.5t160 30.5t126 91 t83 152t30 213.5t-30 213.5t-83 152.5t-126 91t-160 30t-160 -30t-126 -91t-83 -152.5t-30 -213.5z" />
<glyph unicode="P" horiz-adv-x="1230" d="M160 0v1338h386q97 0 169.5 -8.5t129.5 -25.5q137 -42 211 -134t74 -234q0 -97 -40 -174.5t-117 -131.5t-188 -83t-255 -29q-33 0 -65 1t-60 4v-523h-245zM405 729q21 -3 53.5 -4.5t67.5 -1.5q99 0 166 16t108 44.5t59 69t18 88.5q0 59 -27 102t-94 67q-35 12 -86.5 17.5 t-126.5 5.5h-138v-404z" />
<glyph unicode="Q" horiz-adv-x="1557" d="M100 669q0 153 43.5 280.5t127 219.5t205 143t276.5 51t276.5 -51t205 -142t127 -216.5t43.5 -274.5q0 -78 -15 -152t-43.5 -138t-71.5 -119.5t-98 -95.5l2 -3q25 7 57 13t66.5 10t69 6t67.5 2h19v-213q-53 5 -128 8t-159 3q-63 0 -113 -3t-100.5 -6.5t-105 -6.5 t-106.5 -3q-157 0 -277 50t-202 141t-124 217.5t-42 279.5zM353 669q0 -122 30 -213.5t83 -152t126 -91t160 -30.5t160 30.5t126 91t83 152t30 213.5t-30 213.5t-83 152.5t-126 91t-160 30t-160 -30t-126 -91t-83 -152.5t-30 -213.5z" />
<glyph unicode="R" horiz-adv-x="1286" d="M160 0v1338h407q101 0 188 -11.5t149 -34.5q118 -45 182 -133.5t64 -222.5q0 -140 -77.5 -237.5t-239.5 -144.5v-4l398 -550h-294l-364 518h-168v-518h-245zM405 723h121q84 0 142.5 7.5t98.5 22.5q74 28 102.5 76.5t28.5 111.5q0 54 -22.5 95.5t-76.5 65.5 q-35 16 -88 23.5t-131 7.5h-175v-410z" />
<glyph unicode="S" horiz-adv-x="1182" d="M118 57v207q99 -43 193 -62.5t194 -19.5q58 0 114 9.5t100.5 32.5t71.5 62.5t27 97.5q0 51 -25 82.5t-68 51.5t-96.5 32.5t-112.5 24.5q-78 17 -149 40.5t-125 65t-86 105.5t-32 160q0 106 37 184.5t100.5 130t149 77t192.5 25.5t215 -21t186 -54v-210 q-104 41 -199.5 59.5t-179.5 18.5q-121 0 -186.5 -44t-65.5 -132q0 -51 21.5 -84t58.5 -54.5t85 -34.5t102 -24q85 -18 162.5 -41.5t137.5 -65.5t95 -109.5t35 -172.5q0 -108 -40 -187t-113.5 -130.5t-178.5 -76.5t-230 -25q-109 0 -214.5 21.5t-175.5 60.5z" />
<glyph unicode="T" horiz-adv-x="1168" d="M30 1133v205h1108v-205h-431v-1133h-245v1133h-432z" />
<glyph unicode="U" horiz-adv-x="1434" d="M155 550v788h245v-766q0 -142 34 -222q38 -89 111 -128.5t172 -39.5t172 39.5t111 128.5q34 80 34 222v766h245v-788q0 -84 -9.5 -152t-31.5 -124q-27 -70 -72.5 -125.5t-111 -94t-150.5 -59t-190 -20.5t-189 20.5t-148 59t-109 94t-72 125.5q-22 56 -31.5 124t-9.5 152z " />
<glyph unicode="V" horiz-adv-x="1306" d="M20 1338h261l248 -665q53 -144 69.5 -190.5t53.5 -155.5h4q37 109 53.5 155.5t69.5 190.5l248 665h259l-523 -1338h-220z" />
<glyph unicode="W" horiz-adv-x="1864" d="M20 1338h261l161 -533q73 -251 118 -454h6q44 218 102 447l138 540h252l138 -540q58 -227 102 -447h6q55 240 118 454l161 533h261l-425 -1338h-244l-150 600q-51 203 -90 386h-6q-39 -187 -90 -386l-150 -600h-244z" />
<glyph unicode="X" horiz-adv-x="1302" d="M20 0l486 680l-466 658h282l191 -275q97 -141 136 -202h5q54 84 135 201l191 276h282l-466 -658l486 -680h-278l-209 299q-77 110 -142 208h-4q-68 -102 -142 -208l-209 -299h-278z" />
<glyph unicode="Y" horiz-adv-x="1299" d="M20 1338h272l356 -576h3l356 576h272l-507 -799v-539h-245v539z" />
<glyph unicode="Z" horiz-adv-x="1231" d="M90 0v132l717 1001h-699v205h1024v-133l-716 -1000h725v-205h-1051z" />
<glyph unicode="[" horiz-adv-x="646" d="M140 -300v1638h446v-173h-241v-1291h241v-174h-446z" />
<glyph unicode="\" horiz-adv-x="603" d="M-9 1338h208l380 -1587h-208z" />
<glyph unicode="]" horiz-adv-x="646" d="M60 -126h241v1291h-241v173h446v-1638h-446v174z" />
<glyph unicode="^" d="M54 511l384 852h204l384 -852h-217l-267 628h-4l-267 -628h-217z" />
<glyph unicode="_" horiz-adv-x="1000" d="M0 -142h1000v-133h-1000v133z" />
<glyph unicode="`" horiz-adv-x="800" d="M0 969zM228 1473h230l119 -349h-184z" />
<glyph unicode="a" horiz-adv-x="1054" d="M85 285q0 78 28.5 140t79.5 105t122 65.5t157 22.5q63 0 116 -8t93 -19v39q0 34 -11.5 65.5t-37 56t-66.5 39t-100 14.5q-72 0 -144 -16t-156 -48v185q73 32 155 49t172 18q106 0 185.5 -26t133 -71.5t80 -107.5t26.5 -135v-365q0 -96 2 -165t4 -123h-214l-10 103h-4 q-20 -21 -48 -43t-64 -41.5t-80 -31.5t-95 -12q-69 0 -129 21.5t-103 62t-67.5 98t-24.5 128.5zM326 294q0 -33 11.5 -57.5t31 -40.5t45.5 -24t55 -8q36 0 68 9.5t59 24t48.5 32.5t36.5 35v148q-34 8 -78 14.5t-89 6.5q-87 0 -137.5 -34.5t-50.5 -105.5z" />
<glyph unicode="b" horiz-adv-x="1141" d="M140 0q2 43 3.5 106.5t1.5 120.5v1221h237v-403q0 -43 -0.5 -79.5t-1.5 -56.5h2q23 16 50 31t59 27t69 19t78 7q81 0 157.5 -29.5t136 -90t94.5 -155t35 -217.5q0 -131 -38 -232t-99.5 -166t-138.5 -96.5t-155 -31.5q-55 0 -99 13.5t-77 33.5t-55.5 42t-35.5 39h-4 l-23 -103h-196zM382 263q14 -16 34.5 -33.5t46 -32t55.5 -24t64 -9.5q58 0 101.5 23.5t73 66.5t44.5 102.5t15 132.5q0 91 -22 156.5t-57.5 100t-74 46.5t-76.5 12q-52 0 -106 -21t-98 -56v-464z" />
<glyph unicode="c" horiz-adv-x="903" d="M80 469q0 140 45 240t116.5 162.5t161 92t176.5 29.5q65 0 125 -11.5t109 -31.5v-193q-44 19 -93.5 30.5t-106.5 11.5t-109 -17.5t-92 -55.5t-63.5 -100.5t-23.5 -150.5q0 -64 18 -120.5t52.5 -96.5t88 -64.5t126.5 -24.5q65 0 118 13t100 32v-193q-45 -19 -110 -32.5 t-137 -13.5q-105 0 -196 30t-159 91t-107 154.5t-39 218.5z" />
<glyph unicode="d" horiz-adv-x="1142" d="M80 465q0 127 35 226.5t95.5 167t138.5 101t162 33.5q39 0 74 -7t66 -19t58 -27t50 -31h2q-1 20 -1.5 56.5t-0.5 79.5v403h237v-1160q0 -96 2 -165t4 -123h-214l-10 103h-4q-21 -25 -50.5 -49t-65 -41.5t-78 -27.5t-92.5 -10q-79 0 -151.5 28t-130 86.5t-92 153 t-34.5 222.5zM325 475q0 -146 56.5 -228t165.5 -83q35 0 66.5 9t59.5 24t49.5 33t36.5 35v460q-42 34 -94 56.5t-110 22.5q-37 0 -77.5 -15t-74 -51t-56 -100t-22.5 -163z" />
<glyph unicode="e" horiz-adv-x="1050" d="M80 468q0 132 38 231t102 164t146.5 97.5t170.5 32.5q92 0 169.5 -28t134 -88t88 -154.5t31.5 -223.5q-1 -50 -3 -85h-635q5 -67 30 -114.5t65.5 -77t94.5 -43t117 -13.5q69 0 144 14t152 40v-189q-46 -20 -141 -38t-197 -18q-103 0 -195.5 26.5t-161.5 85.5t-109.5 153 t-40.5 228zM333 599h381q0 43 -11.5 81t-34 66.5t-56 45t-78.5 16.5t-80 -16.5t-60.5 -45t-40.5 -66.5t-20 -81z" />
<glyph unicode="f" horiz-adv-x="672" d="M10 774v195h164v115q0 102 28.5 175.5t79.5 121t120 70t150 22.5q50 0 99.5 -8.5t85.5 -20.5v-188q-39 10 -80.5 16.5t-78.5 6.5q-40 0 -71 -9.5t-52.5 -31.5t-32.5 -57t-11 -85v-127h269v-195h-269v-774h-237v774h-164z" />
<glyph unicode="g" horiz-adv-x="1126" d="M80 466q0 131 35.5 229.5t94.5 164.5t135.5 99.5t157.5 33.5q89 0 158 -37.5t113 -95.5h4l10 109h208v-987q0 -85 -14 -146t-41 -108q-32 -55 -81.5 -96t-113 -68t-139.5 -40.5t-161 -13.5q-48 0 -94 3.5t-86.5 10t-74 15t-56.5 17.5v193q66 -22 138.5 -33.5t152.5 -11.5 q159 0 246 61.5t87 186.5v23q0 20 0.5 49.5t2.5 49.5h-2q-22 -18 -50.5 -35.5t-62.5 -32t-75 -23t-84 -8.5q-77 0 -150.5 27.5t-130.5 87t-92 152.5t-35 224zM325 476q0 -73 14 -130.5t42 -98t69.5 -62t96.5 -21.5q36 0 68 9t59 23t48.5 31t36.5 34v433q-38 45 -94 75 t-119 31q-22 0 -46.5 -5.5t-49.5 -19.5t-47.5 -37.5t-39.5 -59.5t-27.5 -86t-10.5 -116z" />
<glyph unicode="h" horiz-adv-x="1146" d="M140 0v1448h237v-395q0 -75 -2.5 -123.5t-8.5 -87.5h4q21 28 51.5 56t67 48.5t83 33.5t102.5 13q48 0 93.5 -9.5t85 -29.5t72 -52t54.5 -76q19 -38 28 -86t9 -117v-623h-237v591q0 45 -4 73.5t-14 49.5q-21 44 -60 62t-89 18q-69 -1 -127.5 -33t-107.5 -94v-667h-237z " />
<glyph unicode="i" horiz-adv-x="509" d="M130 1191v257h249v-257h-249zM136 0v969h237v-969h-237z" />
<glyph unicode="j" horiz-adv-x="538" d="M-155 -273q32 -9 71.5 -16t75.5 -7q48 0 84 11t58 38q17 20 24 55t7 84v1077h237v-1096q0 -136 -43 -210q-45 -78 -132 -115.5t-206 -37.5q-53 0 -95.5 6t-80.5 17v194zM159 1191v257h249v-257h-249z" />
<glyph unicode="k" horiz-adv-x="1057" d="M140 0v1448h237v-872h5l369 393h293l-425 -455l428 -514h-287l-379 451h-4v-451h-237z" />
<glyph unicode="l" horiz-adv-x="517" d="M140 0v1448h237v-1448h-237z" />
<glyph unicode="m" horiz-adv-x="1745" d="M130 0v969h196l22 -135h4q21 30 53 59t72.5 51t89 35.5t102.5 13.5q96 0 172.5 -42.5t116.5 -132.5h4q28 39 62.5 71t76.5 55t90.5 36t103.5 13q104 -1 174.5 -43.5t108.5 -116.5q10 -19 17 -41.5t11.5 -50.5t6.5 -62t2 -78v-601h-237v590q0 31 -2 58t-7 47 q-11 44 -43 71t-90 28q-31 0 -64 -9t-65.5 -25.5t-62 -40t-53.5 -52.5v-667h-237v590q0 31 -2 58t-7 47q-11 44 -42.5 71t-90.5 28q-31 0 -64 -9t-65.5 -25.5t-62 -40t-53.5 -52.5v-667h-237z" />
<glyph unicode="n" horiz-adv-x="1136" d="M130 0v969h196l22 -135h4q21 30 53 59t73 51t90.5 35.5t105.5 13.5q53 0 102.5 -12t90.5 -37.5t72.5 -66t49.5 -96.5q10 -31 13.5 -67.5t3.5 -84.5v-629h-237v592q0 39 -3 67t-11 49q-18 46 -54.5 66t-88.5 20q-69 0 -132.5 -32.5t-112.5 -94.5v-667h-237z" />
<glyph unicode="o" horiz-adv-x="1134" d="M80 484q0 114 34 208t97.5 161t153.5 103.5t201 36.5q114 0 204.5 -36.5t153.5 -103.5t96.5 -161t33.5 -208t-34 -208t-97.5 -161t-153.5 -103.5t-201 -36.5q-114 0 -204.5 36.5t-153.5 103.5t-96.5 161t-33.5 208zM325 484q0 -77 18 -136t50.5 -98.5t77 -60t97.5 -20.5 t97 20.5t76 60t50 98.5t18 136t-18 136t-50 99t-77 60t-98 20q-52 0 -96.5 -20t-76.5 -60t-50 -99t-18 -136z" />
<glyph unicode="p" horiz-adv-x="1126" d="M130 -465v1434h208l10 -109h4q44 58 113 95.5t160 37.5q79 0 155.5 -29.5t135.5 -90.5t94.5 -154t35.5 -221q0 -135 -38 -233.5t-100 -163t-137.5 -95.5t-155.5 -31q-78 0 -141.5 28.5t-105.5 70.5h-4q1 -20 2 -56.5t1 -79.5v-403h-237zM367 261q15 -17 36 -34t47 -31 t57.5 -23t65.5 -9q55 0 98 23.5t71.5 66.5t43.5 102.5t15 132.5q0 78 -15.5 137t-44 98t-68.5 59t-89 20q-62 -1 -118 -30.5t-99 -79.5v-432z" />
<glyph unicode="q" horiz-adv-x="1126" d="M80 466q0 128 35.5 228t94.5 166t135.5 99.5t157.5 33.5q87 0 156.5 -36.5t114.5 -96.5h4l10 109h208v-1434h-237v403q0 43 1 79.5t2 56.5h-2q-22 -18 -50.5 -35.5t-62.5 -32t-74 -23t-85 -8.5q-77 0 -150.5 27.5t-131 87t-92 153.5t-34.5 223zM325 476q0 -73 14 -130.5 t42 -98t69.5 -62t96.5 -21.5q36 0 68 9t59 23t48.5 31t36.5 34v430q-37 45 -90 78.5t-116 34.5q-36 0 -75.5 -14.5t-74.5 -51.5t-56.5 -102.5t-21.5 -159.5z" />
<glyph unicode="r" horiz-adv-x="716" d="M130 0v969h196l22 -135h4q42 74 115.5 116.5t176.5 42.5q36 0 62 -4v-208h-20q-109 0 -191.5 -32.5t-127.5 -99.5v-649h-237z" />
<glyph unicode="s" horiz-adv-x="868" d="M85 26v191q78 -29 144 -39.5t123 -10.5q44 0 82 6.5t65.5 20.5t43.5 35.5t16 51.5q0 31 -17.5 51t-46.5 33.5t-66.5 23.5t-78.5 20q-52 14 -100 32.5t-84.5 48.5t-58 75.5t-21.5 111.5q0 81 29 140.5t78.5 98.5t115 58t138.5 19q89 0 167 -14.5t141 -37.5v-193 q-33 11 -69.5 20.5t-74 16.5t-74.5 11.5t-70 4.5q-42 0 -71 -8t-47 -21.5t-26 -31t-8 -36.5q0 -33 17.5 -54t48.5 -34q31 -14 65 -22l66 -16q50 -12 100 -29t90 -47.5t65.5 -79t25.5 -123.5q0 -82 -31 -143t-86.5 -101.5t-133 -60t-170.5 -19.5q-92 0 -165.5 14.5 t-121.5 36.5z" />
<glyph unicode="t" horiz-adv-x="777" d="M10 774v195h181v271h237v-271h280v-195h-280v-471q0 -56 17 -83q30 -46 119 -46q41 0 81.5 6.5t76.5 16.5v-196q-40 -12 -95.5 -19t-103.5 -7q-122 0 -199.5 39.5t-109.5 113.5q-23 53 -23 144v502h-181z" />
<glyph unicode="u" horiz-adv-x="1116" d="M120 377v592h237v-567q0 -49 7 -84.5t21 -61.5q24 -44 68 -65.5t105 -21.5q64 0 109.5 24t68.5 73q23 47 23 131v572h237v-592q0 -118 -41 -199q-23 -46 -59.5 -83.5t-86 -64t-112 -41t-139.5 -14.5q-146 0 -242 49.5t-145 133.5q-26 45 -38.5 99t-12.5 120z" />
<glyph unicode="v" horiz-adv-x="1006" d="M10 969h250l135 -370q58 -156 106 -312h4q42 135 104 306l135 376h252l-375 -969h-235z" />
<glyph unicode="w" horiz-adv-x="1534" d="M10 969h250l125 -406q43 -141 76 -273h4q28 128 67 273l111 406h250l109 -406q35 -129 67 -273h4q34 135 76 273l125 406h250l-339 -969h-233l-117 425q-40 143 -66 281h-4q-28 -145 -66 -281l-117 -425h-233z" />
<glyph unicode="x" horiz-adv-x="1068" d="M10 0l383 494l-360 475h279l226 -320l230 320h280l-370 -474l380 -495h-277l-249 337l-250 -337h-272z" />
<glyph unicode="y" horiz-adv-x="1052" d="M10 969h254l145 -351q82 -200 116 -296h4q25 75 106 278l150 369h257l-624 -1434h-234l222 519z" />
<glyph unicode="z" horiz-adv-x="958" d="M65 0v134l489 640h-473v195h777v-147l-480 -627h515v-195h-828z" />
<glyph unicode="{" horiz-adv-x="625" d="M80 438v162q47 0 80 5.5t53.5 19t30 36.5t9.5 57q0 47 -17.5 89t-39.5 83q-23 43 -42.5 89t-19.5 102q0 65 26.5 117.5t76 89t122 56t163.5 19.5h58v-173h-28q-103 0 -153 -31t-50 -100q0 -31 11.5 -60t27.5 -61q11 -21 22 -44t20 -48.5t14.5 -54.5t5.5 -62 q0 -51 -17.5 -88.5t-41.5 -63t-49 -39.5t-39 -17v-4q14 -3 39 -17t49 -39.5t41.5 -63t17.5 -88.5t-12.5 -92.5t-29.5 -76.5q-21 -44 -40 -83t-19 -78q0 -70 51.5 -100.5t151.5 -30.5h28v-173h-58q-91 0 -163.5 19.5t-122 56t-76 89t-26.5 117.5q0 32 6.5 60t17 54t23.5 50 l26 48q18 35 32 71.5t14 79.5q0 34 -9.5 57t-30 36.5t-53.5 19t-80 5.5z" />
<glyph unicode="|" horiz-adv-x="485" d="M140 -465v1913h205v-1913h-205z" />
<glyph unicode="}" horiz-adv-x="625" d="M45 -152h28q100 0 151.5 30.5t51.5 100.5q0 39 -19 78t-40 83q-17 35 -29.5 76.5t-12.5 92.5t17.5 88.5t41.5 63t49 39.5t39 17v4q-14 3 -39 17t-49 39.5t-41.5 63t-17.5 88.5q0 33 5.5 62t14.5 54.5t20 48.5t22 44q16 32 27.5 61t11.5 60q0 69 -50 100t-153 31h-28v173 h58q91 0 163.5 -19.5t122 -56t76 -89t26.5 -117.5q0 -56 -19.5 -102t-42.5 -89q-22 -41 -39.5 -83t-17.5 -89q0 -34 9.5 -57t30 -36.5t53.5 -19t80 -5.5v-162q-47 0 -80 -5.5t-53.5 -19t-30 -36.5t-9.5 -57q0 -43 14 -79.5t32 -71.5l26 -48q13 -24 23.5 -50t17 -54t6.5 -60 q0 -65 -26.5 -117.5t-76 -89t-122 -56t-163.5 -19.5h-58v173z" />
<glyph unicode="~" d="M85 445q48 88 115.5 131.5t160.5 43.5q51 0 98.5 -15.5t90.5 -33.5q44 -19 84 -34t78 -15q52 0 82 22.5t56 63.5l144 -105q-48 -88 -115.5 -131.5t-160.5 -43.5q-43 0 -84 11.5t-79 26.5q-51 22 -98.5 41t-89.5 19q-52 0 -82 -23t-56 -63z" />
<glyph unicode="&#xa1;" horiz-adv-x="599" d="M165 702v267h269v-267h-269zM167 -387l24 876h217l24 -876h-265z" />
<glyph unicode="&#xa2;" d="M146 602q0 105 29.5 191.5t86 151t139 104.5t188.5 53v162h159v-159q51 -4 97 -13t75 -22v-194q-38 13 -82 22.5t-90 13.5v-594q46 3 95 11.5t87 22.5v-192q-36 -14 -83.5 -23t-98.5 -12v-150h-159v153q-102 12 -184 47.5t-139.5 94.5t-88.5 142.5t-31 189.5zM382 606 q0 -121 53.5 -188t153.5 -89v571q-47 -12 -85.5 -36t-65.5 -60t-41.5 -85.5t-14.5 -112.5z" />
<glyph unicode="&#xa3;" d="M112 0v201h164l32 244h-138v201h164l11 85q24 180 123.5 270t269.5 90q33 0 65.5 -3.5t62 -10t55 -15.5t44.5 -19v-202q-46 20 -99 33.5t-105 13.5q-48 0 -80.5 -13.5t-53.5 -39t-32.5 -62.5t-17.5 -84l-6 -43h268v-201h-294l-31 -244h481v-201h-883z" />
<glyph unicode="&#xa4;" d="M85 350l134 134q-49 83 -49 185t49 186l-134 134l135 135l134 -135q41 24 87.5 37t97.5 13t97.5 -13t87.5 -37l135 135l135 -135l-135 -135q24 -41 37 -87.5t13 -97.5t-13 -97.5t-37 -87.5l135 -134l-135 -135l-134 134q-84 -49 -186 -49t-185 49l-134 -134zM333 669 q0 -45 15.5 -83.5t43 -67t65 -45t82.5 -16.5t82.5 16.5t65.5 45t43.5 67t15.5 83.5t-15.5 83.5t-43.5 67.5t-65.5 45.5t-82.5 16.5t-82.5 -16.5t-65 -45.5t-43 -67.5t-15.5 -83.5z" />
<glyph unicode="&#xa5;" d="M56 1066h239l242 -473h5l242 473h239l-291 -541h168v-161h-242v-117h242v-161h-242v-112h-237v112h-242v161h242v117h-242v161h168z" />
<glyph unicode="&#xa6;" horiz-adv-x="485" d="M140 231h205v-696h-205v696zM140 720v728h205v-728h-205z" />
<glyph unicode="&#xa7;" horiz-adv-x="920" d="M90 -160q60 -23 126 -38t119 -15q73 0 110.5 35t37.5 97q0 45 -20.5 93t-52.5 101t-72.5 112t-79.5 125q-30 52 -58 109t-49 120t-33.5 132.5t-12.5 146.5q0 113 30.5 206t87.5 159.5t139 103t185 36.5q79 0 153.5 -15t129.5 -38v-200q-60 23 -126 38t-119 15 q-73 0 -110.5 -35t-37.5 -97q0 -42 18 -87t47.5 -94t66.5 -103t74 -115q33 -54 64 -114t55 -127t38.5 -141.5t14.5 -157.5q0 -113 -30 -206t-87 -159.5t-139 -103t-186 -36.5q-79 0 -153.5 15t-129.5 38v200zM255 884q0 -63 12 -121t32 -112.5t46 -106t55 -101.5 q38 -66 77.5 -129t71.5 -125.5t52 -125.5t20 -128q0 -34 -6 -68h14q20 40 28 92.5t8 106.5q0 64 -12.5 123.5t-33 115.5t-47.5 108.5t-57 103.5q-38 65 -76.5 126.5t-69.5 123t-50.5 123t-19.5 125.5q0 34 6 68h-14q-20 -40 -28 -92.5t-8 -106.5z" />
<glyph unicode="&#xa8;" horiz-adv-x="800" d="M0 969zM86 1191v221h218v-221h-218zM496 1191v221h218v-221h-218z" />
<glyph unicode="&#xa9;" horiz-adv-x="1686" d="M150 669q0 150 52.5 277t145.5 219.5t220 145t275 52.5t275 -52.5t220 -145t145.5 -219.5t52.5 -277t-52.5 -277t-145.5 -219.5t-220 -145t-275 -52.5t-275 52.5t-220 145t-145.5 219.5t-52.5 277zM304 669q0 -113 39.5 -212.5t110.5 -174t170 -117.5t219 -43t219 43 t170 117.5t110.5 174t39.5 212.5t-39.5 212.5t-110.5 174t-170 117.5t-219 43t-219 -43t-170 -117.5t-110.5 -174t-39.5 -212.5zM481 660q0 91 29.5 165.5t81.5 127.5t124 82t156 29q48 0 94 -7.5t73 -20.5v-165q-28 10 -62 16t-68 6q-45 0 -86 -14t-72 -42.5t-49.5 -71.5 t-18.5 -102q0 -57 16.5 -98.5t47 -67.5t73 -38.5t93.5 -12.5q15 0 32.5 1.5t35 4.5t34.5 7t30 9l1 -166q-33 -12 -79.5 -19t-94.5 -7q-88 0 -160 25.5t-123.5 74t-79.5 120t-28 164.5z" />
<glyph unicode="&#xaa;" horiz-adv-x="815" d="M65 735q0 60 23.5 104.5t62.5 73.5t88.5 43t101.5 14q37 0 76.5 -6.5t73.5 -17.5v27q-1 123 -148 124q-50 0 -103.5 -11t-116.5 -35v169q77 22 143.5 30t103.5 8q93 0 158.5 -20t105.5 -58.5t57.5 -94.5t17.5 -127v-229q0 -72 2 -123.5t4 -92.5h-199l-11 77h-4 q-14 -16 -32.5 -32.5t-42 -30.5t-53.5 -23t-66 -9q-57 0 -102 18t-76 49.5t-47.5 76t-16.5 96.5zM280 735q0 -34 21 -57.5t65 -23.5q39 0 73 19.5t52 43.5v92q-21 6 -48.5 11t-49.5 5q-29 0 -50.5 -7.5t-35.5 -20.5t-20.5 -29t-6.5 -33z" />
<glyph unicode="&#xab;" horiz-adv-x="1052" d="M75 474l286 386h203l-238 -386l238 -386h-203zM517 474l247 386h203l-199 -386l199 -386h-203z" />
<glyph unicode="&#xac;" d="M114 436v191h852v-539h-200v348h-652z" />
<glyph unicode="&#xad;" horiz-adv-x="681" d="M120 393v215h441v-215h-441z" />
<glyph unicode="&#x2010;" horiz-adv-x="681" d="M120 393v215h441v-215h-441z" />
<glyph unicode="&#xae;" horiz-adv-x="1270" d="M140 869q0 107 38.5 197.5t105 156.5t157 103t194.5 37t194.5 -37t157.5 -103t105 -156.5t38 -197.5t-38 -197.5t-105 -156.5t-157.5 -103t-194.5 -37t-194.5 37t-157 103t-105 156.5t-38.5 197.5zM263 869q0 -80 26.5 -149.5t75.5 -121.5t117.5 -81.5t152.5 -29.5 t152.5 29.5t117.5 81.5t75.5 121.5t26.5 149.5t-26.5 149.5t-75.5 121.5t-117.5 81.5t-152.5 29.5t-152.5 -29.5t-117.5 -81.5t-75.5 -121.5t-26.5 -149.5zM438 620v502h190q43 0 83 -8t70.5 -26t49 -47.5t18.5 -72.5q0 -56 -33 -92t-91 -50v-5l137 -201h-151l-120 189h-17 v-189h-136zM574 903h37q48 0 71.5 15t23.5 50q0 26 -18 43t-60 17h-54v-125z" />
<glyph unicode="&#xaf;" horiz-adv-x="800" d="M0 969zM120 1171v167h560v-167h-560z" />
<glyph unicode="&#x2c9;" horiz-adv-x="800" d="M0 969zM120 1171v167h560v-167h-560z" />
<glyph unicode="&#xb0;" horiz-adv-x="836" d="M63 1012q0 76 27 140.5t75 111t113 73t140 26.5t140 -26.5t113 -73t75 -111t27 -140.5t-27 -140.5t-75 -111t-113 -73t-140 -26.5t-140 26.5t-113 73t-75 111t-27 140.5zM258 1012q0 -35 12 -65.5t33 -53t50.5 -35t64.5 -12.5q36 0 65.5 12.5t50.5 35t33 53t12 65.5 q0 36 -12 66.5t-33 53t-50.5 35t-65.5 12.5q-35 0 -64.5 -12.5t-50.5 -35t-33 -53t-12 -66.5z" />
<glyph unicode="&#xb1;" d="M114 0v191h852v-191h-852zM114 521v181h321v267h210v-267h321v-181h-321v-267h-210v267h-321z" />
<glyph unicode="&#xb2;" horiz-adv-x="687" d="M49 513v139q85 84 149.5 150t107.5 119.5t65 96.5t22 80q0 88 -116 88q-87 0 -214 -62v180q115 58 250 59q63 0 117.5 -15t94.5 -45t63 -74.5t23 -103.5q0 -57 -18.5 -106.5t-55.5 -100.5t-93.5 -107.5t-131.5 -126.5l1 -3q67 6 128 6h201v-174h-593z" />
<glyph unicode="&#xb3;" horiz-adv-x="656" d="M49 530v178q35 -16 85.5 -27t107.5 -11q76 0 113.5 26t37.5 71q0 26 -10 42.5t-28 27t-42 14.5t-52 4h-108v166h81q28 0 53.5 5t45 15.5t31 27t11.5 40.5q0 41 -35 60t-91 19q-49 0 -96.5 -9.5t-90.5 -26.5v176q111 35 216 35q152 0 233.5 -61t81.5 -164q0 -63 -28 -113 t-88 -78v-4q59 -17 96.5 -63t37.5 -121q0 -123 -90.5 -193.5t-267.5 -70.5q-112 0 -204 35z" />
<glyph unicode="&#xb4;" horiz-adv-x="800" d="M0 968zM239 1124l119 349h230l-165 -349h-184z" />
<glyph unicode="&#xb5;" horiz-adv-x="1180" d="M150 -465v1434h237v-523q0 -41 2.5 -72.5t9.5 -54.5q20 -69 65.5 -102.5t114.5 -33.5q72 0 127 35t82 106q11 30 16.5 71.5t5.5 99.5v474h237v-619q0 -38 3.5 -68t14 -50.5t29 -31.5t48.5 -11q25 0 48 5v-196q-24 -6 -55 -9t-52 -3q-88 0 -139 47t-65 129h-4 q-25 -51 -57.5 -86.5t-70 -58t-78 -32.5t-82.5 -10q-30 0 -61.5 7t-60 20.5t-52.5 34.5t-39 49h-5q2 -20 5 -53.5t6 -76.5t5 -94t2 -105v-222h-237z" />
<glyph unicode="&#xb6;" horiz-adv-x="1224" d="M95 824q0 114 38.5 208.5t108 162.5t165.5 105.5t228 37.5h429v-1725h-195v1538h-176v-1538h-195v708q-91 18 -165 62t-127 109t-82 149t-29 183z" />
<glyph unicode="&#xb7;" horiz-adv-x="599" d="M165 358v267h269v-267h-269z" />
<glyph unicode="&#x2219;" horiz-adv-x="599" d="M165 358v267h269v-267h-269z" />
<glyph unicode="&#xb8;" horiz-adv-x="800" d="M184 -325q24 -8 61.5 -12.5t68.5 -4.5q39 0 64.5 6t40.5 15.5t21 20.5t6 22q0 31 -43.5 46t-136.5 17l67 224h150l-35 -127q40 -6 74 -19.5t59 -35t39 -50t14 -63.5q0 -42 -19.5 -79t-58.5 -65t-97 -44t-135 -16q-42 0 -80.5 5.5t-59.5 13.5v146z" />
<glyph unicode="&#xb9;" horiz-adv-x="695" d="M57 1085v179l246 87h177v-664h176v-174h-586v174h198v461z" />
<glyph unicode="&#xba;" horiz-adv-x="876" d="M65 876q0 88 27.5 158.5t77 120t118 76.5t150.5 27t150.5 -27t118 -76.5t77 -120t27.5 -158.5t-26.5 -158.5t-75.5 -120t-117.5 -76t-152.5 -26.5t-153 26.5t-118 76t-76 120t-27 158.5zM283 876q0 -105 42 -154.5t114 -49.5t113 49.5t41 154.5t-42 155t-113 50t-113 -50 t-42 -155z" />
<glyph unicode="&#xbb;" horiz-adv-x="1052" d="M85 88l199 386l-199 386h203l247 -386l-247 -386h-203zM488 88l238 386l-238 386h203l286 -386l-286 -386h-203z" />
<glyph unicode="&#xbc;" horiz-adv-x="1731" d="M57 1085v179l246 87h177v-664h176v-174h-586v174h198v461zM1058 170v133l207 531h212l-132 -323q-51 -124 -81 -173l1 -3q48 5 113 5h31v125h202v-125h100v-170h-100v-161h-202v161h-351zM390 65l976 1308l130 -100l-976 -1308z" />
<glyph unicode="&#xbd;" horiz-adv-x="1852" d="M57 1085v179l246 87h177v-664h176v-174h-586v174h198v461zM390 65l976 1308l130 -100l-976 -1308zM1214 9v139q85 84 149.5 150t107.5 119.5t65 96.5t22 80q0 88 -116 88q-87 0 -214 -62v180q115 58 250 59q63 0 117.5 -15t94.5 -45t63 -74.5t23 -103.5 q0 -57 -18.5 -106.5t-55.5 -100.5t-93.5 -107.5t-131.5 -126.5l1 -3q67 6 128 6h201v-174h-593z" />
<glyph unicode="&#xbe;" horiz-adv-x="1653" d="M980 170v133l207 531h212l-132 -323q-51 -124 -81 -173l1 -3q48 5 113 5h31v125h202v-125h100v-170h-100v-161h-202v161h-351zM295 65l976 1308l130 -100l-976 -1308zM49 530v178q35 -16 85.5 -27t107.5 -11q76 0 113.5 26t37.5 71q0 26 -10 42.5t-28 27t-42 14.5t-52 4 h-108v166h81q28 0 53.5 5t45 15.5t31 27t11.5 40.5q0 41 -35 60t-91 19q-49 0 -96.5 -9.5t-90.5 -26.5v176q111 35 216 35q152 0 233.5 -61t81.5 -164q0 -63 -28 -113t-88 -78v-4q59 -17 96.5 -63t37.5 -121q0 -123 -90.5 -193.5t-267.5 -70.5q-112 0 -204 35z" />
<glyph unicode="&#xbf;" horiz-adv-x="920" d="M89 -89q0 66 16.5 114t43 84t60.5 64t68 53q32 23 62 46.5t53 52t37 64.5t14 84v16h223q1 -9 1.5 -22.5t0.5 -21.5q0 -61 -13.5 -108t-36 -83t-51.5 -63t-59 -50q-32 -24 -63.5 -45.5t-56 -45.5t-39.5 -53t-15 -68q0 -67 49 -107.5t153 -40.5q77 0 151.5 19t131.5 45 v-193q-30 -14 -67.5 -26t-78 -20.5t-83 -13.5t-82.5 -5q-99 0 -177 22t-131.5 63.5t-82 101.5t-28.5 137zM415 702v267h269v-267h-269z" />
<glyph unicode="&#xc0;" horiz-adv-x="1346" d="M30 0l531 1338h224l531 -1338h-259l-131 341h-504l-131 -341h-261zM501 546h346l-46 119q-55 142 -125 351h-4q-70 -210 -125 -351zM234 1338zM400 1656h240l138 -247h-188z" />
<glyph unicode="&#xc1;" horiz-adv-x="1346" d="M30 0l531 1338h224l531 -1338h-259l-131 341h-504l-131 -341h-261zM501 546h346l-46 119q-55 142 -125 351h-4q-70 -210 -125 -351zM391 1338zM569 1409l138 247h240l-190 -247h-188z" />
<glyph unicode="&#xc2;" horiz-adv-x="1346" d="M30 0l531 1338h224l531 -1338h-259l-131 341h-504l-131 -341h-261zM501 546h346l-46 119q-55 142 -125 351h-4q-70 -210 -125 -351zM275 1338zM356 1409l216 247h206l216 -247h-207l-110 126h-4l-111 -126h-206z" />
<glyph unicode="&#xc3;" horiz-adv-x="1346" d="M30 0l531 1338h224l531 -1338h-259l-131 341h-504l-131 -341h-261zM501 546h346l-46 119q-55 142 -125 351h-4q-70 -210 -125 -351zM272 1339zM345 1444q0 39 8.5 77t30 68.5t57 48.5t83.5 18q39 0 77 -13.5t71 -30.5q35 -19 65.5 -33.5t52.5 -14.5q28 0 39.5 19t11.5 65 h157q1 -15 1 -33q0 -38 -8.5 -76t-30 -69t-57 -49t-83.5 -18q-40 0 -77 13.5t-70 30.5q-35 18 -65.5 33t-53.5 15q-28 0 -39.5 -19t-11.5 -65h-157q-1 16 -1 33z" />
<glyph unicode="&#xc4;" horiz-adv-x="1346" d="M30 0l531 1338h224l531 -1338h-259l-131 341h-504l-131 -341h-261zM501 546h346l-46 119q-55 142 -125 351h-4q-70 -210 -125 -351zM272 1338zM354 1448v225h224v-225h-224zM766 1448v225h224v-225h-224z" />
<glyph unicode="&#xc5;" horiz-adv-x="1346" d="M30 0l531 1338h224l531 -1338h-259l-131 341h-504l-131 -341h-261zM501 546h346l-46 119q-55 142 -125 351h-4q-70 -210 -125 -351zM271 1338zM421 1563q0 47 19 83t52 61.5t79 38.5t100 13t100 -13t79 -38.5t52 -61.5t19 -83q0 -46 -19 -82.5t-52 -62t-79 -38.5 t-100 -13t-100 13t-79 38.5t-52 62t-19 82.5zM570 1563q0 -42 29 -63.5t72 -21.5t72 21.5t29 63.5t-29 63.5t-72 21.5t-72 -21.5t-29 -63.5z" />
<glyph unicode="&#xc6;" horiz-adv-x="1913" d="M25 0l668 1338h1040v-205h-642l49 -346h498v-205h-470l53 -377h622v-205h-831l-48 341h-510l-168 -341h-261zM555 546h380l-82 587h-8z" />
<glyph unicode="&#xc7;" horiz-adv-x="1197" d="M100 645q0 153 46.5 284.5t135.5 227.5t219 151t296 55q88 0 162.5 -11.5t135.5 -32.5v-208q-79 25 -150 35t-134 10q-100 0 -184.5 -33t-145 -96t-94.5 -155.5t-34 -211.5q0 -118 31 -207.5t89 -149.5t141.5 -90.5t189.5 -30.5q80 0 162 13.5t141 33.5v-211 q-70 -20 -151 -31.5t-168 -11.5q-16 0 -29 0.5t-14 0.5l-26 -94q41 -6 74.5 -19.5t58.5 -35t39 -50t14 -63.5q0 -42 -20 -79t-58.5 -65t-99 -44t-132.5 -16q-38 0 -78.5 5.5t-61.5 13.5v146q22 -7 60.5 -12t69.5 -5q37 0 63.5 6t41.5 15.5t21 21t6 21.5q0 31 -43.5 46 t-136.5 17l62 208q-124 25 -217.5 82t-156 141.5t-94 193t-31.5 235.5z" />
<glyph unicode="&#xc8;" horiz-adv-x="1163" d="M160 0v1338h867v-205h-622v-346h534v-205h-534v-377h658v-205h-903zM176 1338zM342 1656h240l138 -247h-188z" />
<glyph unicode="&#xc9;" horiz-adv-x="1163" d="M160 0v1338h867v-205h-622v-346h534v-205h-534v-377h658v-205h-903zM296 1338zM474 1409l138 247h240l-190 -247h-188z" />
<glyph unicode="&#xca;" horiz-adv-x="1163" d="M160 0v1338h867v-205h-622v-346h534v-205h-534v-377h658v-205h-903zM201 1338zM282 1409l216 247h206l216 -247h-207l-110 126h-4l-111 -126h-206z" />
<glyph unicode="&#xcb;" horiz-adv-x="1163" d="M160 0v1338h867v-205h-622v-346h534v-205h-534v-377h658v-205h-903zM201 1338zM283 1448v225h224v-225h-224zM695 1448v225h224v-225h-224z" />
<glyph unicode="&#xcc;" horiz-adv-x="565" d="M160 0v1338h245v-1338h-245zM-130 1338zM36 1656h240l138 -247h-188z" />
<glyph unicode="&#xcd;" horiz-adv-x="565" d="M160 0v1338h245v-1338h-245zM-4 1338zM174 1409l138 247h240l-190 -247h-188z" />
<glyph unicode="&#xce;" horiz-adv-x="565" d="M160 0v1338h245v-1338h-245zM-110 1338zM-29 1409l216 247h206l216 -247h-207l-110 126h-4l-111 -126h-206z" />
<glyph unicode="&#xcf;" horiz-adv-x="565" d="M160 0v1338h245v-1338h-245zM-110 1338zM-28 1448v225h224v-225h-224zM384 1448v225h224v-225h-224z" />
<glyph unicode="&#xd0;" horiz-adv-x="1483" d="M60 582v205h171v551h355q47 0 95.5 -3t94.5 -9t89 -14.5t79 -20.5q107 -34 189 -92t137.5 -137t84 -176.5t28.5 -211.5q0 -108 -24 -202.5t-73 -172.5t-123.5 -137.5t-176.5 -97.5q-85 -32 -192 -48t-244 -16h-319v582h-171zM476 205h101q215 0 336 59q107 53 162 154 t55 258q0 82 -18 148t-52 117.5t-82.5 88.5t-109.5 61q-57 22 -127 32t-157 10h-108v-346h347v-205h-347v-377z" />
<glyph unicode="&#xd1;" horiz-adv-x="1490" d="M160 0v1338h257l440 -622q144 -205 234 -364h6q-12 261 -12 380v606h245v-1338h-257l-436 616q-115 160 -238 371h-6q12 -246 12 -381v-606h-245zM350 1339zM423 1444q0 39 8.5 77t30 68.5t57 48.5t83.5 18q39 0 77 -13.5t71 -30.5q35 -19 65.5 -33.5t52.5 -14.5 q28 0 39.5 19t11.5 65h157q1 -15 1 -33q0 -38 -8.5 -76t-30 -69t-57 -49t-83.5 -18q-40 0 -77 13.5t-70 30.5q-35 18 -65.5 33t-53.5 15q-28 0 -39.5 -19t-11.5 -65h-157q-1 16 -1 33z" />
<glyph unicode="&#xd2;" horiz-adv-x="1504" d="M100 669q0 153 43.5 280.5t127 219.5t205 143t276.5 51t276.5 -51t205 -143t127 -219.5t43.5 -280.5t-43.5 -280.5t-127 -219.5t-205 -143t-276.5 -51t-276.5 51t-205 143t-127 219.5t-43.5 280.5zM353 669q0 -122 30 -213.5t83 -152t126 -91t160 -30.5t160 30.5t126 91 t83 152t30 213.5t-30 213.5t-83 152.5t-126 91t-160 30t-160 -30t-126 -91t-83 -152.5t-30 -213.5zM304 1338zM470 1656h240l138 -247h-188z" />
<glyph unicode="&#xd3;" horiz-adv-x="1504" d="M100 669q0 153 43.5 280.5t127 219.5t205 143t276.5 51t276.5 -51t205 -143t127 -219.5t43.5 -280.5t-43.5 -280.5t-127 -219.5t-205 -143t-276.5 -51t-276.5 51t-205 143t-127 219.5t-43.5 280.5zM353 669q0 -122 30 -213.5t83 -152t126 -91t160 -30.5t160 30.5t126 91 t83 152t30 213.5t-30 213.5t-83 152.5t-126 91t-160 30t-160 -30t-126 -91t-83 -152.5t-30 -213.5zM476 1338zM654 1409l138 247h240l-190 -247h-188z" />
<glyph unicode="&#xd4;" horiz-adv-x="1504" d="M100 669q0 153 43.5 280.5t127 219.5t205 143t276.5 51t276.5 -51t205 -143t127 -219.5t43.5 -280.5t-43.5 -280.5t-127 -219.5t-205 -143t-276.5 -51t-276.5 51t-205 143t-127 219.5t-43.5 280.5zM353 669q0 -122 30 -213.5t83 -152t126 -91t160 -30.5t160 30.5t126 91 t83 152t30 213.5t-30 213.5t-83 152.5t-126 91t-160 30t-160 -30t-126 -91t-83 -152.5t-30 -213.5zM352 1338zM433 1409l216 247h206l216 -247h-207l-110 126h-4l-111 -126h-206z" />
<glyph unicode="&#xd5;" horiz-adv-x="1504" d="M100 669q0 153 43.5 280.5t127 219.5t205 143t276.5 51t276.5 -51t205 -143t127 -219.5t43.5 -280.5t-43.5 -280.5t-127 -219.5t-205 -143t-276.5 -51t-276.5 51t-205 143t-127 219.5t-43.5 280.5zM353 669q0 -122 30 -213.5t83 -152t126 -91t160 -30.5t160 30.5t126 91 t83 152t30 213.5t-30 213.5t-83 152.5t-126 91t-160 30t-160 -30t-126 -91t-83 -152.5t-30 -213.5zM359 1339zM432 1444q0 39 8.5 77t30 68.5t57 48.5t83.5 18q39 0 77 -13.5t71 -30.5q35 -19 65.5 -33.5t52.5 -14.5q28 0 39.5 19t11.5 65h157q1 -15 1 -33q0 -38 -8.5 -76 t-30 -69t-57 -49t-83.5 -18q-40 0 -77 13.5t-70 30.5q-35 18 -65.5 33t-53.5 15q-28 0 -39.5 -19t-11.5 -65h-157q-1 16 -1 33z" />
<glyph unicode="&#xd6;" horiz-adv-x="1504" d="M100 669q0 153 43.5 280.5t127 219.5t205 143t276.5 51t276.5 -51t205 -143t127 -219.5t43.5 -280.5t-43.5 -280.5t-127 -219.5t-205 -143t-276.5 -51t-276.5 51t-205 143t-127 219.5t-43.5 280.5zM353 669q0 -122 30 -213.5t83 -152t126 -91t160 -30.5t160 30.5t126 91 t83 152t30 213.5t-30 213.5t-83 152.5t-126 91t-160 30t-160 -30t-126 -91t-83 -152.5t-30 -213.5zM355 1338zM437 1448v225h224v-225h-224zM849 1448v225h224v-225h-224z" />
<glyph unicode="&#xd7;" d="M99 227l305 305l-305 306l135 135l305 -306l306 306l135 -135l-306 -306l306 -305l-135 -135l-306 305l-305 -305z" />
<glyph unicode="&#xd8;" horiz-adv-x="1504" d="M100 108l118 128q-58 87 -88 196t-30 237q0 153 43.5 280.5t127 219.5t205 143t276.5 51q121 0 221 -31.5t178 -89.5l112 121l141 -133l-119 -128q59 -88 89 -196.5t30 -236.5q0 -153 -43.5 -280.5t-127 -219.5t-205 -143t-276.5 -51q-121 0 -221.5 31t-178.5 89 l-111 -120zM353 669q0 -72 10 -132.5t30 -111.5l603 650q-50 41 -111.5 61t-132.5 20q-87 0 -160 -30t-126 -91t-83 -152.5t-30 -213.5zM507 263q50 -41 111.5 -61t133.5 -20q87 0 160 30.5t126 91t83 152t30 213.5q0 72 -10.5 132.5t-30.5 111.5z" />
<glyph unicode="&#xd9;" horiz-adv-x="1434" d="M155 550v788h245v-766q0 -142 34 -222q38 -89 111 -128.5t172 -39.5t172 39.5t111 128.5q34 80 34 222v766h245v-788q0 -84 -9.5 -152t-31.5 -124q-27 -70 -72.5 -125.5t-111 -94t-150.5 -59t-190 -20.5t-189 20.5t-148 59t-109 94t-72 125.5q-22 56 -31.5 124t-9.5 152z M286 1338zM452 1656h240l138 -247h-188z" />
<glyph unicode="&#xda;" horiz-adv-x="1434" d="M155 550v788h245v-766q0 -142 34 -222q38 -89 111 -128.5t172 -39.5t172 39.5t111 128.5q34 80 34 222v766h245v-788q0 -84 -9.5 -152t-31.5 -124q-27 -70 -72.5 -125.5t-111 -94t-150.5 -59t-190 -20.5t-189 20.5t-148 59t-109 94t-72 125.5q-22 56 -31.5 124t-9.5 152z M447 1338zM625 1409l138 247h240l-190 -247h-188z" />
<glyph unicode="&#xdb;" horiz-adv-x="1434" d="M155 550v788h245v-766q0 -142 34 -222q38 -89 111 -128.5t172 -39.5t172 39.5t111 128.5q34 80 34 222v766h245v-788q0 -84 -9.5 -152t-31.5 -124q-27 -70 -72.5 -125.5t-111 -94t-150.5 -59t-190 -20.5t-189 20.5t-148 59t-109 94t-72 125.5q-22 56 -31.5 124t-9.5 152z M316 1338zM397 1409l216 247h206l216 -247h-207l-110 126h-4l-111 -126h-206z" />
<glyph unicode="&#xdc;" horiz-adv-x="1434" d="M155 550v788h245v-766q0 -142 34 -222q38 -89 111 -128.5t172 -39.5t172 39.5t111 128.5q34 80 34 222v766h245v-788q0 -84 -9.5 -152t-31.5 -124q-27 -70 -72.5 -125.5t-111 -94t-150.5 -59t-190 -20.5t-189 20.5t-148 59t-109 94t-72 125.5q-22 56 -31.5 124t-9.5 152z M318 1338zM400 1448v225h224v-225h-224zM812 1448v225h224v-225h-224z" />
<glyph unicode="&#xdd;" horiz-adv-x="1299" d="M20 1338h272l356 -576h3l356 576h272l-507 -799v-539h-245v539zM380 1338zM558 1409l138 247h240l-190 -247h-188z" />
<glyph unicode="&#xde;" horiz-adv-x="1230" d="M160 0v1338h245v-247h141q97 0 169.5 -8.5t129.5 -25.5q137 -42 211 -134.5t74 -233.5q0 -97 -40 -174.5t-117 -131.5t-188.5 -83t-253.5 -29q-38 0 -73 1.5t-53 3.5v-276h-245zM405 482q21 -3 53.5 -4.5t67.5 -1.5q96 0 164.5 16t109 44.5t59 69t18.5 88.5 q0 60 -27.5 103t-93.5 66q-35 12 -86.5 17.5t-126.5 5.5h-138v-404z" />
<glyph unicode="&#xdf;" horiz-adv-x="1273" d="M140 0v983q0 110 33 200t95.5 154.5t154 100t206.5 35.5q99 0 176 -25t127 -67t75 -96t25 -112q0 -54 -17 -97.5t-42.5 -75.5t-55 -59t-55 -53t-42.5 -54t-17 -63q0 -29 15.5 -51t41.5 -40t58 -34l70 -35q39 -20 76.5 -44.5t67 -58t48 -79.5t18.5 -109 q0 -79 -29.5 -142.5t-83 -108.5t-128.5 -69.5t-167 -24.5q-81 0 -146.5 13.5t-102.5 32.5v191q63 -24 117.5 -34.5t109.5 -10.5q89 0 142.5 37t53.5 109q0 34 -15 58.5t-40.5 43.5t-57.5 34t-67 31q-39 18 -77.5 39t-69 52t-49.5 74.5t-19 104.5q0 57 17 101t42.5 79 t55 63.5t55 56t42.5 56.5t17 62q0 51 -41.5 81.5t-124.5 31.5q-65 0 -113 -22t-79.5 -62.5t-47 -97t-15.5 -125.5v-974h-237z" />
<glyph unicode="&#xe0;" horiz-adv-x="1054" d="M85 285q0 78 28.5 140t79.5 105t122 65.5t157 22.5q63 0 116 -8t93 -19v39q0 34 -11.5 65.5t-37 56t-66.5 39t-100 14.5q-72 0 -144 -16t-156 -48v185q73 32 155 49t172 18q106 0 185.5 -26t133 -71.5t80 -107.5t26.5 -135v-365q0 -96 2 -165t4 -123h-214l-10 103h-4 q-20 -21 -48 -43t-64 -41.5t-80 -31.5t-95 -12q-69 0 -129 21.5t-103 62t-67.5 98t-24.5 128.5zM326 294q0 -33 11.5 -57.5t31 -40.5t45.5 -24t55 -8q36 0 68 9.5t59 24t48.5 32.5t36.5 35v148q-34 8 -78 14.5t-89 6.5q-87 0 -137.5 -34.5t-50.5 -105.5zM42 969zM270 1473 h230l119 -349h-184z" />
<glyph unicode="&#xe1;" horiz-adv-x="1054" d="M85 285q0 78 28.5 140t79.5 105t122 65.5t157 22.5q63 0 116 -8t93 -19v39q0 34 -11.5 65.5t-37 56t-66.5 39t-100 14.5q-72 0 -144 -16t-156 -48v185q73 32 155 49t172 18q106 0 185.5 -26t133 -71.5t80 -107.5t26.5 -135v-365q0 -96 2 -165t4 -123h-214l-10 103h-4 q-20 -21 -48 -43t-64 -41.5t-80 -31.5t-95 -12q-69 0 -129 21.5t-103 62t-67.5 98t-24.5 128.5zM326 294q0 -33 11.5 -57.5t31 -40.5t45.5 -24t55 -8q36 0 68 9.5t59 24t48.5 32.5t36.5 35v148q-34 8 -78 14.5t-89 6.5q-87 0 -137.5 -34.5t-50.5 -105.5zM166 968zM405 1124 l119 349h230l-165 -349h-184z" />
<glyph unicode="&#xe2;" horiz-adv-x="1054" d="M85 285q0 78 28.5 140t79.5 105t122 65.5t157 22.5q63 0 116 -8t93 -19v39q0 34 -11.5 65.5t-37 56t-66.5 39t-100 14.5q-72 0 -144 -16t-156 -48v185q73 32 155 49t172 18q106 0 185.5 -26t133 -71.5t80 -107.5t26.5 -135v-365q0 -96 2 -165t4 -123h-214l-10 103h-4 q-20 -21 -48 -43t-64 -41.5t-80 -31.5t-95 -12q-69 0 -129 21.5t-103 62t-67.5 98t-24.5 128.5zM326 294q0 -33 11.5 -57.5t31 -40.5t45.5 -24t55 -8q36 0 68 9.5t59 24t48.5 32.5t36.5 35v148q-34 8 -78 14.5t-89 6.5q-87 0 -137.5 -34.5t-50.5 -105.5zM125 969zM212 1124 l210 349h206l210 -349h-185l-126 212h-4l-126 -212h-185z" />
<glyph unicode="&#xe3;" horiz-adv-x="1054" d="M85 285q0 78 28.5 140t79.5 105t122 65.5t157 22.5q63 0 116 -8t93 -19v39q0 34 -11.5 65.5t-37 56t-66.5 39t-100 14.5q-72 0 -144 -16t-156 -48v185q73 32 155 49t172 18q106 0 185.5 -26t133 -71.5t80 -107.5t26.5 -135v-365q0 -96 2 -165t4 -123h-214l-10 103h-4 q-20 -21 -48 -43t-64 -41.5t-80 -31.5t-95 -12q-69 0 -129 21.5t-103 62t-67.5 98t-24.5 128.5zM326 294q0 -33 11.5 -57.5t31 -40.5t45.5 -24t55 -8q36 0 68 9.5t59 24t48.5 32.5t36.5 35v148q-34 8 -78 14.5t-89 6.5q-87 0 -137.5 -34.5t-50.5 -105.5zM156 969zM188 1187 q0 43 7.5 80.5t30 70t58 50.5t83.5 18q41 0 78 -13.5t70 -30.5q35 -18 65 -33t53 -15q28 0 39.5 19t11.5 65h157q1 -13 1 -37q0 -29 -8 -69.5t-30 -71.5t-57.5 -49t-83.5 -18q-39 0 -76.5 13.5t-72.5 31.5q-37 19 -67 33t-50 14q-28 0 -39.5 -19t-11.5 -65h-157q-1 20 -1 26 z" />
<glyph unicode="&#xe4;" horiz-adv-x="1054" d="M85 285q0 78 28.5 140t79.5 105t122 65.5t157 22.5q63 0 116 -8t93 -19v39q0 34 -11.5 65.5t-37 56t-66.5 39t-100 14.5q-72 0 -144 -16t-156 -48v185q73 32 155 49t172 18q106 0 185.5 -26t133 -71.5t80 -107.5t26.5 -135v-365q0 -96 2 -165t4 -123h-214l-10 103h-4 q-20 -21 -48 -43t-64 -41.5t-80 -31.5t-95 -12q-69 0 -129 21.5t-103 62t-67.5 98t-24.5 128.5zM326 294q0 -33 11.5 -57.5t31 -40.5t45.5 -24t55 -8q36 0 68 9.5t59 24t48.5 32.5t36.5 35v148q-34 8 -78 14.5t-89 6.5q-87 0 -137.5 -34.5t-50.5 -105.5zM119 969zM205 1191 v221h218v-221h-218zM615 1191v221h218v-221h-218z" />
<glyph unicode="&#xe5;" horiz-adv-x="1054" d="M85 285q0 78 28.5 140t79.5 105t122 65.5t157 22.5q63 0 116 -8t93 -19v39q0 34 -11.5 65.5t-37 56t-66.5 39t-100 14.5q-72 0 -144 -16t-156 -48v185q73 32 155 49t172 18q106 0 185.5 -26t133 -71.5t80 -107.5t26.5 -135v-365q0 -96 2 -165t4 -123h-214l-10 103h-4 q-20 -21 -48 -43t-64 -41.5t-80 -31.5t-95 -12q-69 0 -129 21.5t-103 62t-67.5 98t-24.5 128.5zM326 294q0 -33 11.5 -57.5t31 -40.5t45.5 -24t55 -8q36 0 68 9.5t59 24t48.5 32.5t36.5 35v148q-34 8 -78 14.5t-89 6.5q-87 0 -137.5 -34.5t-50.5 -105.5zM109 969zM259 1295 q0 48 19 86t52 64.5t79 40.5t100 14t100 -14t79 -40.5t52 -64.5t19 -86t-19 -86t-52 -64.5t-79 -40.5t-100 -14t-100 14t-79 40.5t-52 64.5t-19 86zM408 1295q0 -45 29 -68.5t72 -23.5t72 23.5t29 68.5t-29 68.5t-72 23.5t-72 -23.5t-29 -68.5z" />
<glyph unicode="&#xe6;" horiz-adv-x="1635" d="M85 285q0 78 28.5 140t79.5 105t122.5 65.5t156.5 22.5q66 0 117.5 -8.5t89.5 -18.5h2v35q0 36 -11.5 68t-37 57t-66.5 39.5t-100 14.5q-69 0 -142 -16t-158 -48v185q72 32 157.5 49.5t169.5 17.5q65 0 116.5 -12t91 -33.5t68 -51t47.5 -65.5h4q57 78 138 120t180 42 q86 0 160 -28t129 -88t86.5 -153.5t31.5 -224.5q0 -26 -1.5 -47t-1.5 -38h-635q5 -67 30 -114.5t65.5 -77t94.5 -43t117 -13.5q69 0 143.5 14t152.5 40v-189q-31 -12 -70 -22.5t-83 -18t-91 -11.5t-94 -4q-111 0 -205 32.5t-160 101.5h-4q-34 -27 -76 -51t-90 -42.5 t-100 -29.5t-106 -11q-78 0 -142 21.5t-109.5 62t-70 98t-24.5 128.5zM326 294q0 -33 11.5 -57.5t31 -40.5t45.5 -24t55 -8q39 0 76 9.5t68.5 23.5t56.5 30.5t41 29.5q-26 72 -32 156q-34 8 -78.5 14.5t-86.5 6.5q-86 0 -137 -33.5t-51 -106.5zM922 599h381q0 43 -11.5 81 t-34 66.5t-56 45t-78.5 16.5t-80 -16.5t-60.5 -45t-40.5 -66.5t-20 -81z" />
<glyph unicode="&#xe7;" horiz-adv-x="903" d="M80 469q0 142 45.5 241.5t117.5 162.5t160.5 91.5t175.5 28.5q65 0 125 -11.5t109 -31.5v-193q-44 19 -93.5 30.5t-106.5 11.5t-109 -17t-91.5 -55.5t-63.5 -100t-24 -151.5q0 -64 17.5 -120t53 -97t89 -65t125.5 -24q64 0 119 13.5t99 31.5v-193q-43 -18 -107.5 -32 t-139.5 -14h-19l-24 -93q40 -6 74 -19.5t59 -35t39 -50t14 -63.5q0 -42 -19.5 -78.5t-58.5 -65t-98.5 -44.5t-133.5 -16q-38 0 -78.5 5.5t-61.5 13.5v146q27 -8 62.5 -12.5t65.5 -4.5q37 0 64.5 6t42.5 15.5t21 20.5t6 22q0 31 -43.5 46t-136.5 17l63 210 q-74 20 -136.5 58.5t-107.5 97.5t-70 138.5t-25 179.5z" />
<glyph unicode="&#xe8;" horiz-adv-x="1050" d="M68 969zM296 1473h230l119 -349h-184zM80 468q0 132 38 231t102 164t146.5 97.5t170.5 32.5q92 0 169.5 -28t134 -88t88 -154.5t31.5 -223.5q-1 -50 -3 -85h-635q5 -67 30 -114.5t65.5 -77t94.5 -43t117 -13.5q69 0 144 14t152 40v-189q-46 -20 -141 -38t-197 -18 q-103 0 -195.5 26.5t-161.5 85.5t-109.5 153t-40.5 228zM333 599h381q0 43 -11.5 81t-34 66.5t-56 45t-78.5 16.5t-80 -16.5t-60.5 -45t-40.5 -66.5t-20 -81z" />
<glyph unicode="&#xe9;" horiz-adv-x="1050" d="M199 968zM438 1124l119 349h230l-165 -349h-184zM80 468q0 132 38 231t102 164t146.5 97.5t170.5 32.5q92 0 169.5 -28t134 -88t88 -154.5t31.5 -223.5q-1 -50 -3 -85h-635q5 -67 30 -114.5t65.5 -77t94.5 -43t117 -13.5q69 0 144 14t152 40v-189q-46 -20 -141 -38 t-197 -18q-103 0 -195.5 26.5t-161.5 85.5t-109.5 153t-40.5 228zM333 599h381q0 43 -11.5 81t-34 66.5t-56 45t-78.5 16.5t-80 -16.5t-60.5 -45t-40.5 -66.5t-20 -81z" />
<glyph unicode="&#xea;" horiz-adv-x="1050" d="M131 969zM218 1124l210 349h206l210 -349h-185l-126 212h-4l-126 -212h-185zM80 468q0 132 38 231t102 164t146.5 97.5t170.5 32.5q92 0 169.5 -28t134 -88t88 -154.5t31.5 -223.5q-1 -50 -3 -85h-635q5 -67 30 -114.5t65.5 -77t94.5 -43t117 -13.5q69 0 144 14t152 40 v-189q-46 -20 -141 -38t-197 -18q-103 0 -195.5 26.5t-161.5 85.5t-109.5 153t-40.5 228zM333 599h381q0 43 -11.5 81t-34 66.5t-56 45t-78.5 16.5t-80 -16.5t-60.5 -45t-40.5 -66.5t-20 -81z" />
<glyph unicode="&#xeb;" horiz-adv-x="1050" d="M135 969zM221 1191v221h218v-221h-218zM631 1191v221h218v-221h-218zM80 468q0 132 38 231t102 164t146.5 97.5t170.5 32.5q92 0 169.5 -28t134 -88t88 -154.5t31.5 -223.5q-1 -50 -3 -85h-635q5 -67 30 -114.5t65.5 -77t94.5 -43t117 -13.5q69 0 144 14t152 40v-189 q-46 -20 -141 -38t-197 -18q-103 0 -195.5 26.5t-161.5 85.5t-109.5 153t-40.5 228zM333 599h381q0 43 -11.5 81t-34 66.5t-56 45t-78.5 16.5t-80 -16.5t-60.5 -45t-40.5 -66.5t-20 -81z" />
<glyph unicode="&#xec;" horiz-adv-x="509" d="M136 0v969h237v-969h-237zM-196 969zM32 1473h230l119 -349h-184z" />
<glyph unicode="&#xed;" horiz-adv-x="509" d="M136 0v969h237v-969h-237zM-84 968zM155 1124l119 349h230l-165 -349h-184z" />
<glyph unicode="&#xee;" horiz-adv-x="509" d="M136 0v969h237v-969h-237zM-143 969zM-56 1124l210 349h206l210 -349h-185l-126 212h-4l-126 -212h-185z" />
<glyph unicode="&#xef;" horiz-adv-x="509" d="M136 0v969h237v-969h-237zM-136 969zM-50 1191v221h218v-221h-218zM360 1191v221h218v-221h-218z" />
<glyph unicode="&#xf0;" horiz-adv-x="1116" d="M80 457q0 98 30 185.5t84 152.5t128.5 103t160.5 38q78 0 135.5 -26.5t97.5 -66.5l4 2q-35 73 -81 141t-97 131l-275 -74l-51 162l202 55q-50 52 -101.5 99t-103.5 89h311q32 -27 65 -58t66 -66l233 64l51 -163l-162 -44q53 -69 99 -147t80.5 -162t54.5 -174t20 -183 q0 -130 -34 -231t-96.5 -169.5t-150.5 -104t-196 -35.5q-109 0 -197 34t-149.5 96.5t-94.5 151.5t-33 200zM325 457q0 -68 17 -122.5t48 -91t74 -55.5t94 -19t93 19t73 55.5t48 90.5t17 123q0 65 -19 118.5t-51 90.5t-75.5 56.5t-93.5 19.5q-48 0 -89 -18.5t-71 -54.5 t-47.5 -90t-17.5 -122z" />
<glyph unicode="&#xf1;" horiz-adv-x="1136" d="M130 0v969h196l22 -135h4q21 30 53 59t73 51t90.5 35.5t105.5 13.5q53 0 102.5 -12t90.5 -37.5t72.5 -66t49.5 -96.5q10 -31 13.5 -67.5t3.5 -84.5v-629h-237v592q0 39 -3 67t-11 49q-18 46 -54.5 66t-88.5 20q-69 0 -132.5 -32.5t-112.5 -94.5v-667h-237zM212 969z M244 1187q0 43 7.5 80.5t30 70t58 50.5t83.5 18q41 0 78 -13.5t70 -30.5q35 -18 65 -33t53 -15q28 0 39.5 19t11.5 65h157q1 -13 1 -37q0 -29 -8 -69.5t-30 -71.5t-57.5 -49t-83.5 -18q-39 0 -76.5 13.5t-72.5 31.5q-37 19 -67 33t-50 14q-28 0 -39.5 -19t-11.5 -65h-157 q-1 20 -1 26z" />
<glyph unicode="&#xf2;" horiz-adv-x="1134" d="M80 484q0 114 34 208t97.5 161t153.5 103.5t201 36.5q114 0 204.5 -36.5t153.5 -103.5t96.5 -161t33.5 -208t-34 -208t-97.5 -161t-153.5 -103.5t-201 -36.5q-114 0 -204.5 36.5t-153.5 103.5t-96.5 161t-33.5 208zM325 484q0 -77 18 -136t50.5 -98.5t77 -60t97.5 -20.5 t97 20.5t76 60t50 98.5t18 136t-18 136t-50 99t-77 60t-98 20q-52 0 -96.5 -20t-76.5 -60t-50 -99t-18 -136zM83 969zM311 1473h230l119 -349h-184z" />
<glyph unicode="&#xf3;" horiz-adv-x="1134" d="M80 484q0 114 34 208t97.5 161t153.5 103.5t201 36.5q114 0 204.5 -36.5t153.5 -103.5t96.5 -161t33.5 -208t-34 -208t-97.5 -161t-153.5 -103.5t-201 -36.5q-114 0 -204.5 36.5t-153.5 103.5t-96.5 161t-33.5 208zM325 484q0 -77 18 -136t50.5 -98.5t77 -60t97.5 -20.5 t97 20.5t76 60t50 98.5t18 136t-18 136t-50 99t-77 60t-98 20q-52 0 -96.5 -20t-76.5 -60t-50 -99t-18 -136zM237 968zM476 1124l119 349h230l-165 -349h-184z" />
<glyph unicode="&#xf4;" horiz-adv-x="1134" d="M80 484q0 114 34 208t97.5 161t153.5 103.5t201 36.5q114 0 204.5 -36.5t153.5 -103.5t96.5 -161t33.5 -208t-34 -208t-97.5 -161t-153.5 -103.5t-201 -36.5q-114 0 -204.5 36.5t-153.5 103.5t-96.5 161t-33.5 208zM325 484q0 -77 18 -136t50.5 -98.5t77 -60t97.5 -20.5 t97 20.5t76 60t50 98.5t18 136t-18 136t-50 99t-77 60t-98 20q-52 0 -96.5 -20t-76.5 -60t-50 -99t-18 -136zM158 969zM245 1124l210 349h206l210 -349h-185l-126 212h-4l-126 -212h-185z" />
<glyph unicode="&#xf5;" horiz-adv-x="1134" d="M80 484q0 114 34 208t97.5 161t153.5 103.5t201 36.5q114 0 204.5 -36.5t153.5 -103.5t96.5 -161t33.5 -208t-34 -208t-97.5 -161t-153.5 -103.5t-201 -36.5q-114 0 -204.5 36.5t-153.5 103.5t-96.5 161t-33.5 208zM325 484q0 -77 18 -136t50.5 -98.5t77 -60t97.5 -20.5 t97 20.5t76 60t50 98.5t18 136t-18 136t-50 99t-77 60t-98 20q-52 0 -96.5 -20t-76.5 -60t-50 -99t-18 -136zM203 969zM235 1187q0 43 7.5 80.5t30 70t58 50.5t83.5 18q41 0 78 -13.5t70 -30.5q35 -18 65 -33t53 -15q28 0 39.5 19t11.5 65h157q1 -13 1 -37q0 -29 -8 -69.5 t-30 -71.5t-57.5 -49t-83.5 -18q-39 0 -76.5 13.5t-72.5 31.5q-37 19 -67 33t-50 14q-28 0 -39.5 -19t-11.5 -65h-157q-1 20 -1 26z" />
<glyph unicode="&#xf6;" horiz-adv-x="1134" d="M80 484q0 114 34 208t97.5 161t153.5 103.5t201 36.5q114 0 204.5 -36.5t153.5 -103.5t96.5 -161t33.5 -208t-34 -208t-97.5 -161t-153.5 -103.5t-201 -36.5q-114 0 -204.5 36.5t-153.5 103.5t-96.5 161t-33.5 208zM325 484q0 -77 18 -136t50.5 -98.5t77 -60t97.5 -20.5 t97 20.5t76 60t50 98.5t18 136t-18 136t-50 99t-77 60t-98 20q-52 0 -96.5 -20t-76.5 -60t-50 -99t-18 -136zM164 969zM250 1191v221h218v-221h-218zM660 1191v221h218v-221h-218z" />
<glyph unicode="&#xf7;" d="M114 436v191h852v-191h-852zM436 74v207h208v-207h-208zM436 782v207h208v-207h-208z" />
<glyph unicode="&#xf8;" horiz-adv-x="1134" d="M80 86l83 88q-41 63 -62 140.5t-21 169.5q0 114 34 208t97.5 161t153.5 103.5t201 36.5q87 0 159.5 -21.5t131.5 -61.5l78 83l119 -111l-83 -89q41 -63 62 -140.5t21 -168.5q0 -114 -34 -208t-97.5 -161t-153.5 -103.5t-201 -36.5q-88 0 -160.5 21t-130.5 61l-78 -82z M325 484q0 -35 3 -65.5t11 -57.5l368 391q-59 47 -141 47q-52 0 -96.5 -20t-76.5 -60t-50 -99t-18 -136zM426 216q59 -47 142 -47q53 0 97 20.5t76 60t50 98.5t18 136q0 67 -14 123z" />
<glyph unicode="&#xf9;" horiz-adv-x="1116" d="M120 377v592h237v-567q0 -49 7 -84.5t21 -61.5q24 -44 68 -65.5t105 -21.5q64 0 109.5 24t68.5 73q23 47 23 131v572h237v-592q0 -118 -41 -199q-23 -46 -59.5 -83.5t-86 -64t-112 -41t-139.5 -14.5q-146 0 -242 49.5t-145 133.5q-26 45 -38.5 99t-12.5 120zM77 969z M305 1473h230l119 -349h-184z" />
<glyph unicode="&#xfa;" horiz-adv-x="1116" d="M120 377v592h237v-567q0 -49 7 -84.5t21 -61.5q24 -44 68 -65.5t105 -21.5q64 0 109.5 24t68.5 73q23 47 23 131v572h237v-592q0 -118 -41 -199q-23 -46 -59.5 -83.5t-86 -64t-112 -41t-139.5 -14.5q-146 0 -242 49.5t-145 133.5q-26 45 -38.5 99t-12.5 120zM226 968z M465 1124l119 349h230l-165 -349h-184z" />
<glyph unicode="&#xfb;" horiz-adv-x="1116" d="M120 377v592h237v-567q0 -49 7 -84.5t21 -61.5q24 -44 68 -65.5t105 -21.5q64 0 109.5 24t68.5 73q23 47 23 131v572h237v-592q0 -118 -41 -199q-23 -46 -59.5 -83.5t-86 -64t-112 -41t-139.5 -14.5q-146 0 -242 49.5t-145 133.5q-26 45 -38.5 99t-12.5 120zM161 969z M248 1124l210 349h206l210 -349h-185l-126 212h-4l-126 -212h-185z" />
<glyph unicode="&#xfc;" horiz-adv-x="1116" d="M120 377v592h237v-567q0 -49 7 -84.5t21 -61.5q24 -44 68 -65.5t105 -21.5q64 0 109.5 24t68.5 73q23 47 23 131v572h237v-592q0 -118 -41 -199q-23 -46 -59.5 -83.5t-86 -64t-112 -41t-139.5 -14.5q-146 0 -242 49.5t-145 133.5q-26 45 -38.5 99t-12.5 120zM156 969z M242 1191v221h218v-221h-218zM652 1191v221h218v-221h-218z" />
<glyph unicode="&#xfd;" horiz-adv-x="1052" d="M10 969h254l145 -351q82 -200 116 -296h4q25 75 106 278l150 369h257l-624 -1434h-234l222 519zM197 968zM436 1124l119 349h230l-165 -349h-184z" />
<glyph unicode="&#xfe;" horiz-adv-x="1126" d="M130 -465v1913h237v-418q0 -43 -1 -79.5t-2 -56.5h4q42 42 105 70.5t147 28.5q75 0 151 -29.5t137 -91t99.5 -157t38.5 -223.5q0 -133 -38.5 -232t-99.5 -162t-137 -93t-151 -30q-83 0 -146.5 28.5t-105.5 70.5h-4q1 -20 2 -56.5t1 -79.5v-403h-237zM367 261 q15 -17 36 -34t47 -31t57.5 -23t65.5 -9q55 0 98 22.5t71.5 64.5t43.5 101t15 132t-15 132t-43.5 101t-71 64.5t-98.5 22.5q-34 0 -65.5 -9t-57.5 -23t-47 -31t-36 -34v-446z" />
<glyph unicode="&#xff;" horiz-adv-x="1052" d="M10 969h254l145 -351q82 -200 116 -296h4q25 75 106 278l150 369h257l-624 -1434h-234l222 519zM127 969zM213 1191v221h218v-221h-218zM623 1191v221h218v-221h-218z" />
<glyph unicode="&#x100;" horiz-adv-x="1346" d="M30 0l531 1338h224l531 -1338h-259l-131 341h-504l-131 -341h-261zM501 546h346l-46 119q-55 142 -125 351h-4q-70 -210 -125 -351zM271 1338zM391 1448v169h560v-169h-560z" />
<glyph unicode="&#x101;" horiz-adv-x="1054" d="M85 285q0 78 28.5 140t79.5 105t122 65.5t157 22.5q63 0 116 -8t93 -19v39q0 34 -11.5 65.5t-37 56t-66.5 39t-100 14.5q-72 0 -144 -16t-156 -48v185q73 32 155 49t172 18q106 0 185.5 -26t133 -71.5t80 -107.5t26.5 -135v-365q0 -96 2 -165t4 -123h-214l-10 103h-4 q-20 -21 -48 -43t-64 -41.5t-80 -31.5t-95 -12q-69 0 -129 21.5t-103 62t-67.5 98t-24.5 128.5zM326 294q0 -33 11.5 -57.5t31 -40.5t45.5 -24t55 -8q36 0 68 9.5t59 24t48.5 32.5t36.5 35v148q-34 8 -78 14.5t-89 6.5q-87 0 -137.5 -34.5t-50.5 -105.5zM116 969zM236 1171 v167h560v-167h-560z" />
<glyph unicode="&#x102;" horiz-adv-x="1346" d="M30 0l531 1338h224l531 -1338h-259l-131 341h-504l-131 -341h-261zM501 546h346l-46 119q-55 142 -125 351h-4q-70 -210 -125 -351zM272 1338zM336 1680h206q11 -60 46 -86t84 -26t84 26t46 86h206q-7 -65 -32 -116.5t-68 -87.5t-102 -55t-134 -19t-134 19t-102 55 t-68 87.5t-32 116.5z" />
<glyph unicode="&#x103;" horiz-adv-x="1054" d="M85 285q0 78 28.5 140t79.5 105t122 65.5t157 22.5q63 0 116 -8t93 -19v39q0 34 -11.5 65.5t-37 56t-66.5 39t-100 14.5q-72 0 -144 -16t-156 -48v185q73 32 155 49t172 18q106 0 185.5 -26t133 -71.5t80 -107.5t26.5 -135v-365q0 -96 2 -165t4 -123h-214l-10 103h-4 q-20 -21 -48 -43t-64 -41.5t-80 -31.5t-95 -12q-69 0 -129 21.5t-103 62t-67.5 98t-24.5 128.5zM326 294q0 -33 11.5 -57.5t31 -40.5t45.5 -24t55 -8q36 0 68 9.5t59 24t48.5 32.5t36.5 35v148q-34 8 -78 14.5t-89 6.5q-87 0 -137.5 -34.5t-50.5 -105.5zM122 969zM181 1427 h203q8 -88 43.5 -129.5t94.5 -41.5t94.5 41.5t43.5 129.5h203q-3 -73 -25.5 -135t-65 -107t-105 -70t-145.5 -25q-82 0 -145 25t-105.5 70t-65 107t-25.5 135z" />
<glyph unicode="&#x104;" horiz-adv-x="1346" d="M30 0l531 1338h224l531 -1338q-59 -25 -106 -56t-80.5 -65t-51.5 -68.5t-18 -65.5q0 -36 22.5 -53t64.5 -17q57 0 120 23v-162q-29 -10 -73 -18t-95 -8t-94.5 11.5t-75.5 35t-50.5 59t-18.5 83.5q1 84 49 155.5t148 145.5l-131 341h-504l-131 -341h-261zM501 546h346 l-46 119q-55 142 -125 351h-4q-70 -210 -125 -351z" />
<glyph unicode="&#x105;" horiz-adv-x="1054" d="M85 285q0 78 28.5 140t79.5 105t122 65.5t157 22.5q66 0 118.5 -8.5t90.5 -18.5v39q0 35 -11.5 66t-37 55.5t-66.5 39t-100 14.5q-72 0 -144 -16t-156 -48v185q30 14 68 26.5t80.5 21.5t88 14t90.5 5q106 0 186 -26t133 -71.5t79.5 -107.5t26.5 -135v-365q0 -96 2 -165 t4 -123q-46 -33 -85.5 -65t-68.5 -64t-45.5 -63.5t-16.5 -62.5q1 -38 23.5 -54t58.5 -16q62 0 125 23v-162q-29 -10 -72 -18t-96 -8q-51 0 -94.5 11.5t-75.5 35t-50.5 59t-18.5 83.5q0 84 50 154.5t152 146.5l-10 103h-4q-20 -20 -48 -42.5t-63.5 -41.5t-79 -31.5 t-95.5 -12.5q-70 0 -130 21.5t-103 62t-67.5 98t-24.5 128.5zM326 294q0 -33 11.5 -57.5t31 -40.5t45.5 -24t55 -8q36 0 68 9.5t59 24t48.5 32.5t36.5 35v148q-34 8 -78 14.5t-89 6.5q-88 0 -138 -34.5t-50 -105.5z" />
<glyph unicode="&#x106;" horiz-adv-x="1197" d="M100 645q0 153 46.5 284t134 227t219 151t297.5 56q85 0 161 -11.5t137 -32.5v-208q-80 25 -149 35t-135 10q-100 0 -184.5 -33t-145 -96t-94.5 -155.5t-34 -211.5q0 -118 31 -207.5t89 -149.5t141.5 -90.5t189.5 -30.5q76 0 155 12t148 35v-211q-70 -20 -151 -31.5 t-168 -11.5q-170 0 -299 48.5t-215.5 137t-130 212t-43.5 272.5zM467 1338zM645 1409l138 247h240l-190 -247h-188z" />
<glyph unicode="&#x107;" horiz-adv-x="903" d="M80 469q0 140 45 240t116.5 162.5t161 92t176.5 29.5q65 0 125 -11.5t109 -31.5v-193q-44 19 -93.5 30.5t-106.5 11.5t-109 -17.5t-92 -55.5t-63.5 -100.5t-23.5 -150.5q0 -64 18 -120.5t52.5 -96.5t88 -64.5t126.5 -24.5q65 0 118 13t100 32v-193q-45 -19 -110 -32.5 t-137 -13.5q-105 0 -196 30t-159 91t-107 154.5t-39 218.5zM203 968zM442 1124l119 349h230l-165 -349h-184z" />
<glyph unicode="&#x108;" horiz-adv-x="1197" d="M100 645q0 153 46.5 284t134 227t219 151t297.5 56q85 0 161 -11.5t137 -32.5v-208q-80 25 -149 35t-135 10q-100 0 -184.5 -33t-145 -96t-94.5 -155.5t-34 -211.5q0 -118 31 -207.5t89 -149.5t141.5 -90.5t189.5 -30.5q76 0 155 12t148 35v-211q-70 -20 -151 -31.5 t-168 -11.5q-170 0 -299 48.5t-215.5 137t-130 212t-43.5 272.5zM350 1338zM431 1409l216 247h206l216 -247h-207l-110 126h-4l-111 -126h-206z" />
<glyph unicode="&#x109;" horiz-adv-x="903" d="M80 469q0 140 45 240t116.5 162.5t161 92t176.5 29.5q65 0 125 -11.5t109 -31.5v-193q-44 19 -93.5 30.5t-106.5 11.5t-109 -17.5t-92 -55.5t-63.5 -100.5t-23.5 -150.5q0 -64 18 -120.5t52.5 -96.5t88 -64.5t126.5 -24.5q65 0 118 13t100 32v-193q-45 -19 -110 -32.5 t-137 -13.5q-105 0 -196 30t-159 91t-107 154.5t-39 218.5zM131 969zM218 1124l210 349h206l210 -349h-185l-126 212h-4l-126 -212h-185z" />
<glyph unicode="&#x10a;" horiz-adv-x="1197" d="M100 645q0 153 46.5 284t134 227t219 151t297.5 56q85 0 161 -11.5t137 -32.5v-208q-80 25 -149 35t-135 10q-100 0 -184.5 -33t-145 -96t-94.5 -155.5t-34 -211.5q0 -118 31 -207.5t89 -149.5t141.5 -90.5t189.5 -30.5q76 0 155 12t148 35v-211q-70 -20 -151 -31.5 t-168 -11.5q-170 0 -299 48.5t-215.5 137t-130 212t-43.5 272.5zM362 1338zM636 1448v257h249v-257h-249z" />
<glyph unicode="&#x10b;" horiz-adv-x="903" d="M80 469q0 140 45 240t116.5 162.5t161 92t176.5 29.5q65 0 125 -11.5t109 -31.5v-193q-44 19 -93.5 30.5t-106.5 11.5t-109 -17.5t-92 -55.5t-63.5 -100.5t-23.5 -150.5q0 -64 18 -120.5t52.5 -96.5t88 -64.5t126.5 -24.5q65 0 118 13t100 32v-193q-45 -19 -110 -32.5 t-137 -13.5q-105 0 -196 30t-159 91t-107 154.5t-39 218.5zM132 969zM406 1191v257h249v-257h-249z" />
<glyph unicode="&#x10c;" horiz-adv-x="1197" d="M100 645q0 153 46.5 284t134 227t219 151t297.5 56q85 0 161 -11.5t137 -32.5v-208q-80 25 -149 35t-135 10q-100 0 -184.5 -33t-145 -96t-94.5 -155.5t-34 -211.5q0 -118 31 -207.5t89 -149.5t141.5 -90.5t189.5 -30.5q76 0 155 12t148 35v-211q-70 -20 -151 -31.5 t-168 -11.5q-170 0 -299 48.5t-215.5 137t-130 212t-43.5 272.5zM354 1338zM435 1657h207l110 -126h4l111 126h206l-216 -247h-206z" />
<glyph unicode="&#x10d;" horiz-adv-x="903" d="M80 469q0 140 45 240t116.5 162.5t161 92t176.5 29.5q65 0 125 -11.5t109 -31.5v-193q-44 19 -93.5 30.5t-106.5 11.5t-109 -17.5t-92 -55.5t-63.5 -100.5t-23.5 -150.5q0 -64 18 -120.5t52.5 -96.5t88 -64.5t126.5 -24.5q65 0 118 13t100 32v-193q-45 -19 -110 -32.5 t-137 -13.5q-105 0 -196 30t-159 91t-107 154.5t-39 218.5zM135 969zM222 1473h185l126 -212h4l126 212h185l-210 -349h-206z" />
<glyph unicode="&#x10e;" horiz-adv-x="1411" d="M160 0v1338h354q47 0 95.5 -3t94.5 -9t89 -14.5t79 -20.5q107 -34 189 -92t137.5 -137t84 -176.5t28.5 -211.5q0 -108 -24 -202.5t-73 -172.5t-123.5 -137.5t-176.5 -97.5q-85 -32 -193 -48t-243 -16h-318zM405 205h101q215 0 336 59q107 53 162 154t55 258q0 82 -18 148 t-52 117.5t-82.5 88.5t-109.5 61q-57 22 -127 32t-157 10h-108v-928zM282 1338zM363 1657h207l110 -126h4l111 126h206l-216 -247h-206z" />
<glyph unicode="&#x10f;" horiz-adv-x="1142" d="M80 465q0 127 35 226.5t95.5 167t138.5 101t162 33.5q39 0 74 -7t66 -19t58 -27t50 -31h2q-1 20 -1.5 56.5t-0.5 79.5v403h237v-1160q0 -96 2 -165t4 -123h-214l-10 103h-4q-21 -25 -50.5 -49t-65 -41.5t-78 -27.5t-92.5 -10q-79 0 -151.5 28t-130 86.5t-92 153 t-34.5 222.5zM325 475q0 -146 56.5 -228t165.5 -83q35 0 66.5 9t59.5 24t49.5 33t36.5 35v460q-42 34 -94 56.5t-110 22.5q-37 0 -77.5 -15t-74 -51t-56 -100t-22.5 -163zM1091 1278v169q18 1 34 1q106 0 167.5 -46.5t61.5 -133.5q0 -51 -20 -103t-55 -99h-179 q29 40 49.5 80t20.5 71q0 32 -22 46.5t-57 14.5z" />
<glyph unicode="&#x110;" horiz-adv-x="1483" d="M60 582v205h171v551h355q47 0 95.5 -3t94.5 -9t89 -14.5t79 -20.5q107 -34 189 -92t137.5 -137t84 -176.5t28.5 -211.5q0 -108 -24 -202.5t-73 -172.5t-123.5 -137.5t-176.5 -97.5q-85 -32 -192 -48t-244 -16h-319v582h-171zM476 205h101q215 0 336 59q107 53 162 154 t55 258q0 82 -18 148t-52 117.5t-82.5 88.5t-109.5 61q-57 22 -127 32t-157 10h-108v-346h347v-205h-347v-377z" />
<glyph unicode="&#x111;" horiz-adv-x="1142" d="M80 465q0 131 35.5 229.5t95.5 164.5t138 100t162 34q39 0 74 -7t66 -19t58 -27t50 -31h2q-1 20 -1.5 56.5t-0.5 79.5v61h-253v185h253v157h237v-157h140v-185h-140v-818q0 -96 2 -165t4 -123h-214l-10 103h-4q-22 -26 -50.5 -49t-63.5 -40.5t-77.5 -28t-94.5 -10.5 q-77 0 -150.5 27.5t-130.5 86.5t-92 153t-35 223zM325 475q0 -146 56.5 -228.5t165.5 -82.5q36 0 68 9.5t59 24t48 32t37 35.5v460q-42 34 -94 56.5t-108 22.5q-39 0 -79.5 -15.5t-74.5 -51.5t-56 -100.5t-22 -161.5z" />
<glyph unicode="&#x112;" horiz-adv-x="1163" d="M160 0v1338h867v-205h-622v-346h534v-205h-534v-377h658v-205h-903zM183 1338zM303 1448v169h560v-169h-560z" />
<glyph unicode="&#x113;" horiz-adv-x="1050" d="M135 969zM255 1171v167h560v-167h-560zM80 468q0 132 38 231t102 164t146.5 97.5t170.5 32.5q92 0 169.5 -28t134 -88t88 -154.5t31.5 -223.5q-1 -50 -3 -85h-635q5 -67 30 -114.5t65.5 -77t94.5 -43t117 -13.5q69 0 144 14t152 40v-189q-46 -20 -141 -38t-197 -18 q-103 0 -195.5 26.5t-161.5 85.5t-109.5 153t-40.5 228zM333 599h381q0 43 -11.5 81t-34 66.5t-56 45t-78.5 16.5t-80 -16.5t-60.5 -45t-40.5 -66.5t-20 -81z" />
<glyph unicode="&#x114;" horiz-adv-x="1163" d="M160 0v1338h867v-205h-622v-346h534v-205h-534v-377h658v-205h-903zM192 1338zM256 1680h206q11 -60 46 -86t84 -26t84 26t46 86h206q-7 -65 -32 -116.5t-68 -87.5t-102 -55t-134 -19t-134 19t-102 55t-68 87.5t-32 116.5z" />
<glyph unicode="&#x115;" horiz-adv-x="1050" d="M132 969zM191 1427h203q8 -88 43.5 -129.5t94.5 -41.5t94.5 41.5t43.5 129.5h203q-3 -73 -25.5 -135t-65 -107t-105 -70t-145.5 -25q-82 0 -145 25t-105.5 70t-65 107t-25.5 135zM80 468q0 132 38 231t102 164t146.5 97.5t170.5 32.5q92 0 169.5 -28t134 -88t88 -154.5 t31.5 -223.5q-1 -50 -3 -85h-635q5 -67 30 -114.5t65.5 -77t94.5 -43t117 -13.5q69 0 144 14t152 40v-189q-46 -20 -141 -38t-197 -18q-103 0 -195.5 26.5t-161.5 85.5t-109.5 153t-40.5 228zM333 599h381q0 43 -11.5 81t-34 66.5t-56 45t-78.5 16.5t-80 -16.5t-60.5 -45 t-40.5 -66.5t-20 -81z" />
<glyph unicode="&#x116;" horiz-adv-x="1163" d="M160 0v1338h867v-205h-622v-346h534v-205h-534v-377h658v-205h-903zM198 1338zM472 1448v257h249v-257h-249z" />
<glyph unicode="&#x117;" horiz-adv-x="1050" d="M135 969zM409 1191v257h249v-257h-249zM80 468q0 132 38 231t102 164t146.5 97.5t170.5 32.5q92 0 169.5 -28t134 -88t88 -154.5t31.5 -223.5q-1 -50 -3 -85h-635q5 -67 30 -114.5t65.5 -77t94.5 -43t117 -13.5q69 0 144 14t152 40v-189q-46 -20 -141 -38t-197 -18 q-103 0 -195.5 26.5t-161.5 85.5t-109.5 153t-40.5 228zM333 599h381q0 43 -11.5 81t-34 66.5t-56 45t-78.5 16.5t-80 -16.5t-60.5 -45t-40.5 -66.5t-20 -81z" />
<glyph unicode="&#x118;" horiz-adv-x="1163" d="M160 0v1338h867v-205h-622v-346h534v-205h-534v-377h658v-205q-41 -30 -78.5 -62.5t-66 -64.5t-45.5 -64.5t-17 -63.5q0 -33 20.5 -51.5t64.5 -18.5q59 0 122 23v-162q-32 -11 -76 -18.5t-92 -7.5q-51 0 -94.5 11.5t-75.5 35t-50.5 59t-18.5 83.5q0 84 49 153.5 t148 143.5v4h-693z" />
<glyph unicode="&#x119;" horiz-adv-x="1050" d="M80 468q0 132 38 231t102 164t146.5 97.5t170.5 32.5q92 0 170 -28t134 -88t87.5 -153.5t31.5 -224.5q0 -35 -3 -85h-635q5 -67 30 -114.5t65.5 -77t94.5 -43t117 -13.5q69 0 144 14t152 40v-180q-55 -36 -101.5 -75t-80.5 -77.5t-53 -75t-19 -67.5q0 -37 23 -53.5 t62 -16.5q57 0 122 23v-162q-29 -10 -73.5 -18t-94.5 -8q-51 0 -94.5 11.5t-75.5 35t-50.5 59t-18.5 83.5q0 77 42.5 142.5t128.5 134.5v4q-7 -2 -26 -3.5t-42 -1.5q-97 0 -186 26.5t-157.5 85.5t-109.5 153t-41 228zM333 599h381q0 43 -11.5 81t-34 66.5t-56 45t-78.5 16.5 t-80 -16.5t-60.5 -45t-40.5 -66.5t-20 -81z" />
<glyph unicode="&#x11a;" horiz-adv-x="1163" d="M160 0v1338h867v-205h-622v-346h534v-205h-534v-377h658v-205h-903zM195 1338zM276 1657h207l110 -126h4l111 126h206l-216 -247h-206z" />
<glyph unicode="&#x11b;" horiz-adv-x="1050" d="M141 969zM228 1473h185l126 -212h4l126 212h185l-210 -349h-206zM80 468q0 132 38 231t102 164t146.5 97.5t170.5 32.5q92 0 169.5 -28t134 -88t88 -154.5t31.5 -223.5q-1 -50 -3 -85h-635q5 -67 30 -114.5t65.5 -77t94.5 -43t117 -13.5q69 0 144 14t152 40v-189 q-46 -20 -141 -38t-197 -18q-103 0 -195.5 26.5t-161.5 85.5t-109.5 153t-40.5 228zM333 599h381q0 43 -11.5 81t-34 66.5t-56 45t-78.5 16.5t-80 -16.5t-60.5 -45t-40.5 -66.5t-20 -81z" />
<glyph unicode="&#x11c;" horiz-adv-x="1377" d="M100 638q0 104 23.5 198.5t69 175t110.5 145.5t148.5 111t183 70.5t213.5 24.5q101 0 192 -14.5t149 -35.5v-208q-78 25 -157.5 38t-160.5 13q-109 0 -204 -32.5t-164.5 -96t-109.5 -156.5t-40 -215q1 -237 124 -355.5t349 -118.5q42 0 87 4.5t79 11.5v313h-300v205h545 v-675q-30 -11 -76.5 -23t-104 -21.5t-118.5 -15.5t-121 -6q-180 0 -314.5 48.5t-224 136.5t-134 209.5t-44.5 268.5zM362 1338zM443 1409l216 247h206l216 -247h-207l-110 126h-4l-111 -126h-206z" />
<glyph unicode="&#x11d;" horiz-adv-x="1126" d="M163 969zM250 1124l210 349h206l210 -349h-185l-126 212h-4l-126 -212h-185zM80 466q0 131 35.5 229.5t94.5 164.5t135.5 99.5t157.5 33.5q89 0 158 -37.5t113 -95.5h4l10 109h208v-987q0 -85 -14 -146t-41 -108q-32 -55 -81.5 -96t-113 -68t-139.5 -40.5t-161 -13.5 q-48 0 -94 3.5t-86.5 10t-74 15t-56.5 17.5v193q66 -22 138.5 -33.5t152.5 -11.5q159 0 246 61.5t87 186.5v23q0 20 0.5 49.5t2.5 49.5h-2q-22 -18 -50.5 -35.5t-62.5 -32t-75 -23t-84 -8.5q-77 0 -150.5 27.5t-130.5 87t-92 152.5t-35 224zM325 476q0 -73 14 -130.5t42 -98 t69.5 -62t96.5 -21.5q36 0 68 9t59 23t48.5 31t36.5 34v433q-38 45 -94 75t-119 31q-22 0 -46.5 -5.5t-49.5 -19.5t-47.5 -37.5t-39.5 -59.5t-27.5 -86t-10.5 -116z" />
<glyph unicode="&#x11e;" horiz-adv-x="1377" d="M100 638q0 104 23.5 198.5t69 175t110.5 145.5t148.5 111t183 70.5t213.5 24.5q101 0 192 -14.5t149 -35.5v-208q-78 25 -157.5 38t-160.5 13q-109 0 -204 -32.5t-164.5 -96t-109.5 -156.5t-40 -215q1 -237 124 -355.5t349 -118.5q42 0 87 4.5t79 11.5v313h-300v205h545 v-675q-30 -11 -76.5 -23t-104 -21.5t-118.5 -15.5t-121 -6q-180 0 -314.5 48.5t-224 136.5t-134 209.5t-44.5 268.5zM318 1338zM382 1680h206q11 -60 46 -86t84 -26t84 26t46 86h206q-7 -65 -32 -116.5t-68 -87.5t-102 -55t-134 -19t-134 19t-102 55t-68 87.5t-32 116.5z " />
<glyph unicode="&#x11f;" horiz-adv-x="1126" d="M175 969zM234 1427h203q8 -88 43.5 -129.5t94.5 -41.5t94.5 41.5t43.5 129.5h203q-3 -73 -25.5 -135t-65 -107t-105 -70t-145.5 -25q-82 0 -145 25t-105.5 70t-65 107t-25.5 135zM80 466q0 131 35.5 229.5t94.5 164.5t135.5 99.5t157.5 33.5q89 0 158 -37.5t113 -95.5h4 l10 109h208v-987q0 -85 -14 -146t-41 -108q-32 -55 -81.5 -96t-113 -68t-139.5 -40.5t-161 -13.5q-48 0 -94 3.5t-86.5 10t-74 15t-56.5 17.5v193q66 -22 138.5 -33.5t152.5 -11.5q159 0 246 61.5t87 186.5v23q0 20 0.5 49.5t2.5 49.5h-2q-22 -18 -50.5 -35.5t-62.5 -32 t-75 -23t-84 -8.5q-77 0 -150.5 27.5t-130.5 87t-92 152.5t-35 224zM325 476q0 -73 14 -130.5t42 -98t69.5 -62t96.5 -21.5q36 0 68 9t59 23t48.5 31t36.5 34v433q-38 45 -94 75t-119 31q-22 0 -46.5 -5.5t-49.5 -19.5t-47.5 -37.5t-39.5 -59.5t-27.5 -86t-10.5 -116z" />
<glyph unicode="&#x120;" horiz-adv-x="1377" d="M100 638q0 104 23.5 198.5t69 175t110.5 145.5t148.5 111t183 70.5t213.5 24.5q101 0 192 -14.5t149 -35.5v-208q-78 25 -157.5 38t-160.5 13q-109 0 -204 -32.5t-164.5 -96t-109.5 -156.5t-40 -215q1 -237 124 -355.5t349 -118.5q42 0 87 4.5t79 11.5v313h-300v205h545 v-675q-30 -11 -76.5 -23t-104 -21.5t-118.5 -15.5t-121 -6q-180 0 -314.5 48.5t-224 136.5t-134 209.5t-44.5 268.5zM360 1338zM634 1448v257h249v-257h-249z" />
<glyph unicode="&#x121;" horiz-adv-x="1126" d="M167 969zM441 1191v257h249v-257h-249zM80 466q0 131 35.5 229.5t94.5 164.5t135.5 99.5t157.5 33.5q89 0 158 -37.5t113 -95.5h4l10 109h208v-987q0 -85 -14 -146t-41 -108q-32 -55 -81.5 -96t-113 -68t-139.5 -40.5t-161 -13.5q-48 0 -94 3.5t-86.5 10t-74 15 t-56.5 17.5v193q66 -22 138.5 -33.5t152.5 -11.5q159 0 246 61.5t87 186.5v23q0 20 0.5 49.5t2.5 49.5h-2q-22 -18 -50.5 -35.5t-62.5 -32t-75 -23t-84 -8.5q-77 0 -150.5 27.5t-130.5 87t-92 152.5t-35 224zM325 476q0 -73 14 -130.5t42 -98t69.5 -62t96.5 -21.5q36 0 68 9 t59 23t48.5 31t36.5 34v433q-38 45 -94 75t-119 31q-22 0 -46.5 -5.5t-49.5 -19.5t-47.5 -37.5t-39.5 -59.5t-27.5 -86t-10.5 -116z" />
<glyph unicode="&#x122;" horiz-adv-x="1377" d="M100 638q0 104 23.5 198.5t69 175t110.5 145.5t148.5 111t183 70.5t213.5 24.5q101 0 192 -14.5t149 -35.5v-208q-78 25 -157.5 38t-160.5 13q-109 0 -204 -32.5t-164.5 -96t-109.5 -156.5t-40 -215q1 -237 124 -355.5t349 -118.5q42 0 87 4.5t79 11.5v313h-300v205h545 v-675q-30 -11 -76.5 -23t-104 -21.5t-118.5 -15.5t-121 -6q-180 0 -314.5 48.5t-224 136.5t-134 209.5t-44.5 268.5zM671 -109q18 1 35 1q104 0 166 -47t62 -139q0 -48 -20 -99.5t-55 -96.5h-179q30 42 50 80.5t20 70.5t-22 46.5t-57 14.5v169z" />
<glyph unicode="&#x123;" horiz-adv-x="1126" d="M410 1271q0 51 20 103t55 99h179q-29 -42 -49.5 -80.5t-20.5 -70.5t22 -46.5t57 -14.5v-169q-15 -1 -29 -1q-107 0 -170.5 45.5t-63.5 134.5zM1135 969zM80 466q0 131 35.5 229.5t94.5 164.5t135.5 99.5t157.5 33.5q89 0 158 -37.5t113 -95.5h4l10 109h208v-987 q0 -85 -14 -146t-41 -108q-32 -55 -81.5 -96t-113 -68t-139.5 -40.5t-161 -13.5q-48 0 -94 3.5t-86.5 10t-74 15t-56.5 17.5v193q66 -22 138.5 -33.5t152.5 -11.5q159 0 246 61.5t87 186.5v23q0 20 0.5 49.5t2.5 49.5h-2q-22 -18 -50.5 -35.5t-62.5 -32t-75 -23t-84 -8.5 q-77 0 -150.5 27.5t-130.5 87t-92 152.5t-35 224zM325 476q0 -73 14 -130.5t42 -98t69.5 -62t96.5 -21.5q36 0 68 9t59 23t48.5 31t36.5 34v433q-38 45 -94 75t-119 31q-22 0 -46.5 -5.5t-49.5 -19.5t-47.5 -37.5t-39.5 -59.5t-27.5 -86t-10.5 -116z" />
<glyph unicode="&#x124;" horiz-adv-x="1430" d="M160 0v1338h245v-551h620v551h245v-1338h-245v582h-620v-582h-245zM314 1338zM395 1409l216 247h206l216 -247h-207l-110 126h-4l-111 -126h-206z" />
<glyph unicode="&#x125;" horiz-adv-x="1146" d="M-53 1520l216 247h206l216 -247h-207l-110 126h-4l-111 -126h-206zM140 0v1448h237v-395q0 -75 -2.5 -123.5t-8.5 -87.5h4q21 28 51.5 56t67 48.5t83 33.5t102.5 13q48 0 93.5 -9.5t85 -29.5t72 -52t54.5 -76q19 -38 28 -86t9 -117v-623h-237v591q0 45 -4 73.5t-14 49.5 q-21 44 -60 62t-89 18q-69 -1 -127.5 -33t-107.5 -94v-667h-237z" />
<glyph unicode="&#x126;" horiz-adv-x="1430" d="M0 978v197h160v163h245v-163h620v163h245v-163h158v-197h-158v-978h-245v582h-620v-582h-245v978h-160zM405 787h620v191h-620v-191z" />
<glyph unicode="&#x127;" horiz-adv-x="1146" d="M0 1106v185h140v157h237v-157h299v-185h-299v-53q0 -75 -2.5 -123.5t-8.5 -87.5h4q21 28 50.5 55t67 48.5t84 34.5t102.5 13q48 0 93.5 -10t85 -29.5t72 -51.5t54.5 -76q19 -38 28 -87t9 -116v-623h-237v591q0 45 -4 73.5t-14 49.5q-22 44 -60.5 62t-88.5 18 q-69 0 -127.5 -32.5t-107.5 -94.5v-667h-237v1106h-140z" />
<glyph unicode="&#x128;" horiz-adv-x="565" d="M160 0v1338h245v-1338h-245zM-107 1339zM-34 1444q0 39 8.5 77t30 68.5t57 48.5t83.5 18q39 0 77 -13.5t71 -30.5q35 -19 65.5 -33.5t52.5 -14.5q28 0 39.5 19t11.5 65h157q1 -15 1 -33q0 -38 -8.5 -76t-30 -69t-57 -49t-83.5 -18q-40 0 -77 13.5t-70 30.5 q-35 18 -65.5 33t-53.5 15q-28 0 -39.5 -19t-11.5 -65h-157q-1 16 -1 33z" />
<glyph unicode="&#x129;" horiz-adv-x="509" d="M136 0v969h237v-969h-237zM-93 969zM-61 1187q0 43 7.5 80.5t30 70t58 50.5t83.5 18q41 0 78 -13.5t70 -30.5q35 -18 65 -33t53 -15q28 0 39.5 19t11.5 65h157q1 -13 1 -37q0 -29 -8 -69.5t-30 -71.5t-57.5 -49t-83.5 -18q-39 0 -76.5 13.5t-72.5 31.5q-37 19 -67 33 t-50 14q-28 0 -39.5 -19t-11.5 -65h-157q-1 20 -1 26z" />
<glyph unicode="&#x12a;" horiz-adv-x="565" d="M160 0v1338h245v-1338h-245zM-109 1338zM11 1448v169h560v-169h-560z" />
<glyph unicode="&#x12b;" horiz-adv-x="509" d="M136 0v969h237v-969h-237zM-137 969zM-17 1171v167h560v-167h-560z" />
<glyph unicode="&#x12c;" horiz-adv-x="565" d="M160 0v1338h245v-1338h-245zM-110 1338zM-46 1680h206q11 -60 46 -86t84 -26t84 26t46 86h206q-7 -65 -32 -116.5t-68 -87.5t-102 -55t-134 -19t-134 19t-102 55t-68 87.5t-32 116.5z" />
<glyph unicode="&#x12d;" horiz-adv-x="509" d="M136 0v969h237v-969h-237zM-138 969zM-79 1427h203q8 -88 43.5 -129.5t94.5 -41.5t94.5 41.5t43.5 129.5h203q-3 -73 -25.5 -135t-65 -107t-105 -70t-145.5 -25q-82 0 -145 25t-105.5 70t-65 107t-25.5 135z" />
<glyph unicode="&#x12e;" horiz-adv-x="565" d="M11 -286q0 45 11 83.5t31 73t47 66.5t60 63v1338h245v-1338q-47 -26 -83 -57t-61 -64t-37.5 -65.5t-12.5 -59.5q0 -23 7.5 -38t20 -24t29 -13t35.5 -4q56 0 119 23v-162q-29 -10 -70.5 -18t-94.5 -8q-56 0 -101.5 13.5t-77.5 39.5t-49.5 64t-17.5 87z" />
<glyph unicode="&#x12f;" horiz-adv-x="509" d="M-13 -286q0 45 11 83.5t31 73t47 66.5t60 63v969h237v-969q-93 -59 -139.5 -125t-46.5 -121q0 -23 7.5 -38t20 -24t29 -13t34.5 -4q57 0 120 23v-162q-29 -10 -72 -18t-93 -8q-56 0 -101.5 13.5t-77.5 39.5t-49.5 64t-17.5 87zM130 1191v257h249v-257h-249z" />
<glyph unicode="&#x130;" horiz-adv-x="565" d="M160 0v1338h245v-1338h-245zM-107 1338zM167 1448v257h249v-257h-249z" />
<glyph unicode="&#x131;" horiz-adv-x="509" d="M136 0v969h237v-969h-237z" />
<glyph unicode="&#x132;" horiz-adv-x="1337" d="M160 0v1338h245v-1338h-245zM563 11v209q44 -18 94 -28t99 -10q95 0 138 44t43 130v982h245v-989q0 -66 -9.5 -113.5t-28.5 -83.5q-25 -48 -63 -81.5t-86 -55t-103 -31t-114 -9.5q-61 0 -118.5 10t-96.5 26z" />
<glyph unicode="&#x133;" horiz-adv-x="1022" d="M130 1191v257h249v-257h-249zM136 0v969h237v-969h-237zM329 -273q32 -9 71.5 -16t75.5 -7q48 0 84 11t58 38q17 20 24 55t7 84v1077h237v-1096q0 -136 -43 -210q-45 -78 -132 -115.5t-206 -37.5q-53 0 -95.5 6t-80.5 17v194zM643 1191v257h249v-257h-249z" />
<glyph unicode="&#x134;" horiz-adv-x="824" d="M50 11v209q44 -18 94 -28t99 -10q95 0 138 44t43 130v982h245v-989q0 -66 -9.5 -113.5t-28.5 -83.5q-25 -48 -63 -81.5t-86 -55t-103 -31t-114 -9.5q-61 0 -118.5 10t-96.5 26zM146 1338zM227 1409l216 247h206l216 -247h-207l-110 126h-4l-111 -126h-206z" />
<glyph unicode="&#x135;" horiz-adv-x="538" d="M-155 -273q30 -8 69 -15.5t78 -7.5q48 0 84 11t58 38q17 20 24 55t7 84v1077h237v-1096q0 -136 -43 -210q-45 -78 -132 -115.5t-206 -37.5q-51 0 -94.5 6t-81.5 17v194zM-29 1124l210 349h206l210 -349h-185l-126 212h-4l-126 -212h-185z" />
<glyph unicode="&#x136;" horiz-adv-x="1294" d="M160 0v1338h245v-609h4l505 609h304l-558 -663l604 -675h-314l-541 604h-4v-604h-245zM556 -109q18 1 35 1q104 0 166 -47t62 -139q0 -48 -20 -99.5t-55 -96.5h-179q30 42 50 80.5t20 70.5t-22 46.5t-57 14.5v169z" />
<glyph unicode="&#x137;" horiz-adv-x="1067" d="M140 0v1448h237v-872h5l369 393h293l-425 -455l428 -514h-287l-379 451h-4v-451h-237zM437 -109q18 1 35 1q104 0 166 -47t62 -139q0 -48 -20 -99.5t-55 -96.5h-179q30 42 50 80.5t20 70.5t-22 46.5t-57 14.5v169z" />
<glyph unicode="&#x138;" horiz-adv-x="1057" d="M130 0v969h237v-399h5l369 399h293l-425 -461l428 -508h-287l-379 445h-4v-445h-237z" />
<glyph unicode="&#x139;" horiz-adv-x="1101" d="M160 0v1338h245v-1133h626v-205h-871zM-6 1338zM172 1409l138 247h240l-190 -247h-188z" />
<glyph unicode="&#x13a;" horiz-adv-x="517" d="M140 0v1448h237v-1448h-237zM154 1519l138 247h240l-190 -247h-188z" />
<glyph unicode="&#x13b;" horiz-adv-x="1101" d="M160 0v1338h245v-1133h626v-205h-871zM504 -109q18 1 35 1q104 0 166 -47t62 -139q0 -48 -20 -99.5t-55 -96.5h-179q30 42 50 80.5t20 70.5t-22 46.5t-57 14.5v169z" />
<glyph unicode="&#x13c;" horiz-adv-x="517" d="M140 0v1448h237v-1448h-237zM149 -109q18 1 35 1q104 0 166 -47t62 -139q0 -48 -20 -99.5t-55 -96.5h-179q30 42 50 80.5t20 70.5t-22 46.5t-57 14.5v169z" />
<glyph unicode="&#x13d;" horiz-adv-x="1101" d="M160 0v1338h245v-1133h626v-205h-871zM593 1177v169q18 1 34 1q106 0 167.5 -46.5t61.5 -133.5q0 -51 -20 -103t-55 -99h-179q29 40 49.5 80t20.5 71q0 32 -22 46.5t-57 14.5z" />
<glyph unicode="&#x13e;" horiz-adv-x="517" d="M140 0v1448h237v-1448h-237zM481 1278v169q18 1 34 1q106 0 167.5 -46.5t61.5 -133.5q0 -51 -20 -103t-55 -99h-179q29 40 49.5 80t20.5 71q0 32 -22 46.5t-57 14.5z" />
<glyph unicode="&#x13f;" horiz-adv-x="1101" d="M160 0v1338h245v-1133h626v-205h-871zM625 623v257h249v-257h-249z" />
<glyph unicode="&#x140;" horiz-adv-x="766" d="M140 0v1448h237v-1448h-237zM533 566v257h249v-257h-249z" />
<glyph unicode="&#x141;" horiz-adv-x="1101" d="M14 463v210l146 54v611h245v-521l346 129v-210l-346 -129v-402h626v-205h-871v517z" />
<glyph unicode="&#x142;" horiz-adv-x="517" d="M2 473v216l138 82v677h237v-540l158 94v-216l-158 -94v-692h-237v555z" />
<glyph unicode="&#x143;" horiz-adv-x="1490" d="M160 0v1338h257l440 -622q144 -205 234 -364h6q-12 261 -12 380v606h245v-1338h-257l-436 616q-115 160 -238 371h-6q12 -246 12 -381v-606h-245zM464 1338zM642 1409l138 247h240l-190 -247h-188z" />
<glyph unicode="&#x144;" horiz-adv-x="1136" d="M130 0v969h196l22 -135h4q21 30 53 59t73 51t90.5 35.5t105.5 13.5q53 0 102.5 -12t90.5 -37.5t72.5 -66t49.5 -96.5q10 -31 13.5 -67.5t3.5 -84.5v-629h-237v592q0 39 -3 67t-11 49q-18 46 -54.5 66t-88.5 20q-69 0 -132.5 -32.5t-112.5 -94.5v-667h-237zM282 968z M521 1124l119 349h230l-165 -349h-184z" />
<glyph unicode="&#x145;" horiz-adv-x="1490" d="M160 0v1338h257l440 -622q144 -205 234 -364h6q-12 261 -12 380v606h245v-1338h-257l-436 616q-115 160 -238 371h-6q12 -246 12 -381v-606h-245zM630 -109q18 1 35 1q104 0 166 -47t62 -139q0 -48 -20 -99.5t-55 -96.5h-179q30 42 50 80.5t20 70.5t-22 46.5t-57 14.5 v169z" />
<glyph unicode="&#x146;" horiz-adv-x="1136" d="M130 0v969h196l22 -135h4q21 30 53 59t73 51t90.5 35.5t105.5 13.5q53 0 102.5 -12t90.5 -37.5t72.5 -66t49.5 -96.5q10 -31 13.5 -67.5t3.5 -84.5v-629h-237v592q0 39 -3 67t-11 49q-18 46 -54.5 66t-88.5 20q-69 0 -132.5 -32.5t-112.5 -94.5v-667h-237zM458 -109 q18 1 35 1q104 0 166 -47t62 -139q0 -48 -20 -99.5t-55 -96.5h-179q30 42 50 80.5t20 70.5t-22 46.5t-57 14.5v169z" />
<glyph unicode="&#x147;" horiz-adv-x="1490" d="M160 0v1338h257l440 -622q144 -205 234 -364h6q-12 261 -12 380v606h245v-1338h-257l-436 616q-115 160 -238 371h-6q12 -246 12 -381v-606h-245zM346 1338zM427 1657h207l110 -126h4l111 126h206l-216 -247h-206z" />
<glyph unicode="&#x148;" horiz-adv-x="1136" d="M130 0v969h196l22 -135h4q21 30 53 59t73 51t90.5 35.5t105.5 13.5q53 0 102.5 -12t90.5 -37.5t72.5 -66t49.5 -96.5q10 -31 13.5 -67.5t3.5 -84.5v-629h-237v592q0 39 -3 67t-11 49q-18 46 -54.5 66t-88.5 20q-69 0 -132.5 -32.5t-112.5 -94.5v-667h-237zM194 969z M281 1473h185l126 -212h4l126 212h185l-210 -349h-206z" />
<glyph unicode="&#x149;" horiz-adv-x="1136" d="M130 0v969h196l22 -135h4q21 30 53 59t73 51t90.5 35.5t105.5 13.5q53 0 102.5 -12t90.5 -37.5t72.5 -66t49.5 -96.5q10 -31 13.5 -67.5t3.5 -84.5v-629h-237v592q0 39 -3 67t-11 49q-18 46 -54.5 66t-88.5 20q-69 0 -132.5 -32.5t-112.5 -94.5v-667h-237zM-18 1278v169 q18 1 34 1q106 0 167.5 -46.5t61.5 -133.5q0 -51 -20 -103t-55 -99h-179q29 40 49.5 80t20.5 71q0 32 -22 46.5t-57 14.5zM25 969z" />
<glyph unicode="&#x14a;" horiz-adv-x="1490" d="M160 0v1338h257l440 -622q144 -205 234 -364h6q-12 261 -12 380v606h245v-1401q0 -169 -89 -259t-280 -91q-19 0 -41.5 1.5t-39.5 4.5v199q25 -5 52 -5q48 0 79 10.5t49 31.5t25.5 53t7.5 74v19l-456 641q-115 160 -238 371h-6q12 -246 12 -381v-606h-245z" />
<glyph unicode="&#x14b;" horiz-adv-x="1136" d="M130 0v969h196l22 -135h4q21 30 53 59t73 51t90.5 35.5t105.5 13.5q53 0 102.5 -12t90.5 -37.5t72.5 -66t49.5 -96.5q10 -31 13.5 -67.5t3.5 -84.5v-692q0 -168 -89 -259t-280 -91q-19 0 -41.5 1.5t-39.5 4.5v193q25 -5 52 -5q48 0 79 11.5t49 33.5t25.5 55t7.5 75v636 q0 41 -3 68.5t-11 47.5q-18 47 -55 66.5t-88 19.5q-69 0 -132.5 -32.5t-112.5 -94.5v-667h-237z" />
<glyph unicode="&#x14c;" horiz-adv-x="1504" d="M100 669q0 153 43.5 280.5t127 219.5t205 143t276.5 51t276.5 -51t205 -143t127 -219.5t43.5 -280.5t-43.5 -280.5t-127 -219.5t-205 -143t-276.5 -51t-276.5 51t-205 143t-127 219.5t-43.5 280.5zM353 669q0 -122 30 -213.5t83 -152t126 -91t160 -30.5t160 30.5t126 91 t83 152t30 213.5t-30 213.5t-83 152.5t-126 91t-160 30t-160 -30t-126 -91t-83 -152.5t-30 -213.5zM354 1338zM474 1448v169h560v-169h-560z" />
<glyph unicode="&#x14d;" horiz-adv-x="1134" d="M80 484q0 114 34 208t97.5 161t153.5 103.5t201 36.5q114 0 204.5 -36.5t153.5 -103.5t96.5 -161t33.5 -208t-34 -208t-97.5 -161t-153.5 -103.5t-201 -36.5q-114 0 -204.5 36.5t-153.5 103.5t-96.5 161t-33.5 208zM325 484q0 -77 18 -136t50.5 -98.5t77 -60t97.5 -20.5 t97 20.5t76 60t50 98.5t18 136t-18 136t-50 99t-77 60t-98 20q-52 0 -96.5 -20t-76.5 -60t-50 -99t-18 -136zM166 969zM286 1171v167h560v-167h-560z" />
<glyph unicode="&#x14e;" horiz-adv-x="1504" d="M100 669q0 153 43.5 280.5t127 219.5t205 143t276.5 51t276.5 -51t205 -143t127 -219.5t43.5 -280.5t-43.5 -280.5t-127 -219.5t-205 -143t-276.5 -51t-276.5 51t-205 143t-127 219.5t-43.5 280.5zM353 669q0 -122 30 -213.5t83 -152t126 -91t160 -30.5t160 30.5t126 91 t83 152t30 213.5t-30 213.5t-83 152.5t-126 91t-160 30t-160 -30t-126 -91t-83 -152.5t-30 -213.5zM353 1338zM417 1680h206q11 -60 46 -86t84 -26t84 26t46 86h206q-7 -65 -32 -116.5t-68 -87.5t-102 -55t-134 -19t-134 19t-102 55t-68 87.5t-32 116.5z" />
<glyph unicode="&#x14f;" horiz-adv-x="1134" d="M80 484q0 114 34 208t97.5 161t153.5 103.5t201 36.5q114 0 204.5 -36.5t153.5 -103.5t96.5 -161t33.5 -208t-34 -208t-97.5 -161t-153.5 -103.5t-201 -36.5q-114 0 -204.5 36.5t-153.5 103.5t-96.5 161t-33.5 208zM325 484q0 -77 18 -136t50.5 -98.5t77 -60t97.5 -20.5 t97 20.5t76 60t50 98.5t18 136t-18 136t-50 99t-77 60t-98 20q-52 0 -96.5 -20t-76.5 -60t-50 -99t-18 -136zM166 969zM225 1427h203q8 -88 43.5 -129.5t94.5 -41.5t94.5 41.5t43.5 129.5h203q-3 -73 -25.5 -135t-65 -107t-105 -70t-145.5 -25q-82 0 -145 25t-105.5 70 t-65 107t-25.5 135z" />
<glyph unicode="&#x150;" horiz-adv-x="1504" d="M100 669q0 153 43.5 280.5t127 219.5t205 143t276.5 51t276.5 -51t205 -143t127 -219.5t43.5 -280.5t-43.5 -280.5t-127 -219.5t-205 -143t-276.5 -51t-276.5 51t-205 143t-127 219.5t-43.5 280.5zM353 669q0 -122 30 -213.5t83 -152t126 -91t160 -30.5t160 30.5t126 91 t83 152t30 213.5t-30 213.5t-83 152.5t-126 91t-160 30t-160 -30t-126 -91t-83 -152.5t-30 -213.5zM448 1338zM502 1409l138 247h240l-190 -247h-188zM808 1409l155 247h244l-207 -247h-192z" />
<glyph unicode="&#x151;" horiz-adv-x="1134" d="M80 484q0 114 34 208t97.5 161t153.5 103.5t201 36.5q114 0 204.5 -36.5t153.5 -103.5t96.5 -161t33.5 -208t-34 -208t-97.5 -161t-153.5 -103.5t-201 -36.5q-114 0 -204.5 36.5t-153.5 103.5t-96.5 161t-33.5 208zM325 484q0 -77 18 -136t50.5 -98.5t77 -60t97.5 -20.5 t97 20.5t76 60t50 98.5t18 136t-18 136t-50 99t-77 60t-98 20q-52 0 -96.5 -20t-76.5 -60t-50 -99t-18 -136zM244 969zM311 1124l119 349h230l-165 -349h-184zM611 1124l141 349h236l-187 -349h-190z" />
<glyph unicode="&#x152;" horiz-adv-x="2144" d="M100 669q0 153 43.5 280.5t125.5 219.5t200 143t266 51q138 0 240 -43.5t172 -120.5h4v139h857v-205h-622v-346h534v-205h-534v-377h658v-205h-893v138h-4q-70 -76 -170 -119.5t-239 -43.5q-149 0 -267.5 51t-201 143t-126 219.5t-43.5 280.5zM353 669q0 -122 30 -213.5 t83 -152t126 -91t160 -30.5t160 30.5t126 91t83 152t30 213.5t-30 213.5t-83 152.5t-126 91t-160 30t-160 -30t-126 -91t-83 -152.5t-30 -213.5z" />
<glyph unicode="&#x153;" horiz-adv-x="1779" d="M80 484q0 114 34.5 208t97 161t149.5 103.5t193 36.5q125 0 217.5 -52t152.5 -139h4q29 47 66.5 82.5t81.5 59.5t92.5 36.5t97.5 12.5q92 0 170 -28t134 -88t87.5 -153.5t31.5 -224.5q0 -36 -3 -85h-635q5 -67 30 -114.5t65.5 -77t94.5 -43t117 -13.5q69 0 144 14t152 40 v-189q-31 -12 -70 -22.5t-82.5 -18t-89 -11.5t-90.5 -4q-63 0 -122 11.5t-110.5 34.5t-94 58t-72.5 82h-4q-29 -41 -67 -75t-85 -59t-103 -38.5t-120 -13.5q-104 0 -189.5 36.5t-146.5 103.5t-94.5 161t-33.5 208zM325 484q0 -77 18 -136t50.5 -98.5t77 -60t97.5 -20.5 t97 20.5t76 60t50 98.5t18 136t-18 136t-50 99t-77 60t-98 20q-52 0 -96.5 -20t-76.5 -60t-50 -99t-18 -136zM1062 599h381q0 43 -11.5 81t-34 66.5t-56 45t-78.5 16.5t-80 -16.5t-60.5 -45t-40.5 -66.5t-20 -81z" />
<glyph unicode="&#x154;" horiz-adv-x="1286" d="M160 0v1338h407q101 0 188 -11.5t149 -34.5q118 -45 182 -133.5t64 -222.5q0 -140 -77.5 -237.5t-239.5 -144.5v-4l398 -550h-294l-364 518h-168v-518h-245zM405 723h121q84 0 142.5 7.5t98.5 22.5q74 28 102.5 76.5t28.5 111.5q0 54 -22.5 95.5t-76.5 65.5 q-35 16 -88 23.5t-131 7.5h-175v-410zM336 1338zM514 1409l138 247h240l-190 -247h-188z" />
<glyph unicode="&#x155;" horiz-adv-x="716" d="M77 968zM316 1124l119 349h230l-165 -349h-184zM130 0v969h196l22 -135h4q42 74 115.5 116.5t176.5 42.5q36 0 62 -4v-208h-20q-109 0 -191.5 -32.5t-127.5 -99.5v-649h-237z" />
<glyph unicode="&#x156;" horiz-adv-x="1286" d="M160 0v1338h407q101 0 188 -11.5t149 -34.5q118 -45 182 -133.5t64 -222.5q0 -140 -77.5 -237.5t-239.5 -144.5v-4l398 -550h-294l-364 518h-168v-518h-245zM405 723h121q84 0 142.5 7.5t98.5 22.5q74 28 102.5 76.5t28.5 111.5q0 54 -22.5 95.5t-76.5 65.5 q-35 16 -88 23.5t-131 7.5h-175v-410zM535 -109q18 1 35 1q104 0 166 -47t62 -139q0 -48 -20 -99.5t-55 -96.5h-179q30 42 50 80.5t20 70.5t-22 46.5t-57 14.5v169z" />
<glyph unicode="&#x157;" horiz-adv-x="716" d="M139 -109q18 1 35 1q104 0 166 -47t62 -139q0 -48 -20 -99.5t-55 -96.5h-179q30 42 50 80.5t20 70.5t-22 46.5t-57 14.5v169zM130 0v969h196l22 -135h4q42 74 115.5 116.5t176.5 42.5q36 0 62 -4v-208h-20q-109 0 -191.5 -32.5t-127.5 -99.5v-649h-237z" />
<glyph unicode="&#x158;" horiz-adv-x="1286" d="M160 0v1338h407q101 0 188 -11.5t149 -34.5q118 -45 182 -133.5t64 -222.5q0 -140 -77.5 -237.5t-239.5 -144.5v-4l398 -550h-294l-364 518h-168v-518h-245zM405 723h121q84 0 142.5 7.5t98.5 22.5q74 28 102.5 76.5t28.5 111.5q0 54 -22.5 95.5t-76.5 65.5 q-35 16 -88 23.5t-131 7.5h-175v-410zM227 1338zM308 1657h207l110 -126h4l111 126h206l-216 -247h-206z" />
<glyph unicode="&#x159;" horiz-adv-x="716" d="M31 969zM118 1473h185l126 -212h4l126 212h185l-210 -349h-206zM130 0v969h196l22 -135h4q42 74 115.5 116.5t176.5 42.5q36 0 62 -4v-208h-20q-109 0 -191.5 -32.5t-127.5 -99.5v-649h-237z" />
<glyph unicode="&#x15a;" horiz-adv-x="1182" d="M118 57v207q99 -43 193 -62.5t194 -19.5q58 0 114 9.5t100.5 32.5t71.5 62.5t27 97.5q0 51 -25 82.5t-68 51.5t-96.5 32.5t-112.5 24.5q-78 17 -149 40.5t-125 65t-86 105.5t-32 160q0 106 37 184.5t100.5 130t149 77t192.5 25.5t215 -21t186 -54v-210 q-104 41 -199.5 59.5t-179.5 18.5q-121 0 -186.5 -44t-65.5 -132q0 -51 21.5 -84t58.5 -54.5t85 -34.5t102 -24q85 -18 162.5 -41.5t137.5 -65.5t95 -109.5t35 -172.5q0 -108 -40 -187t-113.5 -130.5t-178.5 -76.5t-230 -25q-109 0 -214.5 21.5t-175.5 60.5zM328 1338z M506 1409l138 247h240l-190 -247h-188z" />
<glyph unicode="&#x15b;" horiz-adv-x="868" d="M112 968zM351 1124l119 349h230l-165 -349h-184zM85 26v191q78 -29 144 -39.5t123 -10.5q44 0 82 6.5t65.5 20.5t43.5 35.5t16 51.5q0 31 -17.5 51t-46.5 33.5t-66.5 23.5t-78.5 20q-52 14 -100 32.5t-84.5 48.5t-58 75.5t-21.5 111.5q0 81 29 140.5t78.5 98.5t115 58 t138.5 19q89 0 167 -14.5t141 -37.5v-193q-33 11 -69.5 20.5t-74 16.5t-74.5 11.5t-70 4.5q-42 0 -71 -8t-47 -21.5t-26 -31t-8 -36.5q0 -33 17.5 -54t48.5 -34q31 -14 65 -22l66 -16q50 -12 100 -29t90 -47.5t65.5 -79t25.5 -123.5q0 -82 -31 -143t-86.5 -101.5t-133 -60 t-170.5 -19.5q-92 0 -165.5 14.5t-121.5 36.5z" />
<glyph unicode="&#x15c;" horiz-adv-x="1182" d="M118 57v207q99 -43 193 -62.5t194 -19.5q58 0 114 9.5t100.5 32.5t71.5 62.5t27 97.5q0 51 -25 82.5t-68 51.5t-96.5 32.5t-112.5 24.5q-78 17 -149 40.5t-125 65t-86 105.5t-32 160q0 106 37 184.5t100.5 130t149 77t192.5 25.5t215 -21t186 -54v-210 q-104 41 -199.5 59.5t-179.5 18.5q-121 0 -186.5 -44t-65.5 -132q0 -51 21.5 -84t58.5 -54.5t85 -34.5t102 -24q85 -18 162.5 -41.5t137.5 -65.5t95 -109.5t35 -172.5q0 -108 -40 -187t-113.5 -130.5t-178.5 -76.5t-230 -25q-109 0 -214.5 21.5t-175.5 60.5zM208 1338z M289 1409l216 247h206l216 -247h-207l-110 126h-4l-111 -126h-206z" />
<glyph unicode="&#x15d;" horiz-adv-x="868" d="M49 969zM136 1124l210 349h206l210 -349h-185l-126 212h-4l-126 -212h-185zM85 26v191q78 -29 144 -39.5t123 -10.5q44 0 82 6.5t65.5 20.5t43.5 35.5t16 51.5q0 31 -17.5 51t-46.5 33.5t-66.5 23.5t-78.5 20q-52 14 -100 32.5t-84.5 48.5t-58 75.5t-21.5 111.5 q0 81 29 140.5t78.5 98.5t115 58t138.5 19q89 0 167 -14.5t141 -37.5v-193q-33 11 -69.5 20.5t-74 16.5t-74.5 11.5t-70 4.5q-42 0 -71 -8t-47 -21.5t-26 -31t-8 -36.5q0 -33 17.5 -54t48.5 -34q31 -14 65 -22l66 -16q50 -12 100 -29t90 -47.5t65.5 -79t25.5 -123.5 q0 -82 -31 -143t-86.5 -101.5t-133 -60t-170.5 -19.5q-92 0 -165.5 14.5t-121.5 36.5z" />
<glyph unicode="&#x15e;" horiz-adv-x="1182" d="M118 57v207q99 -43 193 -62.5t194 -19.5q58 0 114 9.5t100.5 32.5t71.5 62t27 98q0 51 -25 82.5t-67 51.5t-96.5 32.5t-113.5 24.5q-78 17 -149 40.5t-125 65t-86 105.5t-32 160q0 106 37 184.5t100.5 130t149 77t182.5 25.5q52 0 106 -4.5t107.5 -14t103.5 -23.5t94 -33 v-210q-104 42 -199.5 60t-179.5 18q-121 0 -186.5 -44t-65.5 -132q0 -51 21.5 -84t58.5 -54.5t85 -34.5t102 -24q85 -18 162.5 -41.5t137 -65.5t95 -109.5t35.5 -172.5q0 -98 -32.5 -172t-94 -125t-148.5 -80.5t-197 -37.5l-26 -97q41 -6 74.5 -19.5t58.5 -35t39 -50 t14 -63.5q0 -42 -19.5 -78.5t-58.5 -65t-98.5 -44.5t-133.5 -16q-39 0 -78.5 5.5t-61.5 13.5v146q22 -7 60.5 -12t67.5 -5q39 0 65.5 6t41 15.5t21 20t6.5 22.5q0 31 -43.5 46t-136.5 17l57 192q-42 3 -87 9t-88.5 16t-82.5 23.5t-71 31.5z" />
<glyph unicode="&#x15f;" horiz-adv-x="868" d="M85 26v191q80 -29 145 -39.5t122 -10.5q44 0 82 6.5t65.5 20.5t43.5 35.5t16 51.5t-17 50.5t-46.5 34t-67 23.5t-78.5 20q-54 14 -101 32.5t-83.5 48.5t-58 75.5t-21.5 111.5q0 81 29 140.5t78.5 98.5t115 58t138.5 19q89 0 167 -14.5t141 -37.5v-193q-33 11 -69.5 20.5 t-74 16.5t-74.5 11.5t-70 4.5q-42 0 -71 -8t-47 -21.5t-26 -31t-8 -36.5q0 -33 19 -54t48.5 -34.5t64 -21.5t65.5 -16q50 -12 99 -29t90.5 -47.5t66.5 -80t25 -122.5q0 -72 -23.5 -127t-66.5 -95t-103 -63.5t-134 -32.5l-27 -99q40 -6 74 -19.5t59 -35t39 -50t14 -63.5 q0 -42 -20 -79t-58.5 -65t-97 -44t-134.5 -16q-40 0 -79 5.5t-61 13.5v146q25 -8 63 -12.5t67 -4.5q36 0 63 6t41.5 15.5t21 20.5t6.5 22q0 31 -43.5 46t-136.5 17l57 192q-72 4 -130.5 17t-98.5 32z" />
<glyph unicode="&#x160;" horiz-adv-x="1182" d="M118 57v207q99 -43 193 -62.5t194 -19.5q58 0 114 9.5t100.5 32.5t71.5 62.5t27 97.5q0 51 -25 82.5t-68 51.5t-96.5 32.5t-112.5 24.5q-78 17 -149 40.5t-125 65t-86 105.5t-32 160q0 106 37 184.5t100.5 130t149 77t192.5 25.5t215 -21t186 -54v-210 q-104 41 -199.5 59.5t-179.5 18.5q-121 0 -186.5 -44t-65.5 -132q0 -51 21.5 -84t58.5 -54.5t85 -34.5t102 -24q85 -18 162.5 -41.5t137.5 -65.5t95 -109.5t35 -172.5q0 -108 -40 -187t-113.5 -130.5t-178.5 -76.5t-230 -25q-109 0 -214.5 21.5t-175.5 60.5zM206 1338z M287 1657h207l110 -126h4l111 126h206l-216 -247h-206z" />
<glyph unicode="&#x161;" horiz-adv-x="868" d="M42 969zM129 1473h185l126 -212h4l126 212h185l-210 -349h-206zM85 26v191q78 -29 144 -39.5t123 -10.5q44 0 82 6.5t65.5 20.5t43.5 35.5t16 51.5q0 31 -17.5 51t-46.5 33.5t-66.5 23.5t-78.5 20q-52 14 -100 32.5t-84.5 48.5t-58 75.5t-21.5 111.5q0 81 29 140.5 t78.5 98.5t115 58t138.5 19q89 0 167 -14.5t141 -37.5v-193q-33 11 -69.5 20.5t-74 16.5t-74.5 11.5t-70 4.5q-42 0 -71 -8t-47 -21.5t-26 -31t-8 -36.5q0 -33 17.5 -54t48.5 -34q31 -14 65 -22l66 -16q50 -12 100 -29t90 -47.5t65.5 -79t25.5 -123.5q0 -82 -31 -143 t-86.5 -101.5t-133 -60t-170.5 -19.5q-92 0 -165.5 14.5t-121.5 36.5z" />
<glyph unicode="&#x162;" horiz-adv-x="1168" d="M30 1133v205h1108v-205h-431v-1133h-245v1133h-432zM461 -109q18 1 35 1q104 0 166 -47t62 -139q0 -48 -20 -99.5t-55 -96.5h-179q30 42 50 80.5t20 70.5t-22 46.5t-57 14.5v169z" />
<glyph unicode="&#x21a;" horiz-adv-x="1168" d="M30 1133v205h1108v-205h-431v-1133h-245v1133h-432zM461 -109q18 1 35 1q104 0 166 -47t62 -139q0 -48 -20 -99.5t-55 -96.5h-179q30 42 50 80.5t20 70.5t-22 46.5t-57 14.5v169z" />
<glyph unicode="&#x163;" horiz-adv-x="777" d="M10 774v195h181v271h237v-271h280v-195h-280v-471q0 -56 17 -83q30 -46 119 -46q41 0 81.5 6.5t76.5 16.5v-196q-40 -12 -95.5 -19t-103.5 -7q-122 0 -199.5 39.5t-109.5 113.5q-23 53 -23 144v502h-181zM331 -109q18 1 35 1q104 0 166 -47t62 -139q0 -48 -20 -99.5 t-55 -96.5h-179q30 42 50 80.5t20 70.5t-22 46.5t-57 14.5v169z" />
<glyph unicode="&#x21b;" horiz-adv-x="777" d="M10 774v195h181v271h237v-271h280v-195h-280v-471q0 -56 17 -83q30 -46 119 -46q41 0 81.5 6.5t76.5 16.5v-196q-40 -12 -95.5 -19t-103.5 -7q-122 0 -199.5 39.5t-109.5 113.5q-23 53 -23 144v502h-181zM331 -109q18 1 35 1q104 0 166 -47t62 -139q0 -48 -20 -99.5 t-55 -96.5h-179q30 42 50 80.5t20 70.5t-22 46.5t-57 14.5v169z" />
<glyph unicode="&#x164;" horiz-adv-x="1168" d="M30 1133v205h1108v-205h-431v-1133h-245v1133h-432zM181 1338zM262 1657h207l110 -126h4l111 126h206l-216 -247h-206z" />
<glyph unicode="&#x165;" horiz-adv-x="777" d="M10 774v195h181v271h237v-271h280v-195h-280v-471q0 -56 17 -83q30 -46 119 -46q41 0 81.5 6.5t76.5 16.5v-196q-40 -12 -95.5 -19t-103.5 -7q-122 0 -199.5 39.5t-109.5 113.5q-23 53 -23 144v502h-181zM562 1278v169q18 1 34 1q106 0 167.5 -46.5t61.5 -133.5 q0 -51 -20 -103t-55 -99h-179q29 40 49.5 80t20.5 71q0 32 -22 46.5t-57 14.5zM605 969z" />
<glyph unicode="&#x166;" horiz-adv-x="1168" d="M30 1133v205h1108v-205h-431v-346h243v-205h-243v-582h-245v582h-238v205h238v346h-432z" />
<glyph unicode="&#x167;" horiz-adv-x="777" d="M10 398v187h181v189h-181v195h181v271h237v-271h280v-195h-280v-189h228v-187h-228v-95q0 -56 17 -83q30 -46 119 -46q43 0 82.5 6.5t75.5 16.5v-196q-41 -12 -95 -19t-104 -7q-122 0 -199.5 39.5t-109.5 113.5q-23 53 -23 144v126h-181z" />
<glyph unicode="&#x168;" horiz-adv-x="1434" d="M155 550v788h245v-766q0 -142 34 -222q38 -89 111 -128.5t172 -39.5t172 39.5t111 128.5q34 80 34 222v766h245v-788q0 -84 -9.5 -152t-31.5 -124q-27 -70 -72.5 -125.5t-111 -94t-150.5 -59t-190 -20.5t-189 20.5t-148 59t-109 94t-72 125.5q-22 56 -31.5 124t-9.5 152z M321 1339zM394 1444q0 39 8.5 77t30 68.5t57 48.5t83.5 18q39 0 77 -13.5t71 -30.5q35 -19 65.5 -33.5t52.5 -14.5q28 0 39.5 19t11.5 65h157q1 -15 1 -33q0 -38 -8.5 -76t-30 -69t-57 -49t-83.5 -18q-40 0 -77 13.5t-70 30.5q-35 18 -65.5 33t-53.5 15q-28 0 -39.5 -19 t-11.5 -65h-157q-1 16 -1 33z" />
<glyph unicode="&#x169;" horiz-adv-x="1116" d="M120 377v592h237v-567q0 -49 7 -84.5t21 -61.5q24 -44 68 -65.5t105 -21.5q64 0 109.5 24t68.5 73q23 47 23 131v572h237v-592q0 -118 -41 -199q-23 -46 -59.5 -83.5t-86 -64t-112 -41t-139.5 -14.5q-146 0 -242 49.5t-145 133.5q-26 45 -38.5 99t-12.5 120zM203 969z M235 1187q0 43 7.5 80.5t30 70t58 50.5t83.5 18q41 0 78 -13.5t70 -30.5q35 -18 65 -33t53 -15q28 0 39.5 19t11.5 65h157q1 -13 1 -37q0 -29 -8 -69.5t-30 -71.5t-57.5 -49t-83.5 -18q-39 0 -76.5 13.5t-72.5 31.5q-37 19 -67 33t-50 14q-28 0 -39.5 -19t-11.5 -65h-157 q-1 20 -1 26z" />
<glyph unicode="&#x16a;" horiz-adv-x="1434" d="M155 550v788h245v-766q0 -142 34 -222q38 -89 111 -128.5t172 -39.5t172 39.5t111 128.5q34 80 34 222v766h245v-788q0 -84 -9.5 -152t-31.5 -124q-27 -70 -72.5 -125.5t-111 -94t-150.5 -59t-190 -20.5t-189 20.5t-148 59t-109 94t-72 125.5q-22 56 -31.5 124t-9.5 152z M316 1338zM436 1448v169h560v-169h-560z" />
<glyph unicode="&#x16b;" horiz-adv-x="1116" d="M120 377v592h237v-567q0 -49 7 -84.5t21 -61.5q24 -44 68 -65.5t105 -21.5q64 0 109.5 24t68.5 73q23 47 23 131v572h237v-592q0 -118 -41 -199q-23 -46 -59.5 -83.5t-86 -64t-112 -41t-139.5 -14.5q-146 0 -242 49.5t-145 133.5q-26 45 -38.5 99t-12.5 120zM160 969z M280 1171v167h560v-167h-560z" />
<glyph unicode="&#x16c;" horiz-adv-x="1434" d="M155 550v788h245v-766q0 -142 34 -222q38 -89 111 -128.5t172 -39.5t172 39.5t111 128.5q34 80 34 222v766h245v-788q0 -84 -9.5 -152t-31.5 -124q-27 -70 -72.5 -125.5t-111 -94t-150.5 -59t-190 -20.5t-189 20.5t-148 59t-109 94t-72 125.5q-22 56 -31.5 124t-9.5 152z M317 1338zM381 1680h206q11 -60 46 -86t84 -26t84 26t46 86h206q-7 -65 -32 -116.5t-68 -87.5t-102 -55t-134 -19t-134 19t-102 55t-68 87.5t-32 116.5z" />
<glyph unicode="&#x16d;" horiz-adv-x="1116" d="M120 377v592h237v-567q0 -49 7 -84.5t21 -61.5q24 -44 68 -65.5t105 -21.5q64 0 109.5 24t68.5 73q23 47 23 131v572h237v-592q0 -118 -41 -199q-23 -46 -59.5 -83.5t-86 -64t-112 -41t-139.5 -14.5q-146 0 -242 49.5t-145 133.5q-26 45 -38.5 99t-12.5 120zM161 969z M220 1427h203q8 -88 43.5 -129.5t94.5 -41.5t94.5 41.5t43.5 129.5h203q-3 -73 -25.5 -135t-65 -107t-105 -70t-145.5 -25q-82 0 -145 25t-105.5 70t-65 107t-25.5 135z" />
<glyph unicode="&#x16e;" horiz-adv-x="1434" d="M155 550v788h245v-766q0 -142 34 -222q38 -89 111 -128.5t172 -39.5t172 39.5t111 128.5q34 80 34 222v766h245v-788q0 -84 -9.5 -152t-31.5 -124q-27 -70 -72.5 -125.5t-111 -94t-150.5 -59t-190 -20.5t-189 20.5t-148 59t-109 94t-72 125.5q-22 56 -31.5 124t-9.5 152z M321 1338zM471 1563q0 47 19 83t52 61.5t79 38.5t100 13t100 -13t79 -38.5t52 -61.5t19 -83q0 -46 -19 -82.5t-52 -62t-79 -38.5t-100 -13t-100 13t-79 38.5t-52 62t-19 82.5zM620 1563q0 -42 29 -63.5t72 -21.5t72 21.5t29 63.5t-29 63.5t-72 21.5t-72 -21.5t-29 -63.5z " />
<glyph unicode="&#x16f;" horiz-adv-x="1116" d="M120 377v592h237v-567q0 -49 7 -84.5t21 -61.5q24 -44 68 -65.5t105 -21.5q64 0 109.5 24t68.5 73q23 47 23 131v572h237v-592q0 -118 -41 -199q-23 -46 -59.5 -83.5t-86 -64t-112 -41t-139.5 -14.5q-146 0 -242 49.5t-145 133.5q-26 45 -38.5 99t-12.5 120zM160 969z M310 1295q0 48 19 86t52 64.5t79 40.5t100 14t100 -14t79 -40.5t52 -64.5t19 -86t-19 -86t-52 -64.5t-79 -40.5t-100 -14t-100 14t-79 40.5t-52 64.5t-19 86zM459 1295q0 -45 29 -68.5t72 -23.5t72 23.5t29 68.5t-29 68.5t-72 23.5t-72 -23.5t-29 -68.5z" />
<glyph unicode="&#x170;" horiz-adv-x="1434" d="M155 550v788h245v-766q0 -142 34 -222q38 -89 111 -128.5t172 -39.5t172 39.5t111 128.5q34 80 34 222v766h245v-788q0 -84 -9.5 -152t-31.5 -124q-27 -70 -72.5 -125.5t-111 -94t-150.5 -59t-190 -20.5t-189 20.5t-148 59t-109 94t-72 125.5q-22 56 -31.5 124t-9.5 152z M393 1338zM447 1409l138 247h240l-190 -247h-188zM753 1409l155 247h244l-207 -247h-192z" />
<glyph unicode="&#x171;" horiz-adv-x="1116" d="M120 377v592h237v-567q0 -49 7 -84.5t21 -61.5q24 -44 68 -65.5t105 -21.5q64 0 109.5 24t68.5 73q23 47 23 131v572h237v-592q0 -118 -41 -199q-23 -46 -59.5 -83.5t-86 -64t-112 -41t-139.5 -14.5q-146 0 -242 49.5t-145 133.5q-26 45 -38.5 99t-12.5 120zM236 969z M303 1124l119 349h230l-165 -349h-184zM603 1124l141 349h236l-187 -349h-190z" />
<glyph unicode="&#x172;" horiz-adv-x="1434" d="M155 550v788h245v-766q0 -142 34 -222q38 -89 111 -128.5t172 -39.5t172 39.5t111 128.5q34 80 34 222v766h245v-794q0 -98 -15 -173t-40.5 -133t-59 -101.5t-71.5 -79.5q-49 -46 -98 -84t-90 -74t-65 -75t-24 -78q1 -40 24 -55.5t61 -15.5q59 0 122 23v-162 q-29 -10 -72 -18t-96 -8q-51 0 -94.5 11.5t-75.5 35t-50.5 59t-18.5 83.5q0 78 44 146t132 137l-1 4q-18 -4 -44 -6.5t-47 -2.5q-100 0 -181 20.5t-144 58.5t-107.5 93t-71.5 125q-22 56 -31.5 124t-9.5 152z" />
<glyph unicode="&#x173;" horiz-adv-x="1116" d="M120 377v592h237v-567q0 -49 7 -84.5t21 -61.5q24 -44 68 -65.5t105 -21.5q64 0 109.5 24t68.5 73q23 47 23 131v572h237v-592q0 -58 -10 -105.5t-28 -88.5t-43 -77t-54 -69q-36 -41 -70.5 -77.5t-62 -72t-44.5 -72t-17 -73.5q0 -35 23.5 -51t63.5 -16q57 0 120 23v-162 q-29 -10 -73.5 -18t-94.5 -8q-51 0 -94.5 11.5t-75.5 35t-50.5 59t-18.5 83.5q0 78 45.5 148t133.5 139l-1 5q-20 -6 -49 -10t-70 -4q-118 0 -212 48.5t-143 132.5q-26 45 -38.5 99t-12.5 120z" />
<glyph unicode="&#x174;" horiz-adv-x="1864" d="M20 1338h261l161 -533q73 -251 118 -454h6q44 218 102 447l138 540h252l138 -540q58 -227 102 -447h6q55 240 118 454l161 533h261l-425 -1338h-244l-150 600q-51 203 -90 386h-6q-39 -187 -90 -386l-150 -600h-244zM530 1338zM611 1409l216 247h206l216 -247h-207 l-110 126h-4l-111 -126h-206z" />
<glyph unicode="&#x175;" horiz-adv-x="1534" d="M10 969h250l125 -406q43 -141 76 -273h4q28 128 67 273l111 406h250l109 -406q35 -129 67 -273h4q34 135 76 273l125 406h250l-339 -969h-233l-117 425q-40 143 -66 281h-4q-28 -145 -66 -281l-117 -425h-233zM367 969zM454 1124l210 349h206l210 -349h-185l-126 212h-4 l-126 -212h-185z" />
<glyph unicode="&#x176;" horiz-adv-x="1299" d="M20 1338h272l356 -576h3l356 576h272l-507 -799v-539h-245v539zM246 1338zM327 1409l216 247h206l216 -247h-207l-110 126h-4l-111 -126h-206z" />
<glyph unicode="&#x177;" horiz-adv-x="1052" d="M10 969h254l145 -351q82 -200 116 -296h4q25 75 106 278l150 369h257l-624 -1434h-234l222 519zM123 969zM210 1124l210 349h206l210 -349h-185l-126 212h-4l-126 -212h-185z" />
<glyph unicode="&#x178;" horiz-adv-x="1299" d="M20 1338h272l356 -576h3l356 576h272l-507 -799v-539h-245v539zM247 1338zM329 1448v225h224v-225h-224zM741 1448v225h224v-225h-224z" />
<glyph unicode="&#x179;" horiz-adv-x="1231" d="M90 0v132l717 1001h-699v205h1024v-133l-716 -1000h725v-205h-1051zM307 1338zM485 1409l138 247h240l-190 -247h-188z" />
<glyph unicode="&#x17a;" horiz-adv-x="958" d="M65 0v134l489 640h-473v195h777v-147l-480 -627h515v-195h-828zM133 968zM372 1124l119 349h230l-165 -349h-184z" />
<glyph unicode="&#x17b;" horiz-adv-x="1231" d="M90 0v132l717 1001h-699v205h1024v-133l-716 -1000h725v-205h-1051zM218 1338zM492 1448v257h249v-257h-249z" />
<glyph unicode="&#x17c;" horiz-adv-x="958" d="M65 0v134l489 640h-473v195h777v-147l-480 -627h515v-195h-828zM82 969zM356 1191v257h249v-257h-249z" />
<glyph unicode="&#x17d;" horiz-adv-x="1231" d="M90 0v132l717 1001h-699v205h1024v-133l-716 -1000h725v-205h-1051zM219 1338zM300 1657h207l110 -126h4l111 126h206l-216 -247h-206z" />
<glyph unicode="&#x17e;" horiz-adv-x="958" d="M65 0v134l489 640h-473v195h777v-147l-480 -627h515v-195h-828zM79 969zM166 1473h185l126 -212h4l126 212h185l-210 -349h-206z" />
<glyph unicode="&#x17f;" horiz-adv-x="608" d="M140 0v1094q0 98 27 169.5t75.5 118t115.5 69t148 22.5q49 0 92 -7t75 -18v-188q-34 8 -67 13.5t-68 5.5q-42 0 -72 -10t-50 -32t-29.5 -57t-9.5 -85v-1095h-237z" />
<glyph unicode="&#x192;" d="M-2 -126q14 -3 33 -5.5t39 -2.5q67 0 116.5 39.5t86 129t63.5 233.5t48 353h-194v201h213q12 109 40 207t81 172.5t135 118t202 43.5q29 0 58 -3.5t47 -9.5v-198q-19 4 -40.5 6t-38.5 2q-59 0 -100 -20.5t-68 -62.5t-44 -105.5t-28 -149.5h232v-201h-254 q-24 -235 -58.5 -414t-92 -300t-145.5 -182.5t-220 -61.5q-13 0 -29.5 1t-32.5 3t-29 4.5t-20 4.5v198z" />
<glyph unicode="&#x1a0;" horiz-adv-x="1620" d="M100 669q0 153 43.5 280.5t127 219.5t205 143t276.5 51q192 0 330.5 -76.5t219.5 -211.5q62 35 85 79t23 104q0 51 -11 91t-34 78h219q19 -38 27.5 -74.5t8.5 -86.5q0 -52 -18 -100.5t-51 -91.5t-80 -79.5t-105 -64.5q38 -120 38 -261q0 -153 -43.5 -280.5t-127 -219.5 t-205 -143t-276.5 -51t-276.5 51t-205 143t-127 219.5t-43.5 280.5zM353 669q0 -122 30 -213.5t83 -152t126 -91t160 -30.5t160 30.5t126 91t83 152t30 213.5t-30 213.5t-83 152t-126 91t-160 30.5t-160 -30.5t-126 -91t-83 -152t-30 -213.5z" />
<glyph unicode="&#x1a1;" horiz-adv-x="1290" d="M80 484q0 114 34 208t97.5 161t153.5 103.5t201 36.5q154 0 264 -65.5t167 -180.5q48 32 65.5 72.5t17.5 94.5q0 51 -11 91t-34 78h219q19 -38 27.5 -74.5t8.5 -86.5q0 -103 -65.5 -189t-178.5 -142q4 -26 6 -52.5t2 -54.5q0 -114 -34 -208t-97.5 -161t-153.5 -103.5 t-201 -36.5q-114 0 -204.5 36.5t-153.5 103.5t-96.5 161t-33.5 208zM325 484q0 -77 18 -136t50.5 -98.5t77 -60t97.5 -20.5q52 0 96.5 20.5t76.5 60t50 98.5t18 136t-18 136t-50.5 98.5t-77 60t-97.5 20.5t-97 -20.5t-76 -60t-50 -98.5t-18 -136z" />
<glyph unicode="&#x1af;" horiz-adv-x="1670" d="M155 550v788h245v-766q0 -144 34 -222q38 -89 111 -128.5t172 -39.5t172 39.5t111 128.5q34 78 34 222v766h245v-296q53 20 88 42t55.5 48.5t29 57t8.5 68.5q0 51 -11 91t-34 78h219q19 -38 27.5 -74.5t8.5 -86.5q0 -66 -28.5 -126.5t-80 -110.5t-123.5 -88t-159 -59 v-332q0 -85 -9.5 -152t-31.5 -124q-54 -140 -183.5 -219.5t-340.5 -79.5q-105 0 -189 20.5t-148 59t-109 94t-72 125.5q-22 57 -31.5 124t-9.5 152z" />
<glyph unicode="&#x1b0;" horiz-adv-x="1384" d="M120 377v592h237v-567q0 -49 7 -84.5t21 -61.5q24 -45 68 -66t105 -21q64 0 109.5 24t68.5 73q23 48 23 131v572h237v-270q52 20 86 42t54.5 48t29 57t8.5 68q0 51 -11 91t-34 78h219q19 -38 27.5 -74.5t8.5 -86.5q0 -66 -28 -126t-79 -110t-122.5 -88t-158.5 -59v-162 q0 -117 -41 -199q-46 -93 -145 -148t-252 -55q-147 0 -242.5 49t-144.5 134q-26 45 -38.5 99t-12.5 120z" />
<glyph unicode="&#x1fa;" horiz-adv-x="1346" d="M30 0l531 1338h224l531 -1338h-259l-131 341h-504l-131 -341h-261zM430 1540q0 43 18 76t50 55.5t75.5 34t95.5 11.5t95.5 -11.5t75.5 -34t50 -55.5t18 -76t-18 -76t-50 -55.5t-75.5 -34t-95.5 -11.5t-95.5 11.5t-75.5 34t-50 55.5t-18 76zM501 546h346l-46 119 q-55 142 -125 351h-4q-70 -210 -125 -351zM574 1540q0 -37 28 -54t67 -17t67 17t28 54t-28 54t-67 17t-67 -17t-28 -54zM595 1744l136 199h216l-189 -199h-163z" />
<glyph unicode="&#x1fb;" horiz-adv-x="1054" d="M85 285q0 78 28.5 140t79.5 105t122 65.5t157 22.5q63 0 116 -8t93 -19v39q0 34 -11.5 65.5t-37 56t-66.5 39t-100 14.5q-72 0 -144 -16t-156 -48v185q73 32 155 49t172 18q106 0 185.5 -26t133 -71.5t80 -107.5t26.5 -135v-365q0 -96 2 -165t4 -123h-214l-10 103h-4 q-20 -21 -48 -43t-64 -41.5t-80 -31.5t-95 -12q-69 0 -129 21.5t-103 62t-67.5 98t-24.5 128.5zM265 1268q0 47 19 83t52 61.5t79 38.5t100 13t100 -13t79 -38.5t52 -61.5t19 -83q0 -46 -19 -82.5t-52 -62t-79 -38.5t-100 -13t-100 13t-79 38.5t-52 62t-19 82.5zM326 294 q0 -33 11.5 -57.5t31 -40.5t45.5 -24t55 -8q36 0 68 9.5t59 24t48.5 32.5t36.5 35v148q-34 8 -78 14.5t-89 6.5q-87 0 -137.5 -34.5t-50.5 -105.5zM414 1268q0 -42 29 -63.5t72 -21.5t72 21.5t29 63.5t-29 63.5t-72 21.5t-72 -21.5t-29 -63.5zM433 1519l148 256h221 l-201 -256h-168z" />
<glyph unicode="&#x1fc;" horiz-adv-x="1913" d="M25 0l668 1338h1040v-205h-642l49 -346h498v-205h-470l53 -377h622v-205h-831l-48 341h-510l-168 -341h-261zM555 546h380l-82 587h-8zM901 1338zM1079 1409l138 247h240l-190 -247h-188z" />
<glyph unicode="&#x1fd;" horiz-adv-x="1635" d="M85 285q0 78 28.5 140t79.5 105t122.5 65.5t156.5 22.5q66 0 117.5 -8.5t89.5 -18.5h2v35q0 36 -11.5 68t-37 57t-66.5 39.5t-100 14.5q-69 0 -142 -16t-158 -48v185q72 32 157.5 49.5t169.5 17.5q65 0 116.5 -12t91 -33.5t68 -51t47.5 -65.5h4q57 78 138 120t180 42 q86 0 160 -28t129 -88t86.5 -153.5t31.5 -224.5q0 -26 -1.5 -47t-1.5 -38h-635q5 -67 30 -114.5t65.5 -77t94.5 -43t117 -13.5q69 0 143.5 14t152.5 40v-189q-31 -12 -70 -22.5t-83 -18t-91 -11.5t-94 -4q-111 0 -205 32.5t-160 101.5h-4q-34 -27 -76 -51t-90 -42.5 t-100 -29.5t-106 -11q-78 0 -142 21.5t-109.5 62t-70 98t-24.5 128.5zM326 294q0 -33 11.5 -57.5t31 -40.5t45.5 -24t55 -8q39 0 76 9.5t68.5 23.5t56.5 30.5t41 29.5q-26 72 -32 156q-34 8 -78.5 14.5t-86.5 6.5q-86 0 -137 -33.5t-51 -106.5zM922 599h381q0 43 -11.5 81 t-34 66.5t-56 45t-78.5 16.5t-80 -16.5t-60.5 -45t-40.5 -66.5t-20 -81zM521 968zM760 1124l119 349h230l-165 -349h-184z" />
<glyph unicode="&#x1fe;" horiz-adv-x="1504" d="M100 108l118 128q-58 87 -88 196t-30 237q0 153 43.5 280.5t127 219.5t205 143t276.5 51q121 0 221 -31.5t178 -89.5l112 121l141 -133l-119 -128q59 -88 89 -196.5t30 -236.5q0 -153 -43.5 -280.5t-127 -219.5t-205 -143t-276.5 -51q-121 0 -221.5 31t-178.5 89 l-111 -120zM353 669q0 -72 10 -132.5t30 -111.5l603 650q-50 41 -111.5 61t-132.5 20q-87 0 -160 -30t-126 -91t-83 -152.5t-30 -213.5zM507 263q50 -41 111.5 -61t133.5 -20q87 0 160 30.5t126 91t83 152t30 213.5q0 72 -10.5 132.5t-30.5 111.5zM487 1338zM665 1409 l138 247h240l-190 -247h-188z" />
<glyph unicode="&#x1ff;" horiz-adv-x="1134" d="M80 86l83 88q-41 63 -62 140.5t-21 169.5q0 114 34 208t97.5 161t153.5 103.5t201 36.5q87 0 159.5 -21.5t131.5 -61.5l78 83l119 -111l-83 -89q41 -63 62 -140.5t21 -168.5q0 -114 -34 -208t-97.5 -161t-153.5 -103.5t-201 -36.5q-88 0 -160.5 21t-130.5 61l-78 -82z M325 484q0 -35 3 -65.5t11 -57.5l368 391q-59 47 -141 47q-52 0 -96.5 -20t-76.5 -60t-50 -99t-18 -136zM426 216q59 -47 142 -47q53 0 97 20.5t76 60t50 98.5t18 136q0 67 -14 123zM231 968zM470 1124l119 349h230l-165 -349h-184z" />
<glyph unicode="&#x218;" horiz-adv-x="1182" d="M118 57v207q99 -43 193 -62.5t194 -19.5q58 0 114 9.5t100.5 32.5t71.5 62.5t27 97.5q0 51 -25 82.5t-68 51.5t-96.5 32.5t-112.5 24.5q-78 17 -149 40.5t-125 65t-86 105.5t-32 160q0 106 37 184.5t100.5 130t149 77t192.5 25.5t215 -21t186 -54v-210 q-104 41 -199.5 59.5t-179.5 18.5q-121 0 -186.5 -44t-65.5 -132q0 -51 21.5 -84t58.5 -54.5t85 -34.5t102 -24q85 -18 162.5 -41.5t137.5 -65.5t95 -109.5t35 -172.5q0 -108 -40 -187t-113.5 -130.5t-178.5 -76.5t-230 -25q-109 0 -214.5 21.5t-175.5 60.5zM485 -109 q18 1 35 1q104 0 166 -47t62 -139q0 -48 -20 -99.5t-55 -96.5h-179q30 42 50 80.5t20 70.5t-22 46.5t-57 14.5v169z" />
<glyph unicode="&#x219;" horiz-adv-x="868" d="M314 -109q18 1 35 1q104 0 166 -47t62 -139q0 -48 -20 -99.5t-55 -96.5h-179q30 42 50 80.5t20 70.5t-22 46.5t-57 14.5v169zM85 26v191q78 -29 144 -39.5t123 -10.5q44 0 82 6.5t65.5 20.5t43.5 35.5t16 51.5q0 31 -17.5 51t-46.5 33.5t-66.5 23.5t-78.5 20 q-52 14 -100 32.5t-84.5 48.5t-58 75.5t-21.5 111.5q0 81 29 140.5t78.5 98.5t115 58t138.5 19q89 0 167 -14.5t141 -37.5v-193q-33 11 -69.5 20.5t-74 16.5t-74.5 11.5t-70 4.5q-42 0 -71 -8t-47 -21.5t-26 -31t-8 -36.5q0 -33 17.5 -54t48.5 -34q31 -14 65 -22l66 -16 q50 -12 100 -29t90 -47.5t65.5 -79t25.5 -123.5q0 -82 -31 -143t-86.5 -101.5t-133 -60t-170.5 -19.5q-92 0 -165.5 14.5t-121.5 36.5z" />
<glyph unicode="&#x2c6;" horiz-adv-x="800" d="M0 969zM87 1124l210 349h206l210 -349h-185l-126 212h-4l-126 -212h-185z" />
<glyph unicode="&#x2c7;" horiz-adv-x="800" d="M0 969zM87 1473h185l126 -212h4l126 212h185l-210 -349h-206z" />
<glyph unicode="&#x2d8;" horiz-adv-x="800" d="M0 969zM59 1427h203q8 -88 43.5 -129.5t94.5 -41.5t94.5 41.5t43.5 129.5h203q-3 -73 -25.5 -135t-65 -107t-105 -70t-145.5 -25q-82 0 -145 25t-105.5 70t-65 107t-25.5 135z" />
<glyph unicode="&#x2d9;" horiz-adv-x="800" d="M0 969zM274 1191v257h249v-257h-249z" />
<glyph unicode="&#x2da;" horiz-adv-x="800" d="M0 969zM150 1295q0 48 19 86t52 64.5t79 40.5t100 14t100 -14t79 -40.5t52 -64.5t19 -86t-19 -86t-52 -64.5t-79 -40.5t-100 -14t-100 14t-79 40.5t-52 64.5t-19 86zM299 1295q0 -45 29 -68.5t72 -23.5t72 23.5t29 68.5t-29 68.5t-72 23.5t-72 -23.5t-29 -68.5z" />
<glyph unicode="&#x2db;" horiz-adv-x="800" d="M203 -301q0 85 59.5 169.5t162.5 160.5h214q-46 -33 -88.5 -69.5t-75.5 -74t-52.5 -73.5t-19.5 -67q0 -39 24.5 -54.5t57.5 -15.5q62 0 125 23v-162q-29 -10 -72 -18t-96 -8q-51 0 -94.5 11.5t-75.5 35t-50.5 59t-18.5 83.5z" />
<glyph unicode="&#x2dc;" horiz-adv-x="800" d="M0 969zM32 1187q0 43 7.5 80.5t30 70t58 50.5t83.5 18q41 0 78 -13.5t70 -30.5q35 -18 65 -33t53 -15q28 0 39.5 19t11.5 65h157q1 -13 1 -37q0 -29 -8 -69.5t-30 -71.5t-57.5 -49t-83.5 -18q-39 0 -76.5 13.5t-72.5 31.5q-37 19 -67 33t-50 14q-28 0 -39.5 -19 t-11.5 -65h-157q-1 20 -1 26z" />
<glyph unicode="&#x2dd;" horiz-adv-x="800" d="M0 969zM67 1124l119 349h230l-165 -349h-184zM367 1124l141 349h236l-187 -349h-190z" />
<glyph unicode="&#x300;" horiz-adv-x="0" d="M-926 969zM-698 1473h230l119 -349h-184z" />
<glyph unicode="&#x301;" horiz-adv-x="800" d="M-799 968zM-560 1124l119 349h230l-165 -349h-184z" />
<glyph unicode="&#x302;" horiz-adv-x="0" d="M-858 969zM-771 1124l210 349h206l210 -349h-185l-126 212h-4l-126 -212h-185z" />
<glyph unicode="&#x303;" horiz-adv-x="0" d="M-815 969zM-783 1187q0 43 7.5 80.5t30 70t58 50.5t83.5 18q41 0 78 -13.5t70 -30.5q35 -18 65 -33t53 -15q28 0 39.5 19t11.5 65h157q1 -13 1 -37q0 -29 -8 -69.5t-30 -71.5t-57.5 -49t-83.5 -18q-39 0 -76.5 13.5t-72.5 31.5q-37 19 -67 33t-50 14q-28 0 -39.5 -19 t-11.5 -65h-157q-1 20 -1 26z" />
<glyph unicode="&#x304;" horiz-adv-x="0" d="M-860 969zM-740 1171v167h560v-167h-560z" />
<glyph unicode="&#x306;" horiz-adv-x="0" d="M-843 969zM-784 1427h203q8 -88 43.5 -129.5t94.5 -41.5t94.5 41.5t43.5 129.5h203q-3 -73 -25.5 -135t-65 -107t-105 -70t-145.5 -25q-82 0 -145 25t-105.5 70t-65 107t-25.5 135z" />
<glyph unicode="&#x307;" horiz-adv-x="0" d="M-875 969zM-601 1191v257h249v-257h-249z" />
<glyph unicode="&#x308;" horiz-adv-x="0" d="M-856 969zM-770 1191v221h218v-221h-218zM-360 1191v221h218v-221h-218z" />
<glyph unicode="&#x309;" horiz-adv-x="566" d="M0 968zM93 1378v128q18 6 49 12.5t83 6.5q125 0 188.5 -42t63.5 -133q0 -38 -18 -67.5t-45.5 -51.5t-61.5 -36t-67 -20l-9 -50h-109l-22 147q32 1 59.5 5t47.5 11.5t31.5 20t11.5 30.5q0 17 -9.5 28t-24.5 17t-33 8.5t-34 2.5q-34 0 -59 -5.5t-42 -11.5z" />
<glyph unicode="&#x30a;" horiz-adv-x="0" d="M-871 969zM-721 1295q0 48 19 86t52 64.5t79 40.5t100 14t100 -14t79 -40.5t52 -64.5t19 -86t-19 -86t-52 -64.5t-79 -40.5t-100 -14t-100 14t-79 40.5t-52 64.5t-19 86zM-572 1295q0 -45 29 -68.5t72 -23.5t72 23.5t29 68.5t-29 68.5t-72 23.5t-72 -23.5t-29 -68.5z" />
<glyph unicode="&#x30b;" horiz-adv-x="0" d="M-824 969zM-757 1124l119 349h230l-165 -349h-184zM-457 1124l141 349h236l-187 -349h-190z" />
<glyph unicode="&#x30c;" horiz-adv-x="0" d="M-869 969zM-782 1473h185l126 -212h4l126 212h185l-210 -349h-206z" />
<glyph unicode="&#x312;" horiz-adv-x="0" d="M-725 1271q0 51 20 103t55 99h179q-29 -42 -49.5 -80.5t-20.5 -70.5t22 -46.5t57 -14.5v-169q-15 -1 -29 -1q-107 0 -170.5 45.5t-63.5 134.5zM0 969z" />
<glyph unicode="&#x315;" horiz-adv-x="190" d="M-43 1278v169q18 1 34 1q106 0 167.5 -46.5t61.5 -133.5q0 -51 -20 -103t-55 -99h-179q29 40 49.5 80t20.5 71q0 32 -22 46.5t-57 14.5zM0 969z" />
<glyph unicode="&#x323;" horiz-adv-x="564" d="M158 -141h249v-257h-249v257z" />
<glyph unicode="&#x326;" horiz-adv-x="800" d="M302 -109q18 1 35 1q104 0 166 -47t62 -139q0 -48 -20 -99.5t-55 -96.5h-179q30 42 50 80.5t20 70.5t-22 46.5t-57 14.5v169z" />
<glyph unicode="&#x327;" horiz-adv-x="0" d="M-594 -325q24 -8 61.5 -12.5t68.5 -4.5q39 0 64.5 6t40.5 15.5t21 20.5t6 22q0 31 -43.5 46t-136.5 17l67 224h150l-35 -127q40 -6 74 -19.5t59 -35t39 -50t14 -63.5q0 -42 -19.5 -79t-58.5 -65t-97 -44t-135 -16q-42 0 -80.5 5.5t-59.5 13.5v146z" />
<glyph unicode="&#x328;" horiz-adv-x="0" d="M-533 -301q0 85 59.5 169.5t162.5 160.5h214q-46 -33 -88.5 -69.5t-75.5 -74t-52.5 -73.5t-19.5 -67q0 -39 24.5 -54.5t57.5 -15.5q62 0 125 23v-162q-29 -10 -72 -18t-96 -8q-51 0 -94.5 11.5t-75.5 35t-50.5 59t-18.5 83.5z" />
<glyph unicode="&#x344;" horiz-adv-x="0" d="M-950 968zM-894 1191v201h198v-201h-198zM-658 1124l36 349h192l-70 -349h-158zM-404 1191v201h198v-201h-198z" />
<glyph unicode="&#x374;" horiz-adv-x="420" d="M-16 1022l189 375h238l-225 -375h-202z" />
<glyph unicode="&#x375;" horiz-adv-x="420" d="M-75 -375l225 375h202l-189 -375h-238z" />
<glyph unicode="&#x37e;" horiz-adv-x="546" d="M10 -411l192 678h277l-216 -678h-253zM193 633v267h269v-267h-269z" />
<glyph unicode="&#x384;" horiz-adv-x="800" d="M2 971zM211 1124l183 349h238l-219 -349h-202z" />
<glyph unicode="&#x385;" horiz-adv-x="800" d="M0 968zM56 1191v201h198v-201h-198zM292 1124l36 349h192l-70 -349h-158zM546 1191v201h198v-201h-198z" />
<glyph unicode="&#x386;" horiz-adv-x="1346" d="M30 0l531 1338h224l531 -1338h-259l-131 341h-504l-131 -341h-261zM53 959l87 379h221l-106 -379h-202zM501 546h346l-46 119q-55 142 -125 351h-4q-70 -210 -125 -351z" />
<glyph unicode="&#x387;" horiz-adv-x="599" d="M165 702v267h269v-267h-269z" />
<glyph unicode="&#x388;" horiz-adv-x="1395" d="M0 959l87 379h221l-106 -379h-202zM392 0v1338h867v-205h-622v-346h534v-205h-534v-377h658v-205h-903z" />
<glyph unicode="&#x389;" horiz-adv-x="1662" d="M0 959l87 379h221l-106 -379h-202zM392 0v1338h245v-551h620v551h245v-1338h-245v582h-620v-582h-245z" />
<glyph unicode="&#x38a;" horiz-adv-x="797" d="M0 959l87 379h221l-106 -379h-202zM392 0v1338h245v-1338h-245z" />
<glyph unicode="&#x38c;" horiz-adv-x="1701" d="M0 959l87 379h221l-106 -379h-202zM297 669q0 153 43.5 280.5t127 219.5t205 143t276.5 51t276.5 -51t205 -143t127 -219.5t43.5 -280.5t-43.5 -280.5t-127 -219.5t-205 -143t-276.5 -51t-276.5 51t-205 143t-127 219.5t-43.5 280.5zM550 669q0 -122 30 -213.5t83 -152 t126 -91t160 -30.5t160 30.5t126 91t83 152t30 213.5t-30 213.5t-83 152.5t-126 91t-160 30t-160 -30t-126 -91t-83 -152.5t-30 -213.5z" />
<glyph unicode="&#x38e;" horiz-adv-x="1596" d="M0 959l87 379h221l-106 -379h-202zM351 1338h287q124 -187 201 -343.5t117 -292.5h4q41 136 118 292.5t201 343.5h287q-109 -140 -187.5 -258.5t-132.5 -220.5t-86.5 -189.5t-50 -165t-23 -146.5t-5.5 -135v-223h-245v223q0 66 -5.5 135t-23 146.5t-50 165t-86.5 189.5 t-132.5 220.5t-187.5 258.5z" />
<glyph unicode="&#x38f;" horiz-adv-x="1741" d="M0 959l87 379h221l-106 -379h-202zM307 0v205h82q71 0 119.5 -2t79.5 -4v4q-53 41 -102.5 97.5t-88 126.5t-61.5 151.5t-23 171.5q0 131 44.5 243t128 194.5t204.5 129t274 46.5t274 -46.5t204.5 -127.5t128 -190t44.5 -235q0 -95 -22.5 -178t-60 -153.5t-87.5 -128 t-105 -101.5v-4q31 2 79.5 4t119.5 2h82v-205h-548v150q50 52 101 113.5t93 134t68.5 158t26.5 184.5q0 108 -32 186.5t-87 129.5t-127 75.5t-152 24.5t-152 -24.5t-127 -75.5t-87 -129.5t-32 -186.5q0 -99 26.5 -184.5t68.5 -158t93.5 -134t100.5 -113.5v-150h-548z" />
<glyph unicode="&#x390;" horiz-adv-x="580" d="M140 229v740h237v-713q0 -38 18.5 -53t58.5 -15q29 0 81 7v-196q-35 -7 -75.5 -10.5t-65.5 -3.5q-71 0 -119.5 16.5t-78.5 48t-43 76.5t-13 103zM-105 968zM-49 1191v201h198v-201h-198zM187 1124l36 349h192l-70 -349h-158zM441 1191v201h198v-201h-198z" />
<glyph unicode="&#x391;" horiz-adv-x="1346" d="M30 0l531 1338h224l531 -1338h-259l-131 341h-504l-131 -341h-261zM501 546h346l-46 119q-55 142 -125 351h-4q-70 -210 -125 -351z" />
<glyph unicode="&#x392;" horiz-adv-x="1276" d="M160 0v1338h465q149 0 240 -30q68 -22 118 -57.5t82.5 -79t48 -92t15.5 -97.5q0 -87 -39 -159.5t-129 -120.5v-4q50 -17 91.5 -43.5t71 -63t46 -82.5t16.5 -103q0 -49 -15.5 -105t-54.5 -108.5t-104 -96.5t-164 -70q-25 -6 -54.5 -11t-65.5 -8.5t-80 -5t-99 -1.5h-389z M405 205h160q64 0 110 3.5t79 11.5q51 11 85 29.5t55 42t30 52t9 60.5q0 56 -31 98t-97 63q-29 9 -68 13t-100 4h-232v-377zM405 787h221q100 0 149 20q55 23 78.5 63.5t23.5 91.5q0 53 -27 94.5t-92 61.5q-27 8 -63 11.5t-89 3.5h-201v-346z" />
<glyph unicode="&#x393;" horiz-adv-x="1116" d="M160 0v1338h906v-205h-661v-1133h-245z" />
<glyph unicode="&#x394;" horiz-adv-x="1318" d="M60 0v159l484 1179h230l484 -1179v-159h-1198zM339 205h642l-188 470q-72 181 -131 350h-4q-59 -169 -131 -350z" />
<glyph unicode="&#x395;" horiz-adv-x="1163" d="M160 0v1338h867v-205h-622v-346h534v-205h-534v-377h658v-205h-903z" />
<glyph unicode="&#x396;" horiz-adv-x="1231" d="M90 0v132l717 1001h-699v205h1024v-133l-716 -1000h725v-205h-1051z" />
<glyph unicode="&#x397;" horiz-adv-x="1430" d="M160 0v1338h245v-551h620v551h245v-1338h-245v582h-620v-582h-245z" />
<glyph unicode="&#x398;" horiz-adv-x="1504" d="M100 669q0 153 43.5 280.5t127 219.5t205 143t276.5 51t276.5 -51t205 -143t127 -219.5t43.5 -280.5t-43.5 -280.5t-127 -219.5t-205 -143t-276.5 -51t-276.5 51t-205 143t-127 219.5t-43.5 280.5zM353 669q0 -122 30 -213.5t83 -152t126 -91t160 -30.5t160 30.5t126 91 t83 152t30 213.5t-30 213.5t-83 152.5t-126 91t-160 30t-160 -30t-126 -91t-83 -152.5t-30 -213.5zM473 582v205h558v-205h-558z" />
<glyph unicode="&#x399;" horiz-adv-x="565" d="M160 0v1338h245v-1338h-245z" />
<glyph unicode="&#x39a;" horiz-adv-x="1294" d="M160 0v1338h245v-609h4l505 609h304l-558 -663l604 -675h-314l-541 604h-4v-604h-245z" />
<glyph unicode="&#x39b;" horiz-adv-x="1326" d="M30 0l523 1338h220l523 -1338h-259l-248 665q-86 235 -123 346h-4q-36 -111 -123 -346l-248 -665h-261z" />
<glyph unicode="&#x39c;" horiz-adv-x="1692" d="M160 0v1338h342l231 -637q58 -159 109 -342h6q44 158 109 339l231 640h344v-1338h-245v678q0 149 12 346h-9q-17 -57 -40 -128t-48 -140l-277 -756h-158l-277 756q-25 69 -48 140t-40 128h-9q12 -185 12 -345v-679h-245z" />
<glyph unicode="&#x39d;" horiz-adv-x="1490" d="M160 0v1338h257l440 -622q144 -205 234 -364h6q-12 261 -12 380v606h245v-1338h-257l-436 616q-115 160 -238 371h-6q12 -246 12 -381v-606h-245z" />
<glyph unicode="&#x39e;" horiz-adv-x="1221" d="M90 0v205h1041v-205h-1041zM125 1133v205h971v-205h-971zM196 582v205h829v-205h-829z" />
<glyph unicode="&#x39f;" horiz-adv-x="1504" d="M100 669q0 153 43.5 280.5t127 219.5t205 143t276.5 51t276.5 -51t205 -143t127 -219.5t43.5 -280.5t-43.5 -280.5t-127 -219.5t-205 -143t-276.5 -51t-276.5 51t-205 143t-127 219.5t-43.5 280.5zM353 669q0 -122 30 -213.5t83 -152t126 -91t160 -30.5t160 30.5t126 91 t83 152t30 213.5t-30 213.5t-83 152.5t-126 91t-160 30t-160 -30t-126 -91t-83 -152.5t-30 -213.5z" />
<glyph unicode="&#x3a0;" horiz-adv-x="1391" d="M160 0v1338h1071v-1338h-245v1133h-581v-1133h-245z" />
<glyph unicode="&#x3a1;" horiz-adv-x="1230" d="M160 0v1338h386q97 0 169.5 -8.5t129.5 -25.5q137 -42 211 -134t74 -234q0 -97 -40 -174.5t-117 -131.5t-188 -83t-255 -29q-33 0 -65 1t-60 4v-523h-245zM405 729q21 -3 53.5 -4.5t67.5 -1.5q99 0 166 16t108 44.5t59 69t18 88.5q0 59 -27 102t-94 67q-35 12 -86.5 17.5 t-126.5 5.5h-138v-404z" />
<glyph unicode="&#x3a3;" horiz-adv-x="1234" d="M90 0v159l524 550l-477 470v159h990v-205h-425q-121 0 -235 6v-4q60 -47 141 -130l291 -292l-351 -372q-98 -104 -143 -139v-4q153 7 254 7h475v-205h-1044z" />
<glyph unicode="&#x3a4;" horiz-adv-x="1168" d="M30 1133v205h1108v-205h-431v-1133h-245v1133h-432z" />
<glyph unicode="&#x3a5;" horiz-adv-x="1275" d="M30 1338h287q124 -187 201 -343.5t117 -292.5h4q41 136 118 292.5t201 343.5h287q-109 -140 -187.5 -258.5t-132.5 -220.5t-86.5 -189.5t-50 -165t-23 -146.5t-5.5 -135v-223h-245v223q0 66 -5.5 135t-23 146.5t-50 165t-86.5 189.5t-132.5 220.5t-187.5 258.5z" />
<glyph unicode="&#x3a6;" horiz-adv-x="1615" d="M100 679q0 120 40 224.5t115 185t183.5 132.5t246.5 67v147h245v-147q138 -15 246.5 -67t183.5 -132.5t115 -185t40 -224.5t-39 -224t-113.5 -184t-183.5 -132t-249 -68v-148h-245v148q-140 16 -249 68t-183.5 132t-113.5 184t-39 224zM349 679q0 -92 25 -163t70 -121.5 t106.5 -81t134.5 -41.5v815q-73 -10 -134.5 -41t-106.5 -82t-70 -122t-25 -163zM930 272q73 11 134.5 41.5t106.5 81t70 121.5t25 163t-25 163t-70 122t-106.5 82t-134.5 41v-815z" />
<glyph unicode="&#x3a7;" horiz-adv-x="1302" d="M20 0l486 680l-466 658h282l191 -275q97 -141 136 -202h5q54 84 135 201l191 276h282l-466 -658l486 -680h-278l-209 299q-77 110 -142 208h-4q-68 -102 -142 -208l-209 -299h-278z" />
<glyph unicode="&#x3a8;" horiz-adv-x="1511" d="M100 1177q0 38 1 78t3 83h243q-1 -34 -1.5 -65t-0.5 -61q0 -174 15.5 -289t50 -184.5t89 -101t133.5 -37.5v738h245v-738q79 6 133.5 37.5t89 101t50 184.5t15.5 289q0 30 -0.5 61t-1.5 65h243q2 -43 3 -83t1 -78q0 -202 -28 -347.5t-91.5 -241.5t-165 -145.5 t-248.5 -59.5v-383h-245v383q-147 10 -248.5 59.5t-165 145.5t-91.5 241.5t-28 347.5z" />
<glyph unicode="&#x3a9;" horiz-adv-x="1554" d="M120 0v205h82q71 0 119.5 -2t79.5 -4v4q-53 41 -102.5 97.5t-88 126.5t-61.5 151.5t-23 171.5q0 131 44.5 243t128 194.5t204.5 129t274 46.5t274 -46.5t204.5 -127.5t128 -190t44.5 -235q0 -95 -22.5 -178t-60 -153.5t-87.5 -128t-105 -101.5v-4q31 2 79.5 4t119.5 2h82 v-205h-548v150q50 52 101 113.5t93 134t68.5 158t26.5 184.5q0 108 -32 186.5t-87 129.5t-127 75.5t-152 24.5t-152 -24.5t-127 -75.5t-87 -129.5t-32 -186.5q0 -99 26.5 -184.5t68.5 -158t93.5 -134t100.5 -113.5v-150h-548z" />
<glyph unicode="&#x3aa;" horiz-adv-x="565" d="M160 0v1338h245v-1338h-245zM-95 1338zM-13 1448v225h224v-225h-224zM399 1448v225h224v-225h-224z" />
<glyph unicode="&#x3ab;" horiz-adv-x="1275" d="M30 1338h287q124 -187 201 -343.5t117 -292.5h4q41 136 118 292.5t201 343.5h287q-109 -140 -187.5 -258.5t-132.5 -220.5t-86.5 -189.5t-50 -165t-23 -146.5t-5.5 -135v-223h-245v223q0 66 -5.5 135t-23 146.5t-50 165t-86.5 189.5t-132.5 220.5t-187.5 258.5zM253 1338 zM335 1448v225h224v-225h-224zM747 1448v225h224v-225h-224z" />
<glyph unicode="&#x3ac;" horiz-adv-x="1195" d="M80 469q0 130 32 228t86.5 164t127 99t154.5 33q122 0 204 -65t118 -184h4q20 81 39.5 142t27.5 83h233q-19 -42 -45 -100.5t-52.5 -124t-51 -132.5t-41.5 -127q9 -84 21 -141t31 -91.5t46 -49.5t64 -15q40 0 72 8v-197q-23 -6 -53.5 -9.5t-59.5 -3.5q-50 0 -91.5 17.5 t-72.5 48t-51.5 72t-29.5 88.5h-4q-20 -48 -51 -91.5t-72.5 -75.5t-93.5 -51t-114 -19q-80 0 -149 32t-119.5 94.5t-79.5 155t-29 212.5zM325 478q0 -53 9 -107t29.5 -98t53.5 -71.5t80 -27.5q50 0 88.5 32t66.5 80.5t44.5 107t23.5 111.5q-12 52 -31 103.5t-45.5 93 t-60.5 67t-76 25.5q-40 0 -73.5 -20.5t-57.5 -60t-37.5 -98.5t-13.5 -137zM250 971zM459 1124l183 349h238l-219 -349h-202z" />
<glyph unicode="&#x3ad;" horiz-adv-x="984" d="M95 273q0 88 49 146t129 84v4q-65 23 -105.5 75.5t-40.5 128.5q0 63 29.5 115t84 89t131.5 57.5t172 20.5q79 0 168 -11.5t167 -31.5v-190q-94 22 -171 31.5t-138 9.5q-95 0 -146 -29t-51 -82q0 -21 8 -39.5t28.5 -33t55 -23t89.5 -8.5q46 0 91 1.5t112 8.5v-197 q-39 3 -97.5 6t-118.5 3q-200 0 -200 -115q0 -58 49 -92t149 -34q98 0 196 24.5t179 59.5v-194q-33 -16 -78.5 -31t-98 -26t-110 -18t-113.5 -7q-106 0 -185 22.5t-131 62.5t-77.5 94.5t-25.5 118.5zM255 971zM464 1124l183 349h238l-219 -349h-202z" />
<glyph unicode="&#x3ae;" horiz-adv-x="1202" d="M40 776v191q72 17 127 17q92 0 143.5 -38.5t71.5 -118.5h4q25 32 57.5 62t73.5 53t92 37t112 14q38 0 81.5 -7.5t84.5 -27.5t76.5 -54.5t58.5 -88.5q15 -35 22.5 -84t7.5 -118v-1078h-237v1049q0 42 -3.5 72.5t-11.5 50.5q-19 47 -57.5 67t-89.5 20q-65 0 -128.5 -39.5 t-115.5 -111.5v-643h-237v712q0 36 -14.5 54.5t-50.5 18.5q-25 0 -67 -9zM370 971zM579 1124l183 349h238l-219 -349h-202z" />
<glyph unicode="&#x3af;" horiz-adv-x="580" d="M140 229v740h237v-713q0 -38 18.5 -53t58.5 -15q29 0 81 7v-196q-35 -7 -75.5 -10.5t-65.5 -3.5q-71 0 -119.5 16.5t-78.5 48t-43 76.5t-13 103zM-46 971zM163 1124l183 349h238l-219 -349h-202z" />
<glyph unicode="&#x3b0;" horiz-adv-x="1125" d="M155 968zM211 1191v201h198v-201h-198zM447 1124l36 349h192l-70 -349h-158zM701 1191v201h198v-201h-198zM45 763v204q30 7 64 12t63 5q46 0 83.5 -11.5t64.5 -37t41.5 -67.5t14.5 -103q0 -30 -2.5 -70.5t-5 -86t-5 -93t-2.5 -90.5q0 -121 50.5 -188.5t153.5 -67.5 q51 0 92.5 19.5t71 60t45.5 103t16 148.5q0 48 -8 104t-22.5 116t-34 123t-43.5 126h244q18 -43 37.5 -99t35.5 -118t26 -128t10 -129q0 -118 -29.5 -214t-88 -164t-147 -105t-207.5 -37q-105 0 -187.5 29t-140.5 84t-88.5 135.5t-30.5 183.5q0 45 3.5 90.5t7 86.5t7 77 t3.5 62q0 24 -12 36.5t-32 12.5q-18 0 -48 -9z" />
<glyph unicode="&#x3b1;" horiz-adv-x="1195" d="M80 469q0 130 32 228t86.5 164t127 99t154.5 33q122 0 204 -65t118 -184h4q20 81 39.5 142t27.5 83h233q-19 -42 -45 -100.5t-52.5 -124t-51 -132.5t-41.5 -127q9 -84 21 -141t31 -91.5t46 -49.5t64 -15q40 0 72 8v-197q-23 -6 -53.5 -9.5t-59.5 -3.5q-50 0 -91.5 17.5 t-72.5 48t-51.5 72t-29.5 88.5h-4q-20 -48 -51 -91.5t-72.5 -75.5t-93.5 -51t-114 -19q-80 0 -149 32t-119.5 94.5t-79.5 155t-29 212.5zM325 478q0 -53 9 -107t29.5 -98t53.5 -71.5t80 -27.5q50 0 88.5 32t66.5 80.5t44.5 107t23.5 111.5q-12 52 -31 103.5t-45.5 93 t-60.5 67t-76 25.5q-40 0 -73.5 -20.5t-57.5 -60t-37.5 -98.5t-13.5 -137z" />
<glyph unicode="&#x3b2;" horiz-adv-x="1177" d="M150 -465v1487q0 66 6 112.5t20 84.5q23 63 62.5 110.5t91.5 79.5t114.5 48t132.5 16q90 0 168.5 -25.5t136.5 -75t91.5 -122t33.5 -165.5q0 -48 -10.5 -94t-31.5 -86t-54 -72.5t-78 -53.5v-4q123 -37 186 -129.5t63 -224.5q0 -94 -30 -175.5t-86.5 -142t-137.5 -94.5 t-179 -34q-73 0 -138 21t-125 74h-4q2 -67 2.5 -108.5t0.5 -101.5v-325h-235zM385 266q48 -46 102 -69.5t118 -23.5q61 0 105 18.5t72 51t41.5 77t13.5 95.5q0 66 -18.5 113.5t-52.5 77.5t-80.5 44t-103.5 14q-15 0 -36 -1t-45 -4v202q17 -3 35.5 -4t35.5 -1q55 0 91.5 19 t58.5 51t31 73.5t9 85.5q0 43 -12.5 78.5t-36 61t-57.5 40t-78 14.5q-30 0 -58 -7.5t-52 -23.5t-42 -41.5t-29 -62.5q-6 -21 -9 -49t-3 -68v-761z" />
<glyph unicode="&#x3b3;" horiz-adv-x="1073" d="M30 969h259q41 -68 82.5 -161.5t77 -195t61.5 -203.5t35 -188h4q36 71 71.5 157t66.5 182t56 199.5t40 209.5h250q-23 -150 -69 -297.5t-104.5 -284t-124 -258t-128.5 -218.5q10 -168 10 -295v-81h-276q28 166 28 302q0 141 -28 290t-75 296t-108 286t-128 260z" />
<glyph unicode="&#x3b4;" horiz-adv-x="1132" d="M80 426q0 95 30.5 173.5t83 141t121.5 109.5t147 79v4q-41 31 -76 65t-60.5 71.5t-40 78t-14.5 84.5q0 55 22.5 99.5t64 76t99.5 48.5t130 17q59 0 119 -7.5t117 -19.5t110 -27t98 -31v-204q-115 42 -222 70.5t-198 28.5q-57 0 -79.5 -18.5t-22.5 -43.5q0 -28 26 -58.5 t67.5 -65.5t94 -75.5t105.5 -89.5q48 -44 93 -95t80 -111.5t56 -130.5t21 -152q0 -103 -36 -189.5t-101.5 -148t-157.5 -96t-205 -34.5q-106 0 -193 33.5t-149 93t-96 142.5t-34 182zM324 431q0 -55 17.5 -103t48.5 -83.5t75 -55.5t96 -20q116 0 181 70t65 204 q0 56 -14 104.5t-38 91.5t-56.5 81.5t-70.5 72.5q-63 -22 -118.5 -52.5t-97 -74t-65 -101.5t-23.5 -134z" />
<glyph unicode="&#x3b5;" horiz-adv-x="984" d="M95 273q0 88 49 146t129 84v4q-65 23 -105.5 75.5t-40.5 128.5q0 63 29.5 115t84 89t131.5 57.5t172 20.5q79 0 168 -11.5t167 -31.5v-190q-94 22 -171 31.5t-138 9.5q-95 0 -146 -29t-51 -82q0 -21 8 -39.5t28.5 -33t55 -23t89.5 -8.5q46 0 91 1.5t112 8.5v-197 q-39 3 -97.5 6t-118.5 3q-200 0 -200 -115q0 -58 49 -92t149 -34q98 0 196 24.5t179 59.5v-194q-33 -16 -78.5 -31t-98 -26t-110 -18t-113.5 -7q-106 0 -185 22.5t-131 62.5t-77.5 94.5t-25.5 118.5z" />
<glyph unicode="&#x3b6;" horiz-adv-x="950" d="M80 479q0 122 39.5 234t112.5 212.5t176.5 188.5t230.5 163v4q-210 -38 -451 -56v205q137 0 360 11t382 33v-162q-119 -72 -228.5 -164t-193.5 -194.5t-134 -217t-50 -227.5q0 -74 25 -121.5t65.5 -77t95 -48t111.5 -33.5q60 -15 118 -32t104 -46.5t74 -77.5t28 -126 q0 -70 -32.5 -163t-91.5 -185h-251q64 96 94.5 168.5t30.5 120.5q0 41 -26.5 67t-71 42.5t-99.5 29.5t-115 32q-57 18 -111.5 47t-97 77t-68.5 119.5t-26 176.5z" />
<glyph unicode="&#x3b7;" horiz-adv-x="1202" d="M40 776v191q72 17 127 17q92 0 143.5 -38.5t71.5 -118.5h4q25 32 57.5 62t73.5 53t92 37t112 14q38 0 81.5 -7.5t84.5 -27.5t76.5 -54.5t58.5 -88.5q15 -35 22.5 -84t7.5 -118v-1078h-237v1049q0 42 -3.5 72.5t-11.5 50.5q-19 47 -57.5 67t-89.5 20q-65 0 -128.5 -39.5 t-115.5 -111.5v-643h-237v712q0 36 -14.5 54.5t-50.5 18.5q-25 0 -67 -9z" />
<glyph unicode="&#x3b8;" horiz-adv-x="1170" d="M100 714q0 188 32.5 330t94.5 237.5t152 143.5t205 48q118 0 209 -45t152.5 -136.5t93 -230.5t31.5 -328q0 -188 -32.5 -330t-94.5 -237t-152 -143t-205 -48q-118 0 -209 44.5t-152.5 136t-93 230.5t-31.5 328zM347 647q5 -249 64 -363.5t174 -114.5q112 0 171 117 t66 361h-475zM349 842h472q-4 114 -21 197t-46.5 136t-71.5 78.5t-97 25.5q-107 0 -166 -107t-70 -330z" />
<glyph unicode="&#x3b9;" horiz-adv-x="580" d="M140 229v740h237v-713q0 -38 18.5 -53t58.5 -15q29 0 81 7v-196q-35 -7 -75.5 -10.5t-65.5 -3.5q-71 0 -119.5 16.5t-78.5 48t-43 76.5t-13 103z" />
<glyph unicode="&#x3ba;" horiz-adv-x="1117" d="M130 0v969h237v-380h4l250 222q62 56 109 91t91.5 55.5t93.5 28t116 7.5v-203q-40 0 -72.5 -7t-64.5 -23.5t-67 -43t-81 -66.5l-108 -94l469 -556h-294l-341 411l-105 -91v-320h-237z" />
<glyph unicode="&#x3bb;" horiz-adv-x="1070" d="M30 0l412 943q-61 176 -98.5 233.5t-72.5 79t-84 21.5q-23 0 -48.5 -4t-47.5 -11v188q33 11 71 17t80 6q81 0 140.5 -25t106.5 -79t86.5 -136t82.5 -198l382 -1035h-252l-134 391q-65 191 -91 284h-4q-33 -93 -110 -284l-160 -391h-259z" />
<glyph unicode="&#x3bc;" horiz-adv-x="1235" d="M150 -465v1434h237v-523q0 -41 2.5 -72.5t9.5 -54.5q20 -69 65.5 -102.5t114.5 -33.5q72 0 127 35t82 106q11 30 16.5 71.5t5.5 99.5v474h237v-619q0 -38 3.5 -68t14 -50.5t29 -31.5t48.5 -11q25 0 48 5v-196q-24 -6 -55 -9t-52 -3q-88 0 -139 47t-65 129h-4 q-25 -51 -57.5 -86.5t-70 -58t-78 -32.5t-82.5 -10q-30 0 -61.5 7t-60 20.5t-52.5 34.5t-39 49h-5q2 -20 5 -53.5t6 -76.5t5 -94t2 -105v-222h-237z" />
<glyph unicode="&#x3bd;" horiz-adv-x="1024" d="M30 969h250l145 -422q18 -52 31.5 -92t23.5 -71.5t17.5 -56.5t13.5 -47h4q39 50 73.5 119.5t61 151.5t42 175t15.5 185q0 9 -0.5 25t-1.5 33h253v-22q0 -158 -31 -289.5t-84.5 -245.5t-125 -214.5t-151.5 -197.5h-189z" />
<glyph unicode="&#x3be;" horiz-adv-x="953" d="M100 356q0 73 23 131t64.5 104t97.5 80.5t122 59.5v4q-109 24 -165 76.5t-56 138.5q0 114 91.5 199t277.5 154v4q-246 -39 -373 -48v192q112 0 315 4.5t427 17.5v-172q-112 -28 -203.5 -60.5t-155.5 -70.5t-99 -82t-35 -96q0 -42 16 -70.5t52 -46.5t95 -25.5t145 -7.5 q56 0 123 3v-190h-37q-105 0 -193.5 -16.5t-152 -49.5t-99.5 -82t-36 -114q0 -49 25 -79t62 -47.5t93 -30t111 -23.5q58 -12 114 -28t100.5 -46t71.5 -78.5t27 -124.5q0 -40 -11 -87.5t-28.5 -91t-38.5 -84t-42 -74.5h-252q47 70 84.5 152.5t37.5 136.5q0 46 -24 70.5 t-63 40t-88 25.5t-106 22q-58 13 -115 32t-102 53t-72.5 88t-27.5 137z" />
<glyph unicode="&#x3bf;" horiz-adv-x="1134" d="M80 484q0 114 34 208t97.5 161t153.5 103.5t201 36.5q114 0 204.5 -36.5t153.5 -103.5t96.5 -161t33.5 -208t-34 -208t-97.5 -161t-153.5 -103.5t-201 -36.5q-114 0 -204.5 36.5t-153.5 103.5t-96.5 161t-33.5 208zM325 484q0 -77 18 -136t50.5 -98.5t77 -60t97.5 -20.5 t97 20.5t76 60t50 98.5t18 136t-18 136t-50 99t-77 60t-98 20q-52 0 -96.5 -20t-76.5 -60t-50 -99t-18 -136z" />
<glyph unicode="&#x3c0;" horiz-adv-x="1246" d="M45 766v203h1156v-203h-189v-510q0 -38 18.5 -53t58.5 -15q32 0 81 7v-196q-36 -7 -76 -10.5t-65 -3.5q-71 0 -119.5 16.5t-78.5 48t-43 76.5t-13 103v537h-305v-766h-237v766h-188z" />
<glyph unicode="&#x3c1;" horiz-adv-x="1158" d="M150 450q0 75 5.5 132t18.5 102q28 96 77 156t109.5 94t126.5 46.5t126 12.5q111 0 198.5 -38t146.5 -105.5t89.5 -159t30.5 -199.5q0 -124 -35.5 -220.5t-96 -162t-141 -99.5t-170.5 -34q-89 0 -147.5 28.5t-99.5 70.5h-4q3 -93 3 -170v-369h-237v915zM387 269 q35 -43 90 -71.5t122 -28.5q47 0 89 16.5t74.5 54.5t51.5 100t19 153q0 76 -17 134.5t-47 98.5t-70.5 60.5t-88.5 20.5q-34 0 -65 -9.5t-58 -30.5t-48 -54.5t-34 -80.5q-10 -35 -14 -82t-4 -107v-174z" />
<glyph unicode="&#x3c2;" horiz-adv-x="885" d="M80 480q0 135 41 234t109.5 161t153.5 90t170 28q148 0 263 -49v-194q-58 23 -114 36t-116 13q-48 0 -95 -16t-84 -52t-60 -94t-23 -142q0 -70 22 -117.5t58 -79t81.5 -51.5t93.5 -38t93.5 -37.5t81.5 -50t58 -78t22 -114.5q0 -80 -33.5 -166t-85.5 -164h-255 q66 91 95 164t29 120q0 42 -21.5 69.5t-58 47t-81 35t-92 36t-93.5 51.5t-81 77t-56.5 115.5t-21.5 165.5z" />
<glyph unicode="&#x3c3;" horiz-adv-x="1183" d="M80 472q0 155 67.5 270t195.5 174q28 13 59 23t68.5 16.5t83 10t101.5 3.5h488v-195h-123q-57 0 -120 3v-4q28 -25 53 -59t44 -75t30 -89t11 -102q0 -99 -31 -185t-92 -150t-151 -101t-209 -37q-111 0 -199 36.5t-149.5 102t-94 157t-32.5 201.5zM325 464 q0 -71 18.5 -126t50 -92.5t75 -57t92.5 -19.5q108 0 170 76t62 215q0 56 -12.5 103t-33 86t-46.5 70t-52 55h-41q-84 0 -137 -26t-85.5 -69t-46.5 -99t-14 -116z" />
<glyph unicode="&#x3c4;" horiz-adv-x="922" d="M45 766v203h832v-203h-341v-502q0 -49 27.5 -69.5t81.5 -20.5q32 0 71 5t62 10v-192q-43 -11 -96 -16.5t-92 -5.5q-151 0 -221 66t-70 206v519h-254z" />
<glyph unicode="&#x3c5;" horiz-adv-x="1125" d="M45 763v204q30 7 64 12t63 5q46 0 83.5 -11.5t64.5 -37t41.5 -67.5t14.5 -103q0 -30 -2.5 -70.5t-5 -86t-5 -93t-2.5 -90.5q0 -121 50.5 -188.5t153.5 -67.5q51 0 92.5 19.5t71 60t45.5 103t16 148.5q0 48 -8 104t-22.5 116t-34 123t-43.5 126h244q18 -43 37.5 -99 t35.5 -118t26 -128t10 -129q0 -118 -29.5 -214t-88 -164t-147 -105t-207.5 -37q-105 0 -187.5 29t-140.5 84t-88.5 135.5t-30.5 183.5q0 45 3.5 90.5t7 86.5t7 77t3.5 62q0 24 -12 36.5t-32 12.5q-18 0 -48 -9z" />
<glyph unicode="&#x3c6;" horiz-adv-x="1431" d="M80 485q0 101 36.5 190.5t104.5 159.5t164 115.5t214 57.5v440h233v-440q119 -12 214.5 -57.5t163.5 -115.5t104.5 -159.5t36.5 -190.5t-37 -190.5t-105.5 -158.5t-164 -113t-212.5 -56v-432h-233v432q-117 12 -212.5 56t-164 113t-105.5 158.5t-37 190.5zM325 485 q0 -66 20 -121t56.5 -96t87 -68t110.5 -38v651q-60 -10 -110.5 -38t-87 -70.5t-56.5 -98t-20 -121.5zM832 162q60 11 110.5 38t87 68t56.5 96t20 121t-20 121.5t-56.5 98t-87 70.5t-110.5 38v-651z" />
<glyph unicode="&#x3c7;" horiz-adv-x="1083" d="M-60 -465l443 741q-34 150 -60 250t-54 160t-64 85.5t-90 25.5q-27 0 -60 -7v186q51 17 113 17q75 0 135.5 -27.5t107 -87t80.5 -152t56 -223.5h4q33 69 66 131.5t63 113.5l128 221h255l-439 -734q32 -145 62 -245t63 -162t72 -89t89 -27q36 0 74 7v-186q-26 -9 -56 -13 t-56 -4q-76 0 -139.5 22.5t-114 79t-89.5 152.5t-67 242h-4q-13 -27 -29.5 -60t-35.5 -68.5t-38.5 -70.5t-37.5 -67l-122 -211h-255z" />
<glyph unicode="&#x3c8;" horiz-adv-x="1503" d="M95 876q0 20 1 93h241q-1 -92 -1 -108q0 -190 16.5 -319t52 -209t92 -118.5t136.5 -47.5v1113h237v-1113q80 9 136.5 47.5t92 118.5t52 209t16.5 319q0 53 -1 108h241q1 -59 1 -93q0 -162 -11.5 -289t-37 -224.5t-66.5 -167.5t-101 -116.5t-139.5 -72t-182.5 -34.5v-437 h-237v437q-103 9 -182.5 34.5t-139.5 72t-101 116.5t-66.5 167.5t-37 224.5t-11.5 289z" />
<glyph unicode="&#x3c9;" horiz-adv-x="1572" d="M95 448q0 84 11.5 157t31.5 136.5t46.5 120t57.5 107.5h250q-33 -60 -61 -119.5t-48.5 -122t-31.5 -129t-11 -140.5q0 -59 8.5 -111.5t27 -92t47.5 -62.5t70 -23q37 0 69 19t55.5 58.5t37 100t13.5 142.5q0 42 -1.5 99.5t-5.5 114.5h250q-4 -57 -5.5 -114.5t-1.5 -99.5 q0 -82 13.5 -142.5t37 -100t55.5 -58.5t69 -19q41 0 70 23t47.5 62.5t27 92t8.5 111.5q0 74 -11 140.5t-31.5 129t-48.5 122t-61 119.5h250q31 -51 57.5 -107.5t46.5 -120t31.5 -136.5t11.5 -157q0 -110 -26.5 -197.5t-76 -149t-120 -94t-157.5 -32.5q-78 0 -132 23.5 t-90 59.5t-56 78.5t-31 80.5h-4q-10 -38 -30.5 -80.5t-56.5 -78.5t-90 -59.5t-132 -23.5q-87 0 -157 32.5t-119.5 94t-76.5 149t-27 197.5z" />
<glyph unicode="&#x3ca;" horiz-adv-x="580" d="M140 229v740h237v-713q0 -38 18.5 -53t58.5 -15q29 0 81 7v-196q-35 -7 -75.5 -10.5t-65.5 -3.5q-71 0 -119.5 16.5t-78.5 48t-43 76.5t-13 103zM-134 969zM-48 1191v221h218v-221h-218zM362 1191v221h218v-221h-218z" />
<glyph unicode="&#x3cb;" horiz-adv-x="1125" d="M154 969zM240 1191v221h218v-221h-218zM650 1191v221h218v-221h-218zM45 763v204q30 7 64 12t63 5q46 0 83.5 -11.5t64.5 -37t41.5 -67.5t14.5 -103q0 -30 -2.5 -70.5t-5 -86t-5 -93t-2.5 -90.5q0 -121 50.5 -188.5t153.5 -67.5q51 0 92.5 19.5t71 60t45.5 103t16 148.5 q0 48 -8 104t-22.5 116t-34 123t-43.5 126h244q18 -43 37.5 -99t35.5 -118t26 -128t10 -129q0 -118 -29.5 -214t-88 -164t-147 -105t-207.5 -37q-105 0 -187.5 29t-140.5 84t-88.5 135.5t-30.5 183.5q0 45 3.5 90.5t7 86.5t7 77t3.5 62q0 24 -12 36.5t-32 12.5q-18 0 -48 -9 z" />
<glyph unicode="&#x3cc;" horiz-adv-x="1134" d="M80 484q0 114 34 208t97.5 161t153.5 103.5t201 36.5q114 0 204.5 -36.5t153.5 -103.5t96.5 -161t33.5 -208t-34 -208t-97.5 -161t-153.5 -103.5t-201 -36.5q-114 0 -204.5 36.5t-153.5 103.5t-96.5 161t-33.5 208zM325 484q0 -77 18 -136t50.5 -98.5t77 -60t97.5 -20.5 t97 20.5t76 60t50 98.5t18 136t-18 136t-50 99t-77 60t-98 20q-52 0 -96.5 -20t-76.5 -60t-50 -99t-18 -136zM265 971zM474 1124l183 349h238l-219 -349h-202z" />
<glyph unicode="&#x3cd;" horiz-adv-x="1125" d="M239 971zM448 1124l183 349h238l-219 -349h-202zM45 763v204q30 7 64 12t63 5q46 0 83.5 -11.5t64.5 -37t41.5 -67.5t14.5 -103q0 -30 -2.5 -70.5t-5 -86t-5 -93t-2.5 -90.5q0 -121 50.5 -188.5t153.5 -67.5q51 0 92.5 19.5t71 60t45.5 103t16 148.5q0 48 -8 104 t-22.5 116t-34 123t-43.5 126h244q18 -43 37.5 -99t35.5 -118t26 -128t10 -129q0 -118 -29.5 -214t-88 -164t-147 -105t-207.5 -37q-105 0 -187.5 29t-140.5 84t-88.5 135.5t-30.5 183.5q0 45 3.5 90.5t7 86.5t7 77t3.5 62q0 24 -12 36.5t-32 12.5q-18 0 -48 -9z" />
<glyph unicode="&#x3ce;" horiz-adv-x="1572" d="M95 448q0 84 11.5 157t31.5 136.5t46.5 120t57.5 107.5h250q-33 -60 -61 -119.5t-48.5 -122t-31.5 -129t-11 -140.5q0 -59 8.5 -111.5t27 -92t47.5 -62.5t70 -23q37 0 69 19t55.5 58.5t37 100t13.5 142.5q0 42 -1.5 99.5t-5.5 114.5h250q-4 -57 -5.5 -114.5t-1.5 -99.5 q0 -82 13.5 -142.5t37 -100t55.5 -58.5t69 -19q41 0 70 23t47.5 62.5t27 92t8.5 111.5q0 74 -11 140.5t-31.5 129t-48.5 122t-61 119.5h250q31 -51 57.5 -107.5t46.5 -120t31.5 -136.5t11.5 -157q0 -110 -26.5 -197.5t-76 -149t-120 -94t-157.5 -32.5q-78 0 -132 23.5 t-90 59.5t-56 78.5t-31 80.5h-4q-10 -38 -30.5 -80.5t-56.5 -78.5t-90 -59.5t-132 -23.5q-87 0 -157 32.5t-119.5 94t-76.5 149t-27 197.5zM476 971zM685 1124l183 349h238l-219 -349h-202z" />
<glyph unicode="&#x3de;" horiz-adv-x="1140" d="M100 582v132l332 624h255l-302 -551h655v-132l-347 -655h-260l317 582h-650z" />
<glyph unicode="&#x3df;" horiz-adv-x="1033" d="M80 168v134l353 667h254l-322 -606h588v-135l-366 -693h-257l337 633h-587z" />
<glyph unicode="&#x3e0;" horiz-adv-x="1134" d="M40 1111v208q50 18 125.5 31t160.5 13q164 0 295.5 -52.5t223.5 -146.5t141 -225t49 -287q0 -110 -16 -202t-46 -171t-74 -147.5t-100 -131.5h-279q62 69 108.5 133t78.5 131.5t50 143t23 166.5l-297 -172l-93 161l381 220q-8 39 -19 72.5t-26 63.5l-404 -234l-93 161 l377 218q-60 46 -134 69t-158 23q-72 0 -143 -12.5t-131 -32.5z" />
<glyph unicode="&#x3e1;" horiz-adv-x="1125" d="M40 1232v196q23 9 55 17.5t69.5 14.5t78.5 9.5t83 3.5q169 0 302.5 -59t226 -166.5t141.5 -258t49 -333.5q0 -188 -27.5 -343t-78 -289t-120.5 -253t-155 -236h-281q93 131 167.5 251.5t128 244.5t84 259t36.5 295l-316 -183l-93 161l401 232q-10 76 -32 143l-437 -253 l-93 161l445 257q-67 88 -159 132t-201 44q-72 0 -143 -13.5t-131 -33.5z" />
<glyph unicode="&#x400;" horiz-adv-x="1163" d="M160 0v1338h867v-205h-622v-346h534v-205h-534v-377h658v-205h-903zM180 1338zM346 1656h240l138 -247h-188z" />
<glyph unicode="&#x401;" horiz-adv-x="1163" d="M160 0v1338h867v-205h-622v-346h534v-205h-534v-377h658v-205h-903zM206 1338zM288 1448v225h224v-225h-224zM700 1448v225h224v-225h-224z" />
<glyph unicode="&#x402;" horiz-adv-x="1561" d="M30 1133v205h1180v-205h-516v-316q87 9 168 9q77 0 142 -6t128 -20q173 -40 256 -137t83 -242q0 -88 -30 -167.5t-93.5 -139t-163 -94.5t-239.5 -35q-30 0 -64 2v205q26 -2 51 -2q138 0 212 53.5t74 159.5q0 81 -40.5 128t-116.5 68q-43 12 -95 16t-115 4q-74 0 -157 -10 v-609h-245v1133h-419z" />
<glyph unicode="&#x403;" horiz-adv-x="1096" d="M160 0v1338h906v-205h-661v-1133h-245zM342 1338zM520 1409l138 247h240l-190 -247h-188z" />
<glyph unicode="&#x404;" horiz-adv-x="1237" d="M100 655q0 151 47 280.5t136.5 224.5t218.5 149t294 54q88 0 168 -11.5t141 -32.5v-208q-79 25 -154.5 35t-132.5 10q-90 0 -168 -24t-138 -70.5t-99 -115.5t-53 -159h667v-205h-674q6 -100 40 -175t92.5 -125t139 -75t178.5 -25q66 0 154 11.5t160 35.5v-211 q-70 -20 -158.5 -31.5t-171.5 -11.5q-171 0 -300 48.5t-215 137.5t-129 214.5t-43 279.5z" />
<glyph unicode="&#x405;" horiz-adv-x="1182" d="M118 57v207q99 -43 193 -62.5t194 -19.5q58 0 114 9.5t100.5 32.5t71.5 62.5t27 97.5q0 51 -25 82.5t-68 51.5t-96.5 32.5t-112.5 24.5q-78 17 -149 40.5t-125 65t-86 105.5t-32 160q0 106 37 184.5t100.5 130t149 77t192.5 25.5t215 -21t186 -54v-210 q-104 41 -199.5 59.5t-179.5 18.5q-121 0 -186.5 -44t-65.5 -132q0 -51 21.5 -84t58.5 -54.5t85 -34.5t102 -24q85 -18 162.5 -41.5t137.5 -65.5t95 -109.5t35 -172.5q0 -108 -40 -187t-113.5 -130.5t-178.5 -76.5t-230 -25q-109 0 -214.5 21.5t-175.5 60.5z" />
<glyph unicode="&#x406;" horiz-adv-x="565" d="M160 0v1338h245v-1338h-245z" />
<glyph unicode="&#x407;" horiz-adv-x="565" d="M160 0v1338h245v-1338h-245zM-110 1338zM-28 1448v225h224v-225h-224zM384 1448v225h224v-225h-224z" />
<glyph unicode="&#x408;" horiz-adv-x="824" d="M50 11v209q44 -18 94 -28t99 -10q95 0 138 44t43 130v982h245v-989q0 -66 -9.5 -113.5t-28.5 -83.5q-25 -48 -63 -81.5t-86 -55t-103 -31t-114 -9.5q-61 0 -118.5 10t-96.5 26z" />
<glyph unicode="&#x409;" horiz-adv-x="2051" d="M30 -2v219q35 -9 71 -9q35 0 65 10.5t61 45.5t63.5 107t66 197.5t67.5 313.5t68 456h713v-519q83 7 153 7q67 0 126 -4.5t114 -15.5q95 -19 163.5 -53.5t112.5 -82.5t65.5 -109.5t21.5 -134.5q0 -65 -19.5 -123.5t-58.5 -108t-98 -88.5t-138 -65q-65 -21 -157.5 -31 t-191.5 -10h-338v1133h-267q-33 -237 -68 -414.5t-74 -305t-83 -210t-95 -131t-110 -67.5t-128 -19q-60 0 -105 12zM1205 205h120q30 0 63 1.5t64.5 5.5t61 9.5t52.5 14.5q65 24 103.5 68.5t38.5 112.5t-37 114t-126 69q-38 10 -88 14.5t-110 4.5q-63 0 -142 -8v-406z" />
<glyph unicode="&#x40a;" horiz-adv-x="2019" d="M160 0v1338h245v-520h532v520h245v-520h143q93 0 165 -7t131 -24q152 -43 230 -136t78 -227q0 -70 -19.5 -132.5t-60.5 -114t-104.5 -90t-151.5 -61.5q-53 -14 -117.5 -20t-149.5 -6h-389v613h-532v-613h-245zM1182 205h152q64 0 110.5 4.5t84.5 16.5q68 22 107.5 68.5 t39.5 122.5q0 72 -39.5 117.5t-125.5 65.5q-32 8 -73.5 10.5t-104.5 2.5h-151v-408z" />
<glyph unicode="&#x40b;" horiz-adv-x="1575" d="M30 1133v205h1180v-205h-516v-365q65 19 146.5 33t156.5 14q97 0 170 -19.5t124 -55t82 -86t46 -113.5q11 -42 13.5 -93t2.5 -116v-332h-245v321q0 52 -1.5 85t-6.5 57q-17 77 -68 111t-145 34q-69 0 -141.5 -13.5t-133.5 -33.5v-561h-245v1133h-419z" />
<glyph unicode="&#x40c;" horiz-adv-x="1294" d="M160 0v1338h245v-609h4l505 609h304l-558 -663l604 -675h-314l-541 604h-4v-604h-245zM383 1338zM561 1409l138 247h240l-190 -247h-188z" />
<glyph unicode="&#x40d;" horiz-adv-x="1490" d="M160 0v1338h245v-616q0 -147 -12 -370h4q64 106 236 354l440 632h257v-1338h-245v616q0 115 12 371h-4q-69 -117 -240 -361l-436 -626h-257zM329 1338zM495 1656h240l138 -247h-188z" />
<glyph unicode="&#x40e;" horiz-adv-x="1269" d="M20 1338h272l376 -685l315 685h266l-490 -1024q-45 -94 -94 -159t-106.5 -105t-126 -57.5t-153.5 -17.5q-33 0 -73 3.5t-75 11.5v209q38 -9 73 -13t64 -4q46 0 83 10t69 35t61.5 68t59.5 110zM216 1883h231q17 -112 63 -168t127 -56q158 0 191 224h231q-7 -90 -36.5 -164 t-82.5 -127.5t-129.5 -83t-175.5 -29.5q-100 0 -175.5 29.5t-127 83t-80.5 127.5t-36 164z" />
<glyph unicode="&#x40f;" horiz-adv-x="1373" d="M160 0v1338h245v-1133h563v1133h245v-1338h-404v-443h-245v443h-404z" />
<glyph unicode="&#x410;" horiz-adv-x="1346" d="M30 0l531 1338h224l531 -1338h-259l-131 341h-504l-131 -341h-261zM501 546h346l-46 119q-55 142 -125 351h-4q-70 -210 -125 -351z" />
<glyph unicode="&#x411;" horiz-adv-x="1274" d="M160 0v1338h927v-205h-682v-314q91 7 164 7q158 0 273.5 -26.5t191.5 -77.5t113 -125t37 -169q0 -122 -66.5 -218.5t-201.5 -150.5q-72 -29 -171.5 -44t-239.5 -15h-345zM405 205h116q90 0 165.5 10.5t129.5 35.5t84.5 67.5t30.5 105.5q0 98 -88.5 146.5t-285.5 48.5 q-71 0 -152 -8v-406z" />
<glyph unicode="&#x412;" horiz-adv-x="1276" d="M160 0v1338h465q149 0 240 -30q68 -22 118 -57.5t82.5 -79t48 -92t15.5 -97.5q0 -87 -39 -159.5t-129 -120.5v-4q50 -17 91.5 -43.5t71 -63t46 -82.5t16.5 -103q0 -49 -15.5 -105t-54.5 -108.5t-104 -96.5t-164 -70q-25 -6 -54.5 -11t-65.5 -8.5t-80 -5t-99 -1.5h-389z M405 205h160q64 0 110 3.5t79 11.5q51 11 85 29.5t55 42t30 52t9 60.5q0 56 -31 98t-97 63q-29 9 -68 13t-100 4h-232v-377zM405 787h221q100 0 149 20q55 23 78.5 63.5t23.5 91.5q0 53 -27 94.5t-92 61.5q-27 8 -63 11.5t-89 3.5h-201v-346z" />
<glyph unicode="&#x413;" horiz-adv-x="1096" d="M160 0v1338h906v-205h-661v-1133h-245z" />
<glyph unicode="&#x414;" horiz-adv-x="1553" d="M80 205h82q78 100 145 214t120.5 251.5t92.5 302t61 365.5h693v-1133h159v-648h-244v443h-865v-443h-244v648zM444 205h585v928h-242q-21 -154 -52 -281.5t-73.5 -238t-97 -209.5t-120.5 -195v-4z" />
<glyph unicode="&#x415;" horiz-adv-x="1163" d="M160 0v1338h867v-205h-622v-346h534v-205h-534v-377h658v-205h-903z" />
<glyph unicode="&#x416;" horiz-adv-x="1963" d="M20 0l584 675l-538 663h304l485 -609h4v609h245v-609h4l485 609h304l-538 -663l584 -675h-314l-521 604h-4v-604h-245v604h-4l-521 -604h-314z" />
<glyph unicode="&#x417;" horiz-adv-x="1167" d="M110 64v208q92 -45 183.5 -67.5t202.5 -22.5q78 0 139 15.5t103 44t64 69t22 90.5q0 36 -12.5 68.5t-41 57.5t-76 40t-117.5 15h-229v205h202q66 0 110.5 14t72 39t40 59.5t12.5 75.5q0 86 -63 133.5t-202 47.5q-86 0 -187.5 -22t-196.5 -61v203q194 87 420 87 q113 0 202.5 -25.5t151.5 -74t95 -119t33 -160.5q0 -53 -13.5 -98t-38.5 -81.5t-59 -64t-76 -45.5v-4q104 -28 165 -102.5t61 -190.5q0 -87 -33 -163.5t-102 -134.5t-175.5 -91.5t-253.5 -33.5q-125 0 -225 25t-178 64z" />
<glyph unicode="&#x418;" horiz-adv-x="1490" d="M160 0v1338h245v-616q0 -147 -12 -370h4q64 106 236 354l440 632h257v-1338h-245v616q0 115 12 371h-4q-69 -117 -240 -361l-436 -626h-257z" />
<glyph unicode="&#x419;" horiz-adv-x="1490" d="M160 0v1338h245v-616q0 -147 -12 -370h4q64 106 236 354l440 632h257v-1338h-245v616q0 115 12 371h-4q-69 -117 -240 -361l-436 -626h-257zM342 1883h231q17 -112 63 -168t127 -56q158 0 191 224h231q-7 -90 -36.5 -164t-82.5 -127.5t-129.5 -83t-175.5 -29.5 q-100 0 -175.5 29.5t-127 83t-80.5 127.5t-36 164z" />
<glyph unicode="&#x41a;" horiz-adv-x="1294" d="M160 0v1338h245v-609h4l505 609h304l-558 -663l604 -675h-314l-541 604h-4v-604h-245z" />
<glyph unicode="&#x41b;" horiz-adv-x="1365" d="M30 -2v219q36 -9 71 -9q39 0 69.5 12.5t59 46.5t61 105t66 196.5t67.5 313.5t68 456h713v-1338h-245v1133h-267q-33 -237 -68 -414.5t-74 -305t-83 -210t-95 -131t-110 -67.5t-131 -19q-55 0 -102 12z" />
<glyph unicode="&#x41c;" horiz-adv-x="1692" d="M160 0v1338h342l231 -637q58 -159 109 -342h6q44 158 109 339l231 640h344v-1338h-245v678q0 149 12 346h-9q-17 -57 -40 -128t-48 -140l-277 -756h-158l-277 756q-25 69 -48 140t-40 128h-9q12 -185 12 -345v-679h-245z" />
<glyph unicode="&#x41d;" horiz-adv-x="1430" d="M160 0v1338h245v-551h620v551h245v-1338h-245v582h-620v-582h-245z" />
<glyph unicode="&#x41e;" horiz-adv-x="1504" d="M100 669q0 153 43.5 280.5t127 219.5t205 143t276.5 51t276.5 -51t205 -143t127 -219.5t43.5 -280.5t-43.5 -280.5t-127 -219.5t-205 -143t-276.5 -51t-276.5 51t-205 143t-127 219.5t-43.5 280.5zM353 669q0 -122 30 -213.5t83 -152t126 -91t160 -30.5t160 30.5t126 91 t83 152t30 213.5t-30 213.5t-83 152.5t-126 91t-160 30t-160 -30t-126 -91t-83 -152.5t-30 -213.5z" />
<glyph unicode="&#x41f;" horiz-adv-x="1382" d="M160 0v1338h1062v-1338h-245v1130h-572v-1130h-245z" />
<glyph unicode="&#x420;" horiz-adv-x="1230" d="M160 0v1338h386q97 0 169.5 -8.5t129.5 -25.5q137 -42 211 -134t74 -234q0 -97 -40 -174.5t-117 -131.5t-188 -83t-255 -29q-33 0 -65 1t-60 4v-523h-245zM405 729q21 -3 53.5 -4.5t67.5 -1.5q99 0 166 16t108 44.5t59 69t18 88.5q0 59 -27 102t-94 67q-35 12 -86.5 17.5 t-126.5 5.5h-138v-404z" />
<glyph unicode="&#x421;" horiz-adv-x="1197" d="M100 645q0 153 46.5 284t134 227t219 151t297.5 56q85 0 161 -11.5t137 -32.5v-208q-80 25 -149 35t-135 10q-100 0 -184.5 -33t-145 -96t-94.5 -155.5t-34 -211.5q0 -118 31 -207.5t89 -149.5t141.5 -90.5t189.5 -30.5q76 0 155 12t148 35v-211q-70 -20 -151 -31.5 t-168 -11.5q-170 0 -299 48.5t-215.5 137t-130 212t-43.5 272.5z" />
<glyph unicode="&#x422;" horiz-adv-x="1168" d="M30 1133v205h1108v-205h-431v-1133h-245v1133h-432z" />
<glyph unicode="&#x423;" horiz-adv-x="1269" d="M20 1338h272l376 -685l315 685h266l-490 -1024q-45 -94 -94 -159t-106.5 -105t-126 -57.5t-153.5 -17.5q-33 0 -73 3.5t-75 11.5v209q38 -9 73 -13t64 -4q46 0 83 10t69 35t61.5 68t59.5 110z" />
<glyph unicode="&#x424;" horiz-adv-x="1581" d="M100 671q0 120 37.5 223t109.5 181.5t178.5 128.5t244.5 65v179h241v-179q138 -15 244.5 -65t178.5 -128.5t109.5 -181.5t37.5 -223q0 -121 -36 -224t-108 -181t-178.5 -128t-247.5 -64v-177h-241v177q-141 14 -247.5 64t-178.5 128t-108 181t-36 224zM349 672 q0 -92 23.5 -163t65.5 -121.5t101 -81t131 -41.5v813q-72 -11 -131 -41.5t-101 -81t-65.5 -121t-23.5 -162.5zM911 265q72 11 131 41.5t101 81t65.5 121.5t23.5 163t-23.5 162.5t-65.5 121t-101 81t-131 41.5v-813z" />
<glyph unicode="&#x425;" horiz-adv-x="1302" d="M20 0l486 680l-466 658h282l191 -275q97 -141 136 -202h5q54 84 135 201l191 276h282l-466 -658l486 -680h-278l-209 299q-77 110 -142 208h-4q-68 -102 -142 -208l-209 -299h-278z" />
<glyph unicode="&#x426;" horiz-adv-x="1475" d="M160 0v1338h245v-1133h546v1133h245v-1133h159v-648h-245v443h-950z" />
<glyph unicode="&#x427;" horiz-adv-x="1298" d="M140 935v403h245v-407q0 -51 4 -91t15 -69q21 -59 69.5 -85t132.5 -26q72 0 148 14.5t139 34.5v629h245v-1338h-245v503q-62 -19 -149 -34.5t-163 -15.5q-94 0 -164 17t-120 49t-81.5 77.5t-49.5 102.5q-15 48 -20.5 106.5t-5.5 129.5z" />
<glyph unicode="&#x428;" horiz-adv-x="1903" d="M160 0v1338h245v-1133h424v1133h245v-1133h424v1133h245v-1338h-1583z" />
<glyph unicode="&#x429;" horiz-adv-x="2005" d="M160 0v1338h245v-1133h415v1133h245v-1133h414v1133h245v-1133h161v-648h-245v443h-1480z" />
<glyph unicode="&#x42a;" horiz-adv-x="1467" d="M0 1133v205h609v-519q82 7 152 7q71 0 132.5 -5t117.5 -16q94 -19 163 -53.5t114 -83t67 -109.5t22 -133q0 -67 -21 -127.5t-63 -111.5t-105 -90t-147 -63q-61 -17 -140.5 -25.5t-186.5 -8.5h-350v1133h-364zM609 205h125q75 0 135 6t106 22q68 23 108.5 68t40.5 116 t-44.5 119t-143.5 69q-38 8 -84 11t-101 3q-74 0 -142 -8v-406z" />
<glyph unicode="&#x42b;" horiz-adv-x="1713" d="M160 0v1338h245v-519q72 7 153 7q70 0 131.5 -5t117.5 -16q94 -19 163 -53.5t114 -83t67 -109.5t22 -133q0 -67 -21 -127.5t-63 -111.5t-105 -90t-147 -63q-61 -17 -140.5 -25.5t-186.5 -8.5h-350zM405 205h125q75 0 135 6t106 22q68 23 108.5 68t40.5 116t-44.5 119 t-143.5 69q-38 8 -84 11t-95 3q-81 0 -148 -8v-406zM1308 0v1338h245v-1338h-245z" />
<glyph unicode="&#x42c;" horiz-adv-x="1274" d="M160 0v1338h245v-519q84 7 164 7q153 0 266 -25q176 -40 262.5 -135.5t86.5 -237.5q0 -122 -66.5 -218.5t-201.5 -150.5q-72 -29 -171.5 -44t-239.5 -15h-345zM405 205h116q65 0 119 4.5t99 15.5q87 21 139.5 68.5t52.5 130.5q0 67 -41 111.5t-130 65.5q-40 10 -91 14 t-112 4q-82 0 -152 -8v-406z" />
<glyph unicode="&#x42d;" horiz-adv-x="1237" d="M120 18v211q78 -26 152.5 -36.5t141.5 -10.5q105 0 189.5 25t145 75t95 125t40.5 175h-674v205h667q-13 92 -52.5 161t-99.5 115.5t-138 69.5t-173 23q-132 0 -278 -45v208q136 44 302 44q173 0 300.5 -50t216 -141t135.5 -217t47 -279q0 -157 -43 -286.5t-131.5 -221.5 t-224 -142.5t-320.5 -50.5q-83 0 -157.5 11.5t-140.5 31.5z" />
<glyph unicode="&#x42e;" horiz-adv-x="2024" d="M160 0v1338h245v-551h242q16 129 65.5 235t130 182t191 117.5t248.5 41.5q153 0 272.5 -51t201.5 -143t125 -219.5t43 -280.5t-43 -280.5t-125 -219.5t-201.5 -143t-272.5 -51q-142 0 -255 44t-194 124t-129 192t-60 247h-239v-582h-245zM893 669q0 -122 29 -213.5 t81 -152t123.5 -91t155.5 -30.5t155.5 30.5t123.5 91t81 152t29 213.5t-29 213.5t-81 152.5t-123.5 91t-155.5 30t-155.5 -30t-123.5 -91t-81 -152.5t-29 -213.5z" />
<glyph unicode="&#x42f;" horiz-adv-x="1330" d="M85 0l333 541v4q-130 48 -193 140.5t-63 227.5q0 132 69.5 234t198.5 152q49 19 109 29t138 10h493v-1338h-245v503h-259l-302 -503h-279zM414 918q0 -33 7 -63t23.5 -55.5t43.5 -45t67 -31.5q27 -8 64 -12t91 -4h215v425h-226q-51 0 -87.5 -5.5t-65.5 -16.5 q-67 -27 -99.5 -78.5t-32.5 -113.5z" />
<glyph unicode="&#x430;" horiz-adv-x="1054" d="M85 285q0 78 28.5 140t79.5 105t122 65.5t157 22.5q63 0 116 -8t93 -19v39q0 34 -11.5 65.5t-37 56t-66.5 39t-100 14.5q-72 0 -144 -16t-156 -48v185q73 32 155 49t172 18q106 0 185.5 -26t133 -71.5t80 -107.5t26.5 -135v-365q0 -96 2 -165t4 -123h-214l-10 103h-4 q-20 -21 -48 -43t-64 -41.5t-80 -31.5t-95 -12q-69 0 -129 21.5t-103 62t-67.5 98t-24.5 128.5zM326 294q0 -33 11.5 -57.5t31 -40.5t45.5 -24t55 -8q36 0 68 9.5t59 24t48.5 32.5t36.5 35v148q-34 8 -78 14.5t-89 6.5q-87 0 -137.5 -34.5t-50.5 -105.5z" />
<glyph unicode="&#x431;" horiz-adv-x="1117" d="M90 650q0 168 30.5 307t99 241.5t178 165.5t277.5 79l288 27v-216l-309 -30q-87 -9 -140 -29.5t-90 -62t-58 -106t-27 -159.5h4q54 29 123.5 49t141.5 20q95 0 174 -28t135.5 -83.5t88 -139.5t31.5 -196q0 -117 -32 -211.5t-93.5 -162t-151 -104t-204.5 -36.5 q-111 0 -197.5 43t-146.5 128t-91 211.5t-31 292.5zM333 612q0 -116 18 -199.5t49.5 -137.5t75 -80t94.5 -26q103 0 162.5 81.5t59.5 227.5q0 76 -19 128.5t-50.5 82t-72 42t-82.5 12.5q-66 0 -128 -22t-105 -49q-2 -37 -2 -60z" />
<glyph unicode="&#x432;" horiz-adv-x="1035" d="M130 0v969h427q54 0 97.5 -5.5t78.5 -16.5q95 -29 144.5 -90t49.5 -142q0 -72 -38 -126t-107 -81v-4q86 -23 129.5 -75.5t43.5 -130.5q0 -94 -56 -165.5t-166 -106.5q-41 -13 -94.5 -19.5t-129.5 -6.5h-379zM363 183h170q38 0 64 3.5t43 10.5q36 14 53 39.5t17 60.5 q0 31 -15.5 55t-44.5 37q-16 7 -36 10.5t-50 3.5h-201v-220zM363 586h180q59 0 88 16q26 14 38.5 37t12.5 51q0 56 -48 81q-28 15 -90 15h-181v-200z" />
<glyph unicode="&#x433;" horiz-adv-x="836" d="M130 0v969h686v-205h-449v-764h-237z" />
<glyph unicode="&#x434;" horiz-adv-x="1167" d="M35 201h68q63 67 114.5 140.5t88.5 164.5t59 204t28 259h576v-768h148v-541h-230v340h-622v-340h-230v541zM371 201h361v571h-143q-11 -100 -30 -180t-46.5 -146.5t-63 -125t-78.5 -115.5v-4z" />
<glyph unicode="&#x435;" horiz-adv-x="1050" d="M80 468q0 132 38 231t102 164t146.5 97.5t170.5 32.5q92 0 169.5 -28t134 -88t88 -154.5t31.5 -223.5q-1 -50 -3 -85h-635q5 -67 30 -114.5t65.5 -77t94.5 -43t117 -13.5q69 0 144 14t152 40v-189q-46 -20 -141 -38t-197 -18q-103 0 -195.5 26.5t-161.5 85.5t-109.5 153 t-40.5 228zM333 599h381q0 43 -11.5 81t-34 66.5t-56 45t-78.5 16.5t-80 -16.5t-60.5 -45t-40.5 -66.5t-20 -81z" />
<glyph unicode="&#x436;" horiz-adv-x="1495" d="M10 0l400 491l-377 478h278l314 -421h5v421h237v-421h5l314 421h280l-379 -478l398 -491h-280l-334 423h-4v-423h-237v423h-4l-334 -423h-282z" />
<glyph unicode="&#x437;" horiz-adv-x="928" d="M70 35v191q78 -32 154 -46.5t146 -14.5q66 0 110.5 9t71 26t37.5 40.5t11 52.5q0 80 -83 99q-32 7 -96 7h-224v185h235q49 0 74 9q36 13 51 40t15 59q0 53 -44.5 82t-137.5 29q-76 0 -155 -16.5t-148 -39.5v186q74 30 160 45t173 15q95 0 169.5 -20.5t126 -57.5t78.5 -89 t27 -115q0 -75 -38 -127t-92 -80v-4q33 -11 61.5 -29.5t49.5 -45t33.5 -60t12.5 -75.5q0 -63 -26 -120.5t-80.5 -100.5t-140 -68.5t-204.5 -25.5q-100 0 -181.5 16t-145.5 44z" />
<glyph unicode="&#x438;" horiz-adv-x="1156" d="M130 0v969h237v-281q0 -208 -9 -345h4q58 100 186 276l260 350h218v-969h-237v281q0 191 9 345h-4q-61 -105 -186 -276l-260 -350h-218z" />
<glyph unicode="&#x439;" horiz-adv-x="1156" d="M130 0v969h237v-281q0 -208 -9 -345h4q58 100 186 276l260 350h218v-969h-237v281q0 191 9 345h-4q-61 -105 -186 -276l-260 -350h-218zM235 1437h219q8 -88 42 -135t93 -47t95.5 47t42.5 135h221q-3 -77 -29 -142.5t-72 -113t-111 -74.5t-148 -27q-82 0 -146.5 27 t-109.5 74.5t-69.5 113t-27.5 142.5z" />
<glyph unicode="&#x43a;" horiz-adv-x="1021" d="M130 0v969h237v-421h5l334 421h284l-396 -478l417 -491h-286l-354 423h-4v-423h-237z" />
<glyph unicode="&#x43b;" horiz-adv-x="1089" d="M20 -11v211q30 -5 53 -5q36 0 61 8.5t48 33.5t45.5 75.5t45 136.5t45 213.5t46.5 306.5h595v-969h-237v772h-171q-26 -189 -58 -321t-68.5 -220t-76.5 -138t-81 -73.5t-82.5 -30.5t-86.5 -7q-18 0 -38 1.5t-40 5.5z" />
<glyph unicode="&#x43c;" horiz-adv-x="1341" d="M130 0v969h327l67 -193q93 -274 143 -455h7q57 202 143 455l67 193h327v-969h-228v348q0 128 12 353h-8q-29 -91 -74.5 -222.5t-107.5 -307.5l-60 -171h-149l-61 172q-62 174 -106.5 304.5t-74.5 224.5h-8q12 -212 12 -353v-348h-228z" />
<glyph unicode="&#x43d;" horiz-adv-x="1125" d="M130 0v969h237v-368h391v368h237v-969h-237v400h-391v-400h-237z" />
<glyph unicode="&#x43e;" horiz-adv-x="1134" d="M80 484q0 114 34 208t97.5 161t153.5 103.5t201 36.5q114 0 204.5 -36.5t153.5 -103.5t96.5 -161t33.5 -208t-34 -208t-97.5 -161t-153.5 -103.5t-201 -36.5q-114 0 -204.5 36.5t-153.5 103.5t-96.5 161t-33.5 208zM325 484q0 -77 18 -136t50.5 -98.5t77 -60t97.5 -20.5 t97 20.5t76 60t50 98.5t18 136t-18 136t-50 99t-77 60t-98 20q-52 0 -96.5 -20t-76.5 -60t-50 -99t-18 -136z" />
<glyph unicode="&#x43f;" horiz-adv-x="1106" d="M130 0v969h846v-969h-237v766h-372v-766h-237z" />
<glyph unicode="&#x440;" horiz-adv-x="1126" d="M130 -465v1434h208l10 -109h4q44 58 113 95.5t160 37.5q79 0 155.5 -29.5t135.5 -90.5t94.5 -154t35.5 -221q0 -135 -38 -233.5t-100 -163t-137.5 -95.5t-155.5 -31q-78 0 -141.5 28.5t-105.5 70.5h-4q1 -20 2 -56.5t1 -79.5v-403h-237zM367 261q15 -17 36 -34t47 -31 t57.5 -23t65.5 -9q55 0 98 23.5t71.5 66.5t43.5 102.5t15 132.5q0 78 -15.5 137t-44 98t-68.5 59t-89 20q-62 -1 -118 -30.5t-99 -79.5v-432z" />
<glyph unicode="&#x441;" horiz-adv-x="903" d="M80 469q0 140 45 240t116.5 162.5t161 92t176.5 29.5q65 0 125 -11.5t109 -31.5v-193q-44 19 -93.5 30.5t-106.5 11.5t-109 -17.5t-92 -55.5t-63.5 -100.5t-23.5 -150.5q0 -64 18 -120.5t52.5 -96.5t88 -64.5t126.5 -24.5q65 0 118 13t100 32v-193q-45 -19 -110 -32.5 t-137 -13.5q-105 0 -196 30t-159 91t-107 154.5t-39 218.5z" />
<glyph unicode="&#x442;" horiz-adv-x="895" d="M20 769v200h855v-200h-309v-769h-237v769h-309z" />
<glyph unicode="&#x443;" horiz-adv-x="1052" d="M10 969h254l145 -351q82 -200 116 -296h4q25 75 106 278l150 369h257l-624 -1434h-234l222 519z" />
<glyph unicode="&#x444;" horiz-adv-x="1417" d="M80 486q0 105 35 192t101 152.5t160.5 107t213.5 54.5v456h237v-456q119 -13 213.5 -54.5t160.5 -107t101 -152.5t35 -192q0 -106 -34.5 -194t-100 -154t-160.5 -107t-215 -53v-443h-237v443q-120 12 -215 53t-160.5 107t-100 154t-34.5 194zM325 486q0 -139 71 -219 t194 -102v639q-123 -21 -194 -100.5t-71 -217.5zM827 165q123 22 194 102t71 219q0 138 -71 217.5t-194 100.5v-639z" />
<glyph unicode="&#x445;" horiz-adv-x="1068" d="M10 0l383 494l-360 475h279l226 -320l230 320h280l-370 -474l380 -495h-277l-249 337l-250 -337h-272z" />
<glyph unicode="&#x446;" horiz-adv-x="1149" d="M130 0v969h237v-768h347v768h237v-768h148v-541h-230v340h-739z" />
<glyph unicode="&#x447;" horiz-adv-x="1041" d="M100 632v337h237v-318q0 -88 35 -124t104 -36q24 0 50.5 4t52.5 11.5t50.5 18.5t44.5 24v420h237v-969h-237v352h-4q-42 -21 -105 -38t-139 -17q-61 0 -120 16.5t-104.5 55.5t-73.5 103t-28 160z" />
<glyph unicode="&#x448;" horiz-adv-x="1497" d="M130 0v969h237v-768h263v768h237v-768h263v768h237v-969h-1237z" />
<glyph unicode="&#x449;" horiz-adv-x="1544" d="M130 0v969h237v-768h253v768h237v-768h253v768h237v-768h147v-541h-229v340h-1135z" />
<glyph unicode="&#x44a;" horiz-adv-x="1179" d="M0 764v205h525v-347q72 8 135 8q115 0 198 -24t136.5 -66.5t79 -100t25.5 -123.5q0 -85 -37 -148.5t-103 -106.5t-155.5 -64.5t-194.5 -21.5q-91 0 -170 9.5t-151 28.5v751h-288zM525 175q45 -6 97 -6t94.5 8t73 25.5t47.5 43.5t17 62q0 58 -51.5 93t-164.5 35 q-53 0 -113 -8v-253z" />
<glyph unicode="&#x44b;" horiz-adv-x="1407" d="M130 13v956h237v-347q71 8 135 8q114 0 197.5 -24t137 -66.5t79 -100t25.5 -123.5q0 -85 -37 -148.5t-103 -106.5t-155.5 -64.5t-194.5 -21.5q-91 0 -170 9.5t-151 28.5zM367 175q45 -6 97 -6t94.5 8t73 25.5t47.5 43.5t17 62q0 58 -51.5 93t-164.5 35q-52 0 -113 -8 v-253zM1040 0v969h237v-969h-237z" />
<glyph unicode="&#x44c;" horiz-adv-x="1041" d="M130 13v956h237v-347q74 8 149 8q115 0 200.5 -25.5t139.5 -69.5t79.5 -102.5t25.5 -125.5q0 -84 -37.5 -146.5t-104.5 -104t-158.5 -61.5t-199.5 -20q-184 0 -331 38zM367 175q49 -6 107 -6q111 0 176.5 33t65.5 102q0 29 -12.5 53t-39.5 41.5t-70 27.5t-104 10t-123 -8 v-253z" />
<glyph unicode="&#x44d;" horiz-adv-x="970" d="M80 31v189q72 -29 134.5 -42t129.5 -13q140 0 217 58t88 176h-492v185h485q-9 59 -35.5 100.5t-65 67.5t-88 38.5t-105.5 12.5q-70 0 -133 -13.5t-119 -35.5v186q58 25 128.5 39t147.5 14q116 0 211.5 -34t163.5 -99t105.5 -160.5t37.5 -217.5q0 -127 -37.5 -222 t-106.5 -158.5t-167.5 -95t-221.5 -31.5q-85 0 -157 17t-120 39z" />
<glyph unicode="&#x44e;" horiz-adv-x="1548" d="M130 0v969h237v-368h157q15 90 53.5 162.5t98 123.5t139 78.5t175.5 27.5q114 0 203 -36.5t150 -103.5t93 -161t32 -208t-32.5 -208t-94 -161t-150 -103.5t-199.5 -36.5q-103 0 -186 30t-143 85.5t-97 134t-48 175.5h-151v-400h-237zM759 484q0 -155 63 -235t170 -80 q53 0 95.5 20.5t72.5 60t46.5 98.5t16.5 136q0 155 -63 235t-170 80q-105 0 -168 -80t-63 -235z" />
<glyph unicode="&#x44f;" horiz-adv-x="1052" d="M60 0l213 389v4q-82 36 -123.5 100.5t-41.5 151.5q0 42 9.5 82.5t29.5 76.5t50.5 66.5t72.5 52.5t97.5 34t129.5 12h425v-969h-235v344h-187l-184 -344h-256zM353 655q0 -45 21 -74t60 -43q17 -6 40 -8.5t54 -2.5h159v259h-170q-83 0 -121 -32q-22 -18 -32.5 -44 t-10.5 -55z" />
<glyph unicode="&#x450;" horiz-adv-x="1050" d="M80 468q0 132 38 231t102 164t146.5 97.5t170.5 32.5q92 0 169.5 -28t134 -88t88 -154.5t31.5 -223.5q-1 -50 -3 -85h-635q5 -67 30 -114.5t65.5 -77t94.5 -43t117 -13.5q69 0 144 14t152 40v-189q-46 -20 -141 -38t-197 -18q-103 0 -195.5 26.5t-161.5 85.5t-109.5 153 t-40.5 228zM333 599h381q0 43 -11.5 81t-34 66.5t-56 45t-78.5 16.5t-80 -16.5t-60.5 -45t-40.5 -66.5t-20 -81zM74 969zM302 1473h230l119 -349h-184z" />
<glyph unicode="&#x451;" horiz-adv-x="1050" d="M80 468q0 132 38 231t102 164t146.5 97.5t170.5 32.5q92 0 169.5 -28t134 -88t88 -154.5t31.5 -223.5q-1 -50 -3 -85h-635q5 -67 30 -114.5t65.5 -77t94.5 -43t117 -13.5q69 0 144 14t152 40v-189q-46 -20 -141 -38t-197 -18q-103 0 -195.5 26.5t-161.5 85.5t-109.5 153 t-40.5 228zM333 599h381q0 43 -11.5 81t-34 66.5t-56 45t-78.5 16.5t-80 -16.5t-60.5 -45t-40.5 -66.5t-20 -81zM136 969zM222 1191v221h218v-221h-218zM632 1191v221h218v-221h-218z" />
<glyph unicode="&#x452;" horiz-adv-x="1153" d="M0 1106v185h162v157h237v-157h399v-185h-399v-99q0 -75 -2.5 -123.5t-8.5 -87.5h4q20 29 51 53t68 41.5t78 27.5t81 10q84 0 156 -36t124.5 -106.5t82.5 -176t30 -243.5q0 -89 -13.5 -174t-41 -160t-71 -138t-103.5 -108.5t-138.5 -71t-171.5 -25.5q-20 0 -34 2v202h15 q94 0 155 39.5t96 105t48.5 150.5t13.5 176q0 86 -13 154t-40 115t-67.5 71.5t-94.5 24.5q-21 0 -46.5 -5.5t-52.5 -18t-54 -33t-51 -51.5v-621h-237v1106h-162z" />
<glyph unicode="&#x453;" horiz-adv-x="836" d="M130 0v969h686v-205h-449v-764h-237zM158 968zM397 1124l119 349h230l-165 -349h-184z" />
<glyph unicode="&#x454;" horiz-adv-x="970" d="M80 466q0 128 37.5 226t105.5 165t163.5 101.5t211.5 34.5q77 0 147.5 -14t128.5 -39v-186q-56 21 -122 35t-144 14q-52 0 -99 -12.5t-84 -38.5t-62.5 -67.5t-34.5 -100.5h485v-185h-492q11 -118 86 -176t202 -58q63 0 130 11.5t151 43.5v-189q-65 -27 -140.5 -41.5 t-150.5 -14.5q-112 0 -207 30t-164.5 90.5t-108.5 153t-39 217.5z" />
<glyph unicode="&#x455;" horiz-adv-x="868" d="M85 26v191q78 -29 144 -39.5t123 -10.5q44 0 82 6.5t65.5 20.5t43.5 35.5t16 51.5q0 31 -17.5 51t-46.5 33.5t-66.5 23.5t-78.5 20q-52 14 -100 32.5t-84.5 48.5t-58 75.5t-21.5 111.5q0 81 29 140.5t78.5 98.5t115 58t138.5 19q89 0 167 -14.5t141 -37.5v-193 q-33 11 -69.5 20.5t-74 16.5t-74.5 11.5t-70 4.5q-42 0 -71 -8t-47 -21.5t-26 -31t-8 -36.5q0 -33 17.5 -54t48.5 -34q31 -14 65 -22l66 -16q50 -12 100 -29t90 -47.5t65.5 -79t25.5 -123.5q0 -82 -31 -143t-86.5 -101.5t-133 -60t-170.5 -19.5q-92 0 -165.5 14.5 t-121.5 36.5z" />
<glyph unicode="&#x456;" horiz-adv-x="509" d="M130 1191v257h249v-257h-249zM136 0v969h237v-969h-237z" />
<glyph unicode="&#x457;" horiz-adv-x="509" d="M136 0v969h237v-969h-237zM-139 969zM-53 1191v221h218v-221h-218zM357 1191v221h218v-221h-218z" />
<glyph unicode="&#x458;" horiz-adv-x="538" d="M-155 -273q32 -9 71.5 -16t75.5 -7q48 0 84 11t58 38q17 20 24 55t7 84v1077h237v-1096q0 -136 -43 -210q-45 -78 -132 -115.5t-206 -37.5q-53 0 -95.5 6t-80.5 17v194zM159 1191v257h249v-257h-249z" />
<glyph unicode="&#x459;" horiz-adv-x="1623" d="M30 -11v211q31 -5 54 -5q33 0 59.5 9.5t50.5 36t47.5 77.5t46.5 137t45.5 212t45.5 302h590v-347q74 8 135 8q115 0 198 -24t136.5 -66.5t79 -100t25.5 -123.5q0 -85 -37 -148.5t-103 -106.5t-155.5 -64.5t-194.5 -21.5q-91 0 -169.5 9.5t-151.5 28.5v759h-171 q-26 -189 -58 -321t-68.5 -220t-76.5 -138t-81 -73.5t-84.5 -30.5t-84.5 -7q-53 1 -78 7zM969 175q45 -6 97 -6t94.5 8t73 25.5t47.5 43.5t17 62q0 60 -52.5 94t-163.5 34q-52 0 -113 -8v-253z" />
<glyph unicode="&#x45a;" horiz-adv-x="1589" d="M130 0v969h237v-349h341v349h237v-347q71 8 130 8q114 0 196 -24t135 -66.5t78 -100t25 -123.5q0 -85 -36.5 -148.5t-102 -106.5t-155.5 -64.5t-197 -21.5q-85 0 -161 9.5t-149 28.5v406h-341v-419h-237zM945 175q41 -6 92 -6t92.5 9t71.5 26.5t46.5 43.5t16.5 60 q0 61 -54 94.5t-152 33.5q-55 0 -113 -8v-253z" />
<glyph unicode="&#x45b;" horiz-adv-x="1168" d="M0 1106v185h164v157h237v-157h388v-185h-388v-109q0 -75 -2.5 -123.5t-8.5 -87.5h4q20 29 50.5 56t70.5 48t88.5 34t104.5 13q52 0 100.5 -11.5t89 -36t71 -62.5t48.5 -92q11 -32 16 -75t5 -100v-560h-237v524q0 42 -2 70t-8 47q-17 54 -54 77.5t-91 23.5 q-69 0 -132.5 -32.5t-112.5 -94.5v-615h-237v1106h-164z" />
<glyph unicode="&#x45c;" horiz-adv-x="1031" d="M130 0v969h237v-421h5l334 421h284l-396 -478l417 -491h-286l-354 423h-4v-423h-237zM439 1124l119 349h230l-165 -349h-184z" />
<glyph unicode="&#x45d;" horiz-adv-x="1156" d="M130 0v969h237v-281q0 -208 -9 -345h4q58 100 186 276l260 350h218v-969h-237v281q0 191 9 345h-4q-61 -105 -186 -276l-260 -350h-218zM120 969zM348 1473h230l119 -349h-184z" />
<glyph unicode="&#x45e;" horiz-adv-x="989" d="M-36 969h254l145 -351q82 -200 116 -296h4q25 75 106 278l150 369h257l-624 -1434h-234l222 519zM125 1437h219q8 -88 42 -135t93 -47t95.5 47t42.5 135h221q-3 -77 -29 -142.5t-72 -113t-111 -74.5t-148 -27q-82 0 -146.5 27t-109.5 74.5t-69.5 113t-27.5 142.5z" />
<glyph unicode="&#x45f;" horiz-adv-x="1104" d="M130 0v969h237v-768h370v768h237v-969h-306v-340h-230v340h-308z" />
<glyph unicode="&#x462;" horiz-adv-x="1357" d="M10 993v205h233v140h245v-140h493v-205h-493v-174q80 7 164 7q153 0 266 -25q177 -40 263 -135.5t86 -237.5q0 -122 -66.5 -218.5t-201.5 -150.5q-72 -29 -171.5 -44t-239.5 -15h-345v993h-233zM488 205h116q65 0 119 4.5t99 15.5q87 21 139.5 68.5t52.5 130.5 q0 67 -41 111t-130 66q-40 10 -91 14t-112 4q-72 0 -152 -8v-406z" />
<glyph unicode="&#x463;" horiz-adv-x="1119" d="M0 784v185h208v479h237v-479h344v-185h-344v-162q36 4 74 6t75 2q117 0 201.5 -25.5t138.5 -69.5t79.5 -102.5t25.5 -125.5q0 -84 -37.5 -146.5t-104.5 -104t-158.5 -61.5t-199.5 -20q-184 0 -331 38v771h-208zM446 169q25 -2 53 -3.5t54 -1.5q55 0 100 9t76.5 27 t48.5 45t17 63q0 29 -12.5 53t-39 41.5t-67.5 27.5t-99 10q-23 0 -59 -1.5t-72 -6.5v-263z" />
<glyph unicode="&#x472;" horiz-adv-x="1472" d="M100 669q0 153 42.5 280.5t124 219.5t200 143t269.5 51q152 0 270 -51t199.5 -143t124 -219.5t42.5 -280.5t-42.5 -280.5t-124 -219.5t-199.5 -143t-270 -51q-151 0 -269.5 51t-200 143t-124 219.5t-42.5 280.5zM354 582q7 -100 39 -175.5t83 -125t118 -74.5t142 -25 t141.5 25t118 74.5t84 125t38.5 175.5h-764zM357 787h758q-11 93 -44.5 162t-84 115t-114.5 69t-136 23t-136.5 -23t-115 -69t-83.5 -115t-44 -162z" />
<glyph unicode="&#x473;" horiz-adv-x="1114" d="M80 484q0 113 32.5 206.5t94 161t150 104.5t199.5 37q114 0 203 -37t150 -104.5t93 -161t32 -206.5t-32.5 -206.5t-94 -161t-150 -104.5t-199.5 -37q-114 0 -203 37t-150 104.5t-93 161t-32 206.5zM328 398q13 -114 76 -173.5t154 -59.5q44 0 82.5 15t68.5 44.5t50 73 t26 100.5h-457zM330 583h454q-16 108 -78 164t-150 56q-43 0 -81 -14.5t-67.5 -42t-49.5 -68.5t-28 -95z" />
<glyph unicode="&#x474;" horiz-adv-x="1406" d="M30 1338h261l248 -665q88 -238 123 -346h4q36 107 133 395l137 399q44 129 127.5 185.5t211.5 56.5q50 0 101 -7v-222q-28 3 -53 3q-34 0 -60.5 -5.5t-47 -20t-36.5 -39t-30 -62.5l-376 -1010h-220z" />
<glyph unicode="&#x475;" horiz-adv-x="1094" d="M20 969h250l135 -370q72 -196 106 -312h4q37 117 105 306l57 159q24 68 54.5 114t69 74t87 40.5t109.5 12.5q31 0 67 -3v-199q-14 1 -25 1q-25 0 -47 -4t-40.5 -16.5t-35 -35t-30.5 -60.5l-255 -676h-235z" />
<glyph unicode="&#x490;" horiz-adv-x="1136" d="M160 0v1338h692v367h244v-572h-691v-1133h-245z" />
<glyph unicode="&#x491;" horiz-adv-x="928" d="M130 0v969h538v284h230v-489h-531v-764h-237z" />
<glyph unicode="&#x1e80;" horiz-adv-x="1864" d="M20 1338h261l161 -533q73 -251 118 -454h6q44 218 102 447l138 540h252l138 -540q58 -227 102 -447h6q55 240 118 454l161 533h261l-425 -1338h-244l-150 600q-51 203 -90 386h-6q-39 -187 -90 -386l-150 -600h-244zM504 1338zM670 1656h240l138 -247h-188z" />
<glyph unicode="&#x1e81;" horiz-adv-x="1534" d="M10 969h250l125 -406q43 -141 76 -273h4q28 128 67 273l111 406h250l109 -406q35 -129 67 -273h4q34 135 76 273l125 406h250l-339 -969h-233l-117 425q-40 143 -66 281h-4q-28 -145 -66 -281l-117 -425h-233zM294 969zM522 1473h230l119 -349h-184z" />
<glyph unicode="&#x1e82;" horiz-adv-x="1864" d="M20 1338h261l161 -533q73 -251 118 -454h6q44 218 102 447l138 540h252l138 -540q58 -227 102 -447h6q55 240 118 454l161 533h261l-425 -1338h-244l-150 600q-51 203 -90 386h-6q-39 -187 -90 -386l-150 -600h-244zM638 1338zM816 1409l138 247h240l-190 -247h-188z" />
<glyph unicode="&#x1e83;" horiz-adv-x="1534" d="M10 969h250l125 -406q43 -141 76 -273h4q28 128 67 273l111 406h250l109 -406q35 -129 67 -273h4q34 135 76 273l125 406h250l-339 -969h-233l-117 425q-40 143 -66 281h-4q-28 -145 -66 -281l-117 -425h-233zM426 968zM665 1124l119 349h230l-165 -349h-184z" />
<glyph unicode="&#x1e84;" horiz-adv-x="1864" d="M20 1338h261l161 -533q73 -251 118 -454h6q44 218 102 447l138 540h252l138 -540q58 -227 102 -447h6q55 240 118 454l161 533h261l-425 -1338h-244l-150 600q-51 203 -90 386h-6q-39 -187 -90 -386l-150 -600h-244zM534 1338zM616 1448v225h224v-225h-224zM1028 1448 v225h224v-225h-224z" />
<glyph unicode="&#x1e85;" horiz-adv-x="1534" d="M10 969h250l125 -406q43 -141 76 -273h4q28 128 67 273l111 406h250l109 -406q35 -129 67 -273h4q34 135 76 273l125 406h250l-339 -969h-233l-117 425q-40 143 -66 281h-4q-28 -145 -66 -281l-117 -425h-233zM367 969zM453 1191v221h218v-221h-218zM863 1191v221h218 v-221h-218z" />
<glyph unicode="&#x1ea0;" horiz-adv-x="1346" d="M30 0l531 1338h224l531 -1338h-259l-131 341h-504l-131 -341h-261zM501 546h346l-46 119q-55 142 -125 351h-4q-70 -210 -125 -351zM550 -141h249v-257h-249v257z" />
<glyph unicode="&#x1ea1;" horiz-adv-x="1054" d="M85 285q0 78 28.5 140t79.5 105t122 65.5t157 22.5q63 0 116 -8t93 -19v39q0 34 -11.5 65.5t-37 56t-66.5 39t-100 14.5q-72 0 -144 -16t-156 -48v185q73 32 155 49t172 18q106 0 185.5 -26t133 -71.5t80 -107.5t26.5 -135v-365q0 -96 2 -165t4 -123h-214l-10 103h-4 q-20 -21 -48 -43t-64 -41.5t-80 -31.5t-95 -12q-69 0 -129 21.5t-103 62t-67.5 98t-24.5 128.5zM326 294q0 -33 11.5 -57.5t31 -40.5t45.5 -24t55 -8q36 0 68 9.5t59 24t48.5 32.5t36.5 35v148q-34 8 -78 14.5t-89 6.5q-87 0 -137.5 -34.5t-50.5 -105.5zM378 -141h249v-257 h-249v257z" />
<glyph unicode="&#x1ea2;" horiz-adv-x="1346" d="M30 0l531 1338h224l531 -1338h-259l-131 341h-504l-131 -341h-261zM501 546h346l-46 119q-55 142 -125 351h-4q-70 -210 -125 -351zM428 1340zM521 1648v128q18 6 49 12.5t83 6.5q125 0 188.5 -42t63.5 -133q0 -38 -18 -67.5t-45.5 -51.5t-61.5 -36t-67 -20l-9 -36h-109 l-22 133q32 1 59.5 5t47.5 11.5t31.5 20t11.5 30.5q0 17 -9.5 28t-24.5 17t-33 8.5t-34 2.5q-34 0 -59 -5.5t-42 -11.5z" />
<glyph unicode="&#x1ea3;" horiz-adv-x="1054" d="M85 285q0 78 28.5 140t79.5 105t122 65.5t157 22.5q63 0 116 -8t93 -19v39q0 34 -11.5 65.5t-37 56t-66.5 39t-100 14.5q-72 0 -144 -16t-156 -48v185q73 32 155 49t172 18q106 0 185.5 -26t133 -71.5t80 -107.5t26.5 -135v-365q0 -96 2 -165t4 -123h-214l-10 103h-4 q-20 -21 -48 -43t-64 -41.5t-80 -31.5t-95 -12q-69 0 -129 21.5t-103 62t-67.5 98t-24.5 128.5zM326 294q0 -33 11.5 -57.5t31 -40.5t45.5 -24t55 -8q36 0 68 9.5t59 24t48.5 32.5t36.5 35v148q-34 8 -78 14.5t-89 6.5q-87 0 -137.5 -34.5t-50.5 -105.5zM239 968zM332 1378 v128q18 6 49 12.5t83 6.5q125 0 188.5 -42t63.5 -133q0 -38 -18 -67.5t-45.5 -51.5t-61.5 -36t-67 -20l-9 -50h-109l-22 147q32 1 59.5 5t47.5 11.5t31.5 20t11.5 30.5q0 17 -9.5 28t-24.5 17t-33 8.5t-34 2.5q-34 0 -59 -5.5t-42 -11.5z" />
<glyph unicode="&#x1ea4;" horiz-adv-x="1346" d="M30 0l531 1338h224l531 -1338h-259l-131 341h-504l-131 -341h-261zM501 546h346l-46 119q-55 142 -125 351h-4q-70 -210 -125 -351zM275 1340zM356 1409l216 247h206l216 -247h-207l-110 126h-4l-111 -126h-206zM921 1558l135 247h230l-195 -247h-170z" />
<glyph unicode="&#x1ea5;" horiz-adv-x="1054" d="M85 285q0 78 28.5 140t79.5 105t122 65.5t157 22.5q63 0 116 -8t93 -19v39q0 34 -11.5 65.5t-37 56t-66.5 39t-100 14.5q-72 0 -144 -16t-156 -48v185q73 32 155 49t172 18q106 0 185.5 -26t133 -71.5t80 -107.5t26.5 -135v-365q0 -96 2 -165t4 -123h-214l-10 103h-4 q-20 -21 -48 -43t-64 -41.5t-80 -31.5t-95 -12q-69 0 -129 21.5t-103 62t-67.5 98t-24.5 128.5zM326 294q0 -33 11.5 -57.5t31 -40.5t45.5 -24t55 -8q36 0 68 9.5t59 24t48.5 32.5t36.5 35v148q-34 8 -78 14.5t-89 6.5q-87 0 -137.5 -34.5t-50.5 -105.5zM125 968zM212 1124 l210 319h206l210 -319h-185l-126 182h-4l-126 -182h-185zM790 1293l99 309h224l-159 -309h-164z" />
<glyph unicode="&#x1ea6;" horiz-adv-x="1346" d="M30 0l531 1338h224l531 -1338h-259l-131 341h-504l-131 -341h-261zM501 546h346l-46 119q-55 142 -125 351h-4q-70 -210 -125 -351zM65 1805h230l135 -247h-170zM275 1340zM356 1409l216 247h206l216 -247h-207l-110 126h-4l-111 -126h-206z" />
<glyph unicode="&#x1ea7;" horiz-adv-x="1054" d="M85 285q0 78 28.5 140t79.5 105t122 65.5t157 22.5q63 0 116 -8t93 -19v39q0 34 -11.5 65.5t-37 56t-66.5 39t-100 14.5q-72 0 -144 -16t-156 -48v185q73 32 155 49t172 18q106 0 185.5 -26t133 -71.5t80 -107.5t26.5 -135v-365q0 -96 2 -165t4 -123h-214l-10 103h-4 q-20 -21 -48 -43t-64 -41.5t-80 -31.5t-95 -12q-69 0 -129 21.5t-103 62t-67.5 98t-24.5 128.5zM326 294q0 -33 11.5 -57.5t31 -40.5t45.5 -24t55 -8q36 0 68 9.5t59 24t48.5 32.5t36.5 35v148q-34 8 -78 14.5t-89 6.5q-87 0 -137.5 -34.5t-50.5 -105.5zM-68 1602h224 l99 -309h-164zM125 968zM212 1124l210 319h206l210 -319h-185l-126 182h-4l-126 -182h-185z" />
<glyph unicode="&#x1ea8;" horiz-adv-x="1346" d="M30 0l531 1338h224l531 -1338h-259l-131 341h-504l-131 -341h-261zM501 546h346l-46 119q-55 142 -125 351h-4q-70 -210 -125 -351zM275 1340zM356 1409l216 247h206l216 -247h-207l-110 126h-4l-111 -126h-206zM859 1763v106q15 5 43.5 10.5t72.5 5.5q103 0 151 -35 t48 -110q0 -31 -12.5 -54.5t-33 -40.5t-47 -28t-53.5 -16l-7 -48h-95l-18 122q54 2 81.5 13.5t27.5 42.5q0 14 -6.5 23t-17 14t-24 7t-26.5 2q-29 0 -49.5 -4.5t-34.5 -9.5z" />
<glyph unicode="&#x1ea9;" horiz-adv-x="1054" d="M85 285q0 78 28.5 140t79.5 105t122 65.5t157 22.5q63 0 116 -8t93 -19v39q0 34 -11.5 65.5t-37 56t-66.5 39t-100 14.5q-72 0 -144 -16t-156 -48v185q73 32 155 49t172 18q106 0 185.5 -26t133 -71.5t80 -107.5t26.5 -135v-365q0 -96 2 -165t4 -123h-214l-10 103h-4 q-20 -21 -48 -43t-64 -41.5t-80 -31.5t-95 -12q-69 0 -129 21.5t-103 62t-67.5 98t-24.5 128.5zM326 294q0 -33 11.5 -57.5t31 -40.5t45.5 -24t55 -8q36 0 68 9.5t59 24t48.5 32.5t36.5 35v148q-34 8 -78 14.5t-89 6.5q-87 0 -137.5 -34.5t-50.5 -105.5zM125 968zM212 1124 l210 319h206l210 -319h-185l-126 182h-4l-126 -182h-185zM720 1499v106q15 5 43.5 10.5t72.5 5.5q103 0 151 -35t48 -110q0 -31 -12.5 -54.5t-33 -40.5t-47 -28t-53.5 -16l-7 -48h-95l-18 122q54 2 81.5 13.5t27.5 42.5q0 14 -6.5 23t-17 14t-24 7t-26.5 2q-29 0 -49.5 -4.5 t-34.5 -9.5z" />
<glyph unicode="&#x1eaa;" horiz-adv-x="1346" d="M30 0l531 1338h224l531 -1338h-259l-131 341h-504l-131 -341h-261zM501 546h346l-46 119q-55 142 -125 351h-4q-70 -210 -125 -351zM275 1340zM342 1702v26q0 41 10.5 75.5t33 60t57.5 39.5t84 14q37 0 67.5 -9t59.5 -19.5t58.5 -19t65.5 -8.5q28 0 42.5 9.5t16.5 44.5 h157q1 -7 1 -11v-16q0 -41 -13.5 -75.5t-38 -59.5t-59 -39t-76.5 -14q-32 0 -65.5 8.5t-66 19t-63 19.5t-56.5 9q-14 0 -24 -1.5t-17 -7t-11.5 -16.5t-5.5 -29h-157zM356 1409l216 247h206l216 -247h-207l-110 126h-4l-111 -126h-206z" />
<glyph unicode="&#x1eab;" horiz-adv-x="1054" d="M85 285q0 78 28.5 140t79.5 105t122 65.5t157 22.5q63 0 116 -8t93 -19v39q0 34 -11.5 65.5t-37 56t-66.5 39t-100 14.5q-72 0 -144 -16t-156 -48v185q73 32 155 49t172 18q106 0 185.5 -26t133 -71.5t80 -107.5t26.5 -135v-365q0 -96 2 -165t4 -123h-214l-10 103h-4 q-20 -21 -48 -43t-64 -41.5t-80 -31.5t-95 -12q-69 0 -129 21.5t-103 62t-67.5 98t-24.5 128.5zM326 294q0 -33 11.5 -57.5t31 -40.5t45.5 -24t55 -8q36 0 68 9.5t59 24t48.5 32.5t36.5 35v148q-34 8 -78 14.5t-89 6.5q-87 0 -137.5 -34.5t-50.5 -105.5zM125 968zM192 1489 v26q0 41 10.5 75.5t33 60t57.5 39.5t84 14q37 0 67.5 -9t59.5 -19.5t58.5 -19t65.5 -8.5q28 0 42.5 9.5t16.5 44.5h157q1 -7 1 -11v-16q0 -41 -13.5 -75.5t-38 -59.5t-59 -39t-76.5 -14q-32 0 -65.5 8.5t-66 19t-63 19.5t-56.5 9q-14 0 -24 -1.5t-17 -7t-11.5 -16.5 t-5.5 -29h-157zM212 1124l210 319h206l210 -319h-185l-126 182h-4l-126 -182h-185z" />
<glyph unicode="&#x1eac;" horiz-adv-x="1346" d="M30 0l531 1338h224l531 -1338h-259l-131 341h-504l-131 -341h-261zM501 546h346l-46 119q-55 142 -125 351h-4q-70 -210 -125 -351zM550 -141h249v-257h-249v257zM275 1338zM356 1409l216 247h206l216 -247h-207l-110 126h-4l-111 -126h-206z" />
<glyph unicode="&#x1ead;" horiz-adv-x="1054" d="M85 285q0 78 28.5 140t79.5 105t122 65.5t157 22.5q63 0 116 -8t93 -19v39q0 34 -11.5 65.5t-37 56t-66.5 39t-100 14.5q-72 0 -144 -16t-156 -48v185q73 32 155 49t172 18q106 0 185.5 -26t133 -71.5t80 -107.5t26.5 -135v-365q0 -96 2 -165t4 -123h-214l-10 103h-4 q-20 -21 -48 -43t-64 -41.5t-80 -31.5t-95 -12q-69 0 -129 21.5t-103 62t-67.5 98t-24.5 128.5zM326 294q0 -33 11.5 -57.5t31 -40.5t45.5 -24t55 -8q36 0 68 9.5t59 24t48.5 32.5t36.5 35v148q-34 8 -78 14.5t-89 6.5q-87 0 -137.5 -34.5t-50.5 -105.5zM125 969zM212 1124 l210 349h206l210 -349h-185l-126 212h-4l-126 -212h-185zM378 -141h249v-257h-249v257z" />
<glyph unicode="&#x1eae;" horiz-adv-x="1346" d="M30 0l531 1338h224l531 -1338h-259l-131 341h-504l-131 -341h-261zM501 546h346l-46 119q-55 142 -125 351h-4q-70 -210 -125 -351zM336 1665h206q11 -49 46 -73t84 -24t84 24t46 73h206q-7 -59 -32.5 -107.5t-68 -83t-101.5 -53.5t-134 -19t-134 19t-101.5 53.5t-68 83 t-32.5 107.5zM587 1665l109 264h214l-169 -264h-154z" />
<glyph unicode="&#x1eaf;" horiz-adv-x="1054" d="M85 285q0 78 28.5 140t79.5 105t122 65.5t157 22.5q63 0 116 -8t93 -19v39q0 34 -11.5 65.5t-37 56t-66.5 39t-100 14.5q-72 0 -144 -16t-156 -48v185q73 32 155 49t172 18q106 0 185.5 -26t133 -71.5t80 -107.5t26.5 -135v-365q0 -96 2 -165t4 -123h-214l-10 103h-4 q-20 -21 -48 -43t-64 -41.5t-80 -31.5t-95 -12q-69 0 -129 21.5t-103 62t-67.5 98t-24.5 128.5zM326 294q0 -33 11.5 -57.5t31 -40.5t45.5 -24t55 -8q36 0 68 9.5t59 24t48.5 32.5t36.5 35v148q-34 8 -78 14.5t-89 6.5q-87 0 -137.5 -34.5t-50.5 -105.5zM122 968zM181 1397 h203q8 -66 43 -103.5t95 -37.5t95 37.5t43 103.5h203q-3 -62 -25.5 -118t-65 -98t-105 -66.5t-145.5 -24.5t-145.5 24.5t-105 66.5t-65 98t-25.5 118zM436 1397l109 264h214l-169 -264h-154z" />
<glyph unicode="&#x1eb0;" horiz-adv-x="1346" d="M30 0l531 1338h224l531 -1338h-259l-131 341h-504l-131 -341h-261zM501 546h346l-46 119q-55 142 -125 351h-4q-70 -210 -125 -351zM336 1665h206q11 -49 46 -73t84 -24t84 24t46 73h206q-7 -59 -32.5 -107.5t-68 -83t-101.5 -53.5t-134 -19t-134 19t-101.5 53.5t-68 83 t-32.5 107.5zM434 1929h214l109 -264h-154z" />
<glyph unicode="&#x1eb1;" horiz-adv-x="1054" d="M85 285q0 78 28.5 140t79.5 105t122 65.5t157 22.5q63 0 116 -8t93 -19v39q0 34 -11.5 65.5t-37 56t-66.5 39t-100 14.5q-72 0 -144 -16t-156 -48v185q73 32 155 49t172 18q106 0 185.5 -26t133 -71.5t80 -107.5t26.5 -135v-365q0 -96 2 -165t4 -123h-214l-10 103h-4 q-20 -21 -48 -43t-64 -41.5t-80 -31.5t-95 -12q-69 0 -129 21.5t-103 62t-67.5 98t-24.5 128.5zM326 294q0 -33 11.5 -57.5t31 -40.5t45.5 -24t55 -8q36 0 68 9.5t59 24t48.5 32.5t36.5 35v148q-34 8 -78 14.5t-89 6.5q-87 0 -137.5 -34.5t-50.5 -105.5zM122 968zM181 1397 h203q8 -66 43 -103.5t95 -37.5t95 37.5t43 103.5h203q-3 -62 -25.5 -118t-65 -98t-105 -66.5t-145.5 -24.5t-145.5 24.5t-105 66.5t-65 98t-25.5 118zM285 1661h214l109 -264h-154z" />
<glyph unicode="&#x1eb2;" horiz-adv-x="1346" d="M30 0l531 1338h224l531 -1338h-259l-131 341h-504l-131 -341h-261zM501 546h346l-46 119q-55 142 -125 351h-4q-70 -210 -125 -351zM336 1665h206q11 -49 46 -73t84 -24t84 24t46 73h206q-7 -59 -32.5 -107.5t-68 -83t-101.5 -53.5t-134 -19t-134 19t-101.5 53.5t-68 83 t-32.5 107.5zM544 1828v106q15 5 43.5 10.5t72.5 5.5q103 0 151 -30.5t48 -99.5q0 -31 -12.5 -54t-33 -39t-47 -26.5t-53.5 -15.5l-7 -40h-95l-18 100q54 2 81.5 16t27.5 45q0 20 -23.5 28t-50.5 8q-29 0 -49.5 -4.5t-34.5 -9.5z" />
<glyph unicode="&#x1eb3;" horiz-adv-x="1054" d="M85 285q0 78 28.5 140t79.5 105t122 65.5t157 22.5q63 0 116 -8t93 -19v39q0 34 -11.5 65.5t-37 56t-66.5 39t-100 14.5q-72 0 -144 -16t-156 -48v185q73 32 155 49t172 18q106 0 185.5 -26t133 -71.5t80 -107.5t26.5 -135v-365q0 -96 2 -165t4 -123h-214l-10 103h-4 q-20 -21 -48 -43t-64 -41.5t-80 -31.5t-95 -12q-69 0 -129 21.5t-103 62t-67.5 98t-24.5 128.5zM326 294q0 -33 11.5 -57.5t31 -40.5t45.5 -24t55 -8q36 0 68 9.5t59 24t48.5 32.5t36.5 35v148q-34 8 -78 14.5t-89 6.5q-87 0 -137.5 -34.5t-50.5 -105.5zM122 968zM181 1397 h203q8 -66 43 -103.5t95 -37.5t95 37.5t43 103.5h203q-3 -62 -25.5 -118t-65 -98t-105 -66.5t-145.5 -24.5t-145.5 24.5t-105 66.5t-65 98t-25.5 118zM389 1599v106q15 5 43.5 10.5t72.5 5.5q103 0 151 -35t48 -110q0 -31 -12.5 -54.5t-33 -40.5t-47 -28t-53.5 -16l-7 -48 h-95l-18 122q54 2 81.5 13.5t27.5 42.5q0 14 -6.5 23t-17 14t-24 7t-26.5 2q-29 0 -49.5 -4.5t-34.5 -9.5z" />
<glyph unicode="&#x1eb4;" horiz-adv-x="1346" d="M30 0l531 1338h224l531 -1338h-259l-131 341h-504l-131 -341h-261zM501 546h346l-46 119q-55 142 -125 351h-4q-70 -210 -125 -351zM336 1665h206q11 -49 46 -73t84 -24t84 24t46 73h206q-7 -59 -32.5 -107.5t-68 -83t-101.5 -53.5t-134 -19t-134 19t-101.5 53.5t-68 83 t-32.5 107.5zM339 1735v26q0 41 10.5 75.5t33 60t57.5 39.5t84 14q37 0 67.5 -9t59.5 -19.5t58.5 -19t65.5 -8.5q28 0 42.5 9.5t16.5 44.5h157q1 -7 1 -11v-16q0 -41 -13.5 -75.5t-38 -59.5t-59 -39t-76.5 -14q-32 0 -65.5 8.5t-66 19t-63 19.5t-56.5 9q-14 0 -24 -1.5 t-17 -7t-11.5 -16.5t-5.5 -29h-157z" />
<glyph unicode="&#x1eb5;" horiz-adv-x="1054" d="M85 285q0 78 28.5 140t79.5 105t122 65.5t157 22.5q63 0 116 -8t93 -19v39q0 34 -11.5 65.5t-37 56t-66.5 39t-100 14.5q-72 0 -144 -16t-156 -48v185q73 32 155 49t172 18q106 0 185.5 -26t133 -71.5t80 -107.5t26.5 -135v-365q0 -96 2 -165t4 -123h-214l-10 103h-4 q-20 -21 -48 -43t-64 -41.5t-80 -31.5t-95 -12q-69 0 -129 21.5t-103 62t-67.5 98t-24.5 128.5zM326 294q0 -33 11.5 -57.5t31 -40.5t45.5 -24t55 -8q36 0 68 9.5t59 24t48.5 32.5t36.5 35v148q-34 8 -78 14.5t-89 6.5q-87 0 -137.5 -34.5t-50.5 -105.5zM122 968zM181 1397 h203q8 -66 43 -103.5t95 -37.5t95 37.5t43 103.5h203q-3 -62 -25.5 -118t-65 -98t-105 -66.5t-145.5 -24.5t-145.5 24.5t-105 66.5t-65 98t-25.5 118zM189 1489v26q0 41 10.5 75.5t33 60t57.5 39.5t84 14q37 0 67.5 -9t59.5 -19.5t58.5 -19t65.5 -8.5q28 0 42.5 9.5 t16.5 44.5h157q1 -7 1 -11v-16q0 -41 -13.5 -75.5t-38 -59.5t-59 -39t-76.5 -14q-32 0 -65.5 8.5t-66 19t-63 19.5t-56.5 9q-14 0 -24 -1.5t-17 -7t-11.5 -16.5t-5.5 -29h-157z" />
<glyph unicode="&#x1eb6;" horiz-adv-x="1346" d="M30 0l531 1338h224l531 -1338h-259l-131 341h-504l-131 -341h-261zM501 546h346l-46 119q-55 142 -125 351h-4q-70 -210 -125 -351zM272 1338zM336 1680h206q11 -60 46 -86t84 -26t84 26t46 86h206q-7 -65 -32 -116.5t-68 -87.5t-102 -55t-134 -19t-134 19t-102 55 t-68 87.5t-32 116.5zM550 -141h249v-257h-249v257z" />
<glyph unicode="&#x1eb7;" horiz-adv-x="1054" d="M85 285q0 78 28.5 140t79.5 105t122 65.5t157 22.5q63 0 116 -8t93 -19v39q0 34 -11.5 65.5t-37 56t-66.5 39t-100 14.5q-72 0 -144 -16t-156 -48v185q73 32 155 49t172 18q106 0 185.5 -26t133 -71.5t80 -107.5t26.5 -135v-365q0 -96 2 -165t4 -123h-214l-10 103h-4 q-20 -21 -48 -43t-64 -41.5t-80 -31.5t-95 -12q-69 0 -129 21.5t-103 62t-67.5 98t-24.5 128.5zM326 294q0 -33 11.5 -57.5t31 -40.5t45.5 -24t55 -8q36 0 68 9.5t59 24t48.5 32.5t36.5 35v148q-34 8 -78 14.5t-89 6.5q-87 0 -137.5 -34.5t-50.5 -105.5zM122 969zM181 1427 h203q8 -88 43.5 -129.5t94.5 -41.5t94.5 41.5t43.5 129.5h203q-3 -73 -25.5 -135t-65 -107t-105 -70t-145.5 -25q-82 0 -145 25t-105.5 70t-65 107t-25.5 135zM378 -141h249v-257h-249v257z" />
<glyph unicode="&#x1eb8;" horiz-adv-x="1163" d="M160 0v1338h867v-205h-622v-346h534v-205h-534v-377h658v-205h-903zM490 -141h249v-257h-249v257z" />
<glyph unicode="&#x1eb9;" horiz-adv-x="1050" d="M80 468q0 132 38 231t102 164t146.5 97.5t170.5 32.5q92 0 169.5 -28t134 -88t88 -154.5t31.5 -223.5q-1 -50 -3 -85h-635q5 -67 30 -114.5t65.5 -77t94.5 -43t117 -13.5q69 0 144 14t152 40v-189q-46 -20 -141 -38t-197 -18q-103 0 -195.5 26.5t-161.5 85.5t-109.5 153 t-40.5 228zM333 599h381q0 43 -11.5 81t-34 66.5t-56 45t-78.5 16.5t-80 -16.5t-60.5 -45t-40.5 -66.5t-20 -81zM436 -141h249v-257h-249v257z" />
<glyph unicode="&#x1eba;" horiz-adv-x="1163" d="M160 0v1338h867v-205h-622v-346h534v-205h-534v-377h658v-205h-903zM348 1340zM441 1648v128q18 6 49 12.5t83 6.5q125 0 188.5 -42t63.5 -133q0 -38 -18 -67.5t-45.5 -51.5t-61.5 -36t-67 -20l-9 -36h-109l-22 133q32 1 59.5 5t47.5 11.5t31.5 20t11.5 30.5 q0 17 -9.5 28t-24.5 17t-33 8.5t-34 2.5q-34 0 -59 -5.5t-42 -11.5z" />
<glyph unicode="&#x1ebb;" horiz-adv-x="1050" d="M80 468q0 132 38 231t102 164t146.5 97.5t170.5 32.5q92 0 169.5 -28t134 -88t88 -154.5t31.5 -223.5q-1 -50 -3 -85h-635q5 -67 30 -114.5t65.5 -77t94.5 -43t117 -13.5q69 0 144 14t152 40v-189q-46 -20 -141 -38t-197 -18q-103 0 -195.5 26.5t-161.5 85.5t-109.5 153 t-40.5 228zM333 599h381q0 43 -11.5 81t-34 66.5t-56 45t-78.5 16.5t-80 -16.5t-60.5 -45t-40.5 -66.5t-20 -81zM272 968zM365 1378v128q18 6 49 12.5t83 6.5q125 0 188.5 -42t63.5 -133q0 -38 -18 -67.5t-45.5 -51.5t-61.5 -36t-67 -20l-9 -50h-109l-22 147q32 1 59.5 5 t47.5 11.5t31.5 20t11.5 30.5q0 17 -9.5 28t-24.5 17t-33 8.5t-34 2.5q-34 0 -59 -5.5t-42 -11.5z" />
<glyph unicode="&#x1ebc;" horiz-adv-x="1163" d="M160 0v1338h867v-205h-622v-346h534v-205h-534v-377h658v-205h-903zM198 1339zM271 1444q0 39 8.5 77t30 68.5t57 48.5t83.5 18q39 0 77 -13.5t71 -30.5q35 -19 65.5 -33.5t52.5 -14.5q28 0 39.5 19t11.5 65h157q1 -15 1 -33q0 -38 -8.5 -76t-30 -69t-57 -49t-83.5 -18 q-40 0 -77 13.5t-70 30.5q-35 18 -65.5 33t-53.5 15q-28 0 -39.5 -19t-11.5 -65h-157q-1 16 -1 33z" />
<glyph unicode="&#x1ebd;" horiz-adv-x="1050" d="M80 468q0 132 38 231t102 164t146.5 97.5t170.5 32.5q92 0 169.5 -28t134 -88t88 -154.5t31.5 -223.5q-1 -50 -3 -85h-635q5 -67 30 -114.5t65.5 -77t94.5 -43t117 -13.5q69 0 144 14t152 40v-189q-46 -20 -141 -38t-197 -18q-103 0 -195.5 26.5t-161.5 85.5t-109.5 153 t-40.5 228zM333 599h381q0 43 -11.5 81t-34 66.5t-56 45t-78.5 16.5t-80 -16.5t-60.5 -45t-40.5 -66.5t-20 -81zM169 969zM201 1187q0 43 7.5 80.5t30 70t58 50.5t83.5 18q41 0 78 -13.5t70 -30.5q35 -18 65 -33t53 -15q28 0 39.5 19t11.5 65h157q1 -13 1 -37 q0 -29 -8 -69.5t-30 -71.5t-57.5 -49t-83.5 -18q-39 0 -76.5 13.5t-72.5 31.5q-37 19 -67 33t-50 14q-28 0 -39.5 -19t-11.5 -65h-157q-1 20 -1 26z" />
<glyph unicode="&#x1ebe;" horiz-adv-x="1163" d="M160 0v1338h867v-205h-622v-346h534v-205h-534v-377h658v-205h-903zM201 1340zM282 1409l216 247h206l216 -247h-207l-110 126h-4l-111 -126h-206zM847 1558l135 247h230l-195 -247h-170z" />
<glyph unicode="&#x1ebf;" horiz-adv-x="1050" d="M80 468q0 132 38 231t102 164t146.5 97.5t170.5 32.5q92 0 169.5 -28t134 -88t88 -154.5t31.5 -223.5q-1 -50 -3 -85h-635q5 -67 30 -114.5t65.5 -77t94.5 -43t117 -13.5q69 0 144 14t152 40v-189q-46 -20 -141 -38t-197 -18q-103 0 -195.5 26.5t-161.5 85.5t-109.5 153 t-40.5 228zM333 599h381q0 43 -11.5 81t-34 66.5t-56 45t-78.5 16.5t-80 -16.5t-60.5 -45t-40.5 -66.5t-20 -81zM131 968zM218 1124l210 319h206l210 -319h-185l-126 182h-4l-126 -182h-185zM796 1293l99 309h224l-159 -309h-164z" />
<glyph unicode="&#x1ec0;" horiz-adv-x="1163" d="M160 0v1338h867v-205h-622v-346h534v-205h-534v-377h658v-205h-903zM-9 1805h230l135 -247h-170zM201 1340zM282 1409l216 247h206l216 -247h-207l-110 126h-4l-111 -126h-206z" />
<glyph unicode="&#x1ec1;" horiz-adv-x="1050" d="M80 468q0 132 38 231t102 164t146.5 97.5t170.5 32.5q92 0 169.5 -28t134 -88t88 -154.5t31.5 -223.5q-1 -50 -3 -85h-635q5 -67 30 -114.5t65.5 -77t94.5 -43t117 -13.5q69 0 144 14t152 40v-189q-46 -20 -141 -38t-197 -18q-103 0 -195.5 26.5t-161.5 85.5t-109.5 153 t-40.5 228zM333 599h381q0 43 -11.5 81t-34 66.5t-56 45t-78.5 16.5t-80 -16.5t-60.5 -45t-40.5 -66.5t-20 -81zM-62 1602h224l99 -309h-164zM131 968zM218 1124l210 319h206l210 -319h-185l-126 182h-4l-126 -182h-185z" />
<glyph unicode="&#x1ec2;" horiz-adv-x="1163" d="M160 0v1338h867v-205h-622v-346h534v-205h-534v-377h658v-205h-903zM201 1340zM282 1409l216 247h206l216 -247h-207l-110 126h-4l-111 -126h-206zM785 1763v106q15 5 43.5 10.5t72.5 5.5q103 0 151 -35t48 -110q0 -31 -12.5 -54.5t-33 -40.5t-47 -28t-53.5 -16l-7 -48 h-95l-18 122q54 2 81.5 13.5t27.5 42.5q0 14 -6.5 23t-17 14t-24 7t-26.5 2q-29 0 -49.5 -4.5t-34.5 -9.5z" />
</font>
</defs>
</svg>
